<?xml version="1.0" encoding="UTF-8" standalone="no"?>
<svg
   xmlns:serif="http://www.serif.com/"
   xmlns:dc="http://purl.org/dc/elements/1.1/"
   xmlns:cc="http://creativecommons.org/ns#"
   xmlns:rdf="http://www.w3.org/1999/02/22-rdf-syntax-ns#"
   xmlns:svg="http://www.w3.org/2000/svg"
   xmlns="http://www.w3.org/2000/svg"
   xmlns:sodipodi="http://sodipodi.sourceforge.net/DTD/sodipodi-0.dtd"
   xmlns:inkscape="http://www.inkscape.org/namespaces/inkscape"
   inkscape:export-ydpi="96"
   inkscape:export-xdpi="96"
   inkscape:export-filename="C:\Users\Dell\Desktop\bee_og.png"
   width="1200"
   height="628"
   viewBox="0 0 317.5 166.15834"
   version="1.1"
   id="svg8"
   inkscape:version="1.0 (4035a4fb49, 2020-05-01)"
   sodipodi:docname="bee_og.svg">
  <defs
     id="defs2">
    <clipPath
       id="_clip1">
      <path
         id="path156"
         d="M 256,8 C 118.941,8 8,118.919 8,256 c 0,137.059 110.919,248 248,248 48.154,0 95.342,-14.14 135.408,-40.223 12.005,-7.815 14.625,-24.288 5.552,-35.372 L 386.783,415.972 C 379.112,406.601 365.604,404.305 355.41,410.843 325.92,429.757 291.314,440 256,440 154.542,440 72,357.458 72,256 72,154.542 154.542,72 256,72 c 100.139,0 184,57.619 184,160 0,38.786 -21.093,79.742 -58.17,83.693 -17.349,-0.454 -16.91,-12.857 -13.476,-30.024 l 23.433,-121.11 C 394.653,149.75 383.308,136 368.225,136 h -44.981 c -6.842,0 -12.66,5.195 -13.432,11.993 l -0.01,0.092 C 295.105,130.184 269.354,126.31 249.831,126.31 175.251,126.31 112,188.544 112,277.77 c 0,65.303 36.785,105.87 96,105.87 26.984,0 57.369,-15.637 74.991,-38.333 9.522,34.104 40.613,34.103 70.71,34.103 C 462.609,379.41 504,307.798 504,232 504,95.653 394.023,8 256,8 Z m -21.68,304.43 c -22.249,0 -36.07,-15.623 -36.07,-40.771 0,-44.993 30.779,-72.729 58.63,-72.729 22.292,0 35.601,15.241 35.601,40.77 0,45.061 -33.875,72.73 -58.161,72.73 z" />
    </clipPath>
  </defs>
  <sodipodi:namedview
     id="base"
     pagecolor="#ffffff"
     bordercolor="#666666"
     borderopacity="1.0"
     inkscape:pageopacity="0.0"
     inkscape:pageshadow="2"
     inkscape:zoom="0.64589098"
     inkscape:cx="171.46214"
     inkscape:cy="254.8067"
     inkscape:document-units="px"
     inkscape:current-layer="layer1"
     inkscape:document-rotation="0"
     showgrid="true"
     units="px"
     inkscape:pagecheckerboard="false"
     objecttolerance="20"
     gridtolerance="10000"
     inkscape:window-width="1366"
     inkscape:window-height="706"
     inkscape:window-x="-8"
     inkscape:window-y="-8"
     inkscape:window-maximized="1">
    <inkscape:grid
       type="xygrid"
       id="grid292"
       spacingx="5.2916668"
       spacingy="5.2916668" />
  </sodipodi:namedview>
  <metadata
     id="metadata5">
    <rdf:RDF>
      <cc:Work
         rdf:about="">
        <dc:format>image/svg+xml</dc:format>
        <dc:type
           rdf:resource="http://purl.org/dc/dcmitype/StillImage" />
        <dc:title></dc:title>
      </cc:Work>
    </rdf:RDF>
  </metadata>
  <g
     inkscape:label="Warstwa 1"
     inkscape:groupmode="layer"
     id="layer1">
    <rect
       y="0"
       x="0"
       height="166.15834"
       width="317.5"
       id="rect859"
       style="fill:#fbc403;fill-opacity:1;stroke-width:0.235404" />
    <g
       id="g190"
       transform="matrix(0.0640121,0,0,0.0640121,16.68582,62.987904)"
       style="clip-rule:evenodd;fill-rule:evenodd;stroke-linejoin:round;stroke-miterlimit:2">
      <path
         id="path154"
         style="fill:#ffffff;fill-opacity:0"
         d="M 256,8 C 118.941,8 8,118.919 8,256 c 0,137.059 110.919,248 248,248 48.154,0 95.342,-14.14 135.408,-40.223 12.005,-7.815 14.625,-24.288 5.552,-35.372 L 386.783,415.972 C 379.112,406.601 365.604,404.305 355.41,410.843 325.92,429.757 291.314,440 256,440 154.542,440 72,357.458 72,256 72,154.542 154.542,72 256,72 c 100.139,0 184,57.619 184,160 0,38.786 -21.093,79.742 -58.17,83.693 -17.349,-0.454 -16.91,-12.857 -13.476,-30.024 l 23.433,-121.11 C 394.653,149.75 383.308,136 368.225,136 h -44.981 c -6.842,0 -12.66,5.195 -13.432,11.993 l -0.01,0.092 C 295.105,130.184 269.354,126.31 249.831,126.31 175.251,126.31 112,188.544 112,277.77 c 0,65.303 36.785,105.87 96,105.87 26.984,0 57.369,-15.637 74.991,-38.333 9.522,34.104 40.613,34.103 70.71,34.103 C 462.609,379.41 504,307.798 504,232 504,95.653 394.023,8 256,8 Z m -21.68,304.43 c -22.249,0 -36.07,-15.623 -36.07,-40.771 0,-44.993 30.779,-72.729 58.63,-72.729 22.292,0 35.601,15.241 35.601,40.77 0,45.061 -33.875,72.73 -58.161,72.73 z" />
      <clipPath
         id="clipPath213">
        <path
           id="path211"
           d="M 256,8 C 118.941,8 8,118.919 8,256 c 0,137.059 110.919,248 248,248 48.154,0 95.342,-14.14 135.408,-40.223 12.005,-7.815 14.625,-24.288 5.552,-35.372 L 386.783,415.972 C 379.112,406.601 365.604,404.305 355.41,410.843 325.92,429.757 291.314,440 256,440 154.542,440 72,357.458 72,256 72,154.542 154.542,72 256,72 c 100.139,0 184,57.619 184,160 0,38.786 -21.093,79.742 -58.17,83.693 -17.349,-0.454 -16.91,-12.857 -13.476,-30.024 l 23.433,-121.11 C 394.653,149.75 383.308,136 368.225,136 h -44.981 c -6.842,0 -12.66,5.195 -13.432,11.993 l -0.01,0.092 C 295.105,130.184 269.354,126.31 249.831,126.31 175.251,126.31 112,188.544 112,277.77 c 0,65.303 36.785,105.87 96,105.87 26.984,0 57.369,-15.637 74.991,-38.333 9.522,34.104 40.613,34.103 70.71,34.103 C 462.609,379.41 504,307.798 504,232 504,95.653 394.023,8 256,8 Z m -21.68,304.43 c -22.249,0 -36.07,-15.623 -36.07,-40.771 0,-44.993 30.779,-72.729 58.63,-72.729 22.292,0 35.601,15.241 35.601,40.77 0,45.061 -33.875,72.73 -58.161,72.73 z" />
      </clipPath>
      <g
         id="g188"
         clip-path="url(#_clip1)">
        <g
           id="g186">
          <g
             transform="matrix(0.933333,0,0,1,5,0)"
             id="black">
            <rect
               id="rect159"
               style="fill:#0a0a0a"
               height="512"
               width="60"
               y="0"
               x="0" />
          </g>
          <g
             transform="matrix(0.933333,0,0,1,229,0)"
             serif:id="black"
             id="black1">
            <rect
               id="rect162"
               style="fill:#0a0a0a"
               height="512"
               width="60"
               y="0"
               x="0" />
          </g>
          <g
             transform="matrix(0.933333,0,0,1,285,0)"
             id="yellow">
            <rect
               id="rect165"
               style="fill:#fbc403"
               height="512"
               width="60"
               y="0"
               x="0" />
          </g>
          <g
             transform="matrix(0.933333,0,0,1,341,0)"
             serif:id="black"
             id="black2">
            <rect
               id="rect168"
               style="fill:#0a0a0a"
               height="512"
               width="60"
               y="0"
               x="0" />
          </g>
          <g
             transform="matrix(0.933333,0,0,1,453,0)"
             serif:id="black"
             id="black3">
            <rect
               id="rect171"
               style="fill:#0a0a0a"
               height="512"
               width="60"
               y="0"
               x="0" />
          </g>
          <g
             transform="matrix(0.933333,0,0,1,397,0)"
             serif:id="yellow"
             id="yellow1">
            <rect
               id="rect174"
               style="fill:#fbc403"
               height="512"
               width="60"
               y="0"
               x="0" />
          </g>
          <g
             transform="matrix(0.933333,0,0,1,173,0)"
             serif:id="yellow"
             id="yellow2">
            <rect
               id="rect177"
               style="fill:#fbc403"
               height="512"
               width="60"
               y="0"
               x="0" />
          </g>
          <g
             transform="matrix(0.933333,0,0,1,61,0)"
             serif:id="yellow"
             id="yellow3">
            <rect
               id="rect180"
               style="fill:#fbc403"
               height="512"
               width="60"
               y="0"
               x="0" />
          </g>
          <g
             transform="matrix(0.933333,0,0,1,117,0)"
             serif:id="black"
             id="black4">
            <rect
               id="rect183"
               style="fill:#0a0a0a"
               height="512"
               width="60"
               y="0"
               x="0" />
          </g>
        </g>
      </g>
    </g>
    <text
       xml:space="preserve"
       style="font-style:normal;font-variant:normal;font-weight:900;font-stretch:normal;font-size:31.75px;line-height:1.25;font-family:Raleway;-inkscape-font-specification:'Raleway Heavy';fill:#1a1a1a;stroke-width:0.264583"
       x="60.240334"
       y="90.402832"
       id="text296"><tspan
         sodipodi:role="line"
         id="tspan294"
         x="60.240334"
         y="90.402832"
         style="font-style:normal;font-variant:normal;font-weight:900;font-stretch:normal;font-size:31.75px;font-family:Raleway;-inkscape-font-specification:'Raleway Heavy';fill:#1a1a1a;stroke-width:0.264583">BEEONTHEWEB</tspan></text>
  </g>
</svg>
