<svg width="324" height="35" viewBox="0 0 324 35" fill="none" xmlns="http://www.w3.org/2000/svg" id="beeontheweb-logo">
<mask id="path-1-inside-1" fill="white">
<path d="M1.184 33.952C0.959996 33.952 0.767996 33.888 0.607996 33.76C0.447996 33.6 0.367996 33.392 0.367996 33.136V1.216C0.367996 0.991997 0.447996 0.815997 0.607996 0.687999C0.767996 0.527997 0.959996 0.447996 1.184 0.447996H9.248C10.72 0.447996 12.144 0.575996 13.52 0.831997C14.928 1.056 16.176 1.488 17.264 2.128C18.352 2.768 19.216 3.648 19.856 4.768C20.528 5.888 20.864 7.328 20.864 9.088C20.864 9.6 20.816 10.096 20.72 10.576C20.688 10.832 20.576 11.008 20.384 11.104C20.224 11.2 20.032 11.248 19.808 11.248C19.584 11.184 19.408 11.072 19.28 10.912C19.152 10.752 19.12 10.56 19.184 10.336C19.216 10.144 19.232 9.952 19.232 9.76C19.264 9.536 19.28 9.312 19.28 9.088C19.28 7.584 18.992 6.368 18.416 5.44C17.84 4.512 17.072 3.808 16.112 3.328C15.152 2.816 14.08 2.48 12.896 2.32C11.712 2.128 10.496 2.032 9.248 2.032H1.952V33.136C1.952 33.68 1.696 33.952 1.184 33.952ZM12.32 33.952H5.456C4.944 33.952 4.688 33.696 4.688 33.184C4.688 32.96 4.752 32.768 4.88 32.608C5.04 32.448 5.232 32.368 5.456 32.368H12.32C14.944 32.368 16.928 31.616 18.272 30.112C19.648 28.608 20.336 26.56 20.336 23.968C20.336 21.248 19.632 19.216 18.224 17.872C16.848 16.496 14.816 15.808 12.128 15.808H9.152C8.928 15.808 8.736 15.744 8.576 15.616C8.416 15.456 8.336 15.264 8.336 15.04C8.336 14.816 8.416 14.624 8.576 14.464C8.736 14.304 8.928 14.224 9.152 14.224H12.128C15.232 14.224 17.632 15.056 19.328 16.72C21.056 18.384 21.92 20.8 21.92 23.968C21.92 27.008 21.088 29.44 19.424 31.264C17.76 33.056 15.392 33.952 12.32 33.952ZM11.072 29.68H5.408C4.896 29.68 4.64 29.408 4.64 28.864V5.296C4.64 4.784 4.896 4.528 5.408 4.528H10.304C11.648 4.528 12.72 4.704 13.52 5.056C14.32 5.408 14.928 5.856 15.344 6.4C15.792 6.912 16.08 7.472 16.208 8.08C16.336 8.656 16.4 9.184 16.4 9.664C16.4 9.856 16.384 10.112 16.352 10.432C16.352 10.752 16.304 11.072 16.208 11.392C16.112 11.712 15.984 11.984 15.824 12.208C15.664 12.432 15.456 12.544 15.2 12.544C15.04 12.544 14.928 12.528 14.864 12.496C14.672 12.4 14.528 12.256 14.432 12.064C14.368 11.84 14.384 11.632 14.48 11.44C14.704 10.96 14.816 10.368 14.816 9.664C14.816 8.256 14.384 7.312 13.52 6.832C12.656 6.352 11.584 6.112 10.304 6.112H6.224V28.096H11.072C11.84 28.096 12.544 28.064 13.184 28C13.824 27.936 14.368 27.776 14.816 27.52C15.264 27.264 15.6 26.88 15.824 26.368C16.08 25.856 16.208 25.152 16.208 24.256C16.208 23.36 16.08 22.64 15.824 22.096C15.6 21.552 15.248 21.12 14.768 20.8C14.32 20.48 13.776 20.272 13.136 20.176C12.528 20.048 11.84 19.984 11.072 19.984H9.152C8.928 19.984 8.736 19.904 8.576 19.744C8.448 19.584 8.384 19.392 8.384 19.168C8.384 18.656 8.64 18.4 9.152 18.4H11.072C12.064 18.4 12.96 18.496 13.76 18.688C14.592 18.88 15.296 19.216 15.872 19.696C16.48 20.144 16.944 20.736 17.264 21.472C17.616 22.208 17.792 23.136 17.792 24.256C17.792 25.408 17.616 26.336 17.264 27.04C16.944 27.744 16.48 28.304 15.872 28.72C15.296 29.104 14.592 29.36 13.76 29.488C12.96 29.616 12.064 29.68 11.072 29.68ZM19.088 13.84C18.704 13.744 18.448 13.6 18.32 13.408C18.192 13.184 18.176 12.944 18.272 12.688C18.368 12.304 18.64 12.112 19.088 12.112C19.216 12.112 19.312 12.128 19.376 12.16C19.6 12.224 19.76 12.368 19.856 12.592C19.952 12.784 19.968 13.008 19.904 13.264C19.744 13.648 19.472 13.84 19.088 13.84Z"/>
<path d="M31.2631 34.096C31.0391 34.096 30.8471 34.016 30.6871 33.856C30.5271 33.696 30.4471 33.504 30.4471 33.28V19.36C30.4471 19.136 30.5271 18.944 30.6871 18.784C30.8471 18.624 31.0391 18.544 31.2631 18.544H44.3671C44.5911 18.544 44.7831 18.624 44.9431 18.784C45.1031 18.944 45.1831 19.136 45.1831 19.36C45.1831 19.584 45.1031 19.776 44.9431 19.936C44.7831 20.064 44.5911 20.128 44.3671 20.128H32.0311V32.512H48.6871C49.1991 32.512 49.4551 32.768 49.4551 33.28C49.4551 33.504 49.3751 33.696 49.2151 33.856C49.0871 34.016 48.9111 34.096 48.6871 34.096H31.2631ZM31.2631 15.952C31.0391 15.952 30.8471 15.872 30.6871 15.712C30.5271 15.552 30.4471 15.36 30.4471 15.136V1.12C30.4471 0.895997 30.5271 0.703998 30.6871 0.543998C30.8471 0.383998 31.0391 0.303998 31.2631 0.303998C31.4871 0.303998 31.6631 0.383998 31.7911 0.543998C31.9511 0.703998 32.0311 0.895997 32.0311 1.12V14.368H44.3671C44.5911 14.368 44.7831 14.448 44.9431 14.608C45.1031 14.736 45.1831 14.912 45.1831 15.136C45.1831 15.36 45.1031 15.552 44.9431 15.712C44.7831 15.872 44.5911 15.952 44.3671 15.952H31.2631ZM48.5911 4.624C48.8151 4.624 49.0071 4.704 49.1671 4.864C49.3271 5.024 49.4071 5.216 49.4071 5.44C49.4071 5.664 49.3271 5.856 49.1671 6.016C49.0071 6.144 48.8151 6.208 48.5911 6.208H36.1591V11.584C36.1591 11.808 36.0791 12 35.9191 12.16C35.7591 12.32 35.5671 12.4 35.3431 12.4C35.1191 12.4 34.9271 12.32 34.7671 12.16C34.6391 12 34.5751 11.808 34.5751 11.584V5.44C34.5751 5.216 34.6391 5.024 34.7671 4.864C34.9271 4.704 35.1191 4.624 35.3431 4.624H48.5911ZM35.1991 2.032C34.9751 2.032 34.7831 1.952 34.6231 1.792C34.4951 1.632 34.4311 1.44 34.4311 1.216C34.4311 0.703997 34.6871 0.447996 35.1991 0.447996H48.6871C48.9111 0.447996 49.1031 0.527997 49.2631 0.687999C49.4231 0.815997 49.5031 0.991997 49.5031 1.216C49.5031 1.44 49.4231 1.632 49.2631 1.792C49.1031 1.952 48.9111 2.032 48.6871 2.032H35.1991ZM35.3431 21.952C35.5671 21.952 35.7591 22.032 35.9191 22.192C36.0791 22.32 36.1591 22.512 36.1591 22.768V28.432H45.7591C45.9831 28.432 46.1751 28.512 46.3351 28.672C46.4951 28.832 46.5751 29.024 46.5751 29.248C46.5751 29.472 46.4951 29.664 46.3351 29.824C46.1751 29.952 45.9831 30.016 45.7591 30.016H35.3431C34.8311 30.016 34.5751 29.76 34.5751 29.248V22.768C34.5751 22.224 34.8311 21.952 35.3431 21.952ZM48.7351 28.384C48.9591 28.448 49.1191 28.592 49.2151 28.816C49.3111 29.008 49.3271 29.216 49.2631 29.44V29.488C49.1031 29.872 48.8311 30.064 48.4471 30.064C48.0951 29.968 47.8551 29.824 47.7271 29.632C47.5991 29.408 47.5671 29.168 47.6311 28.912C47.7911 28.528 48.0631 28.336 48.4471 28.336C48.5751 28.336 48.6711 28.352 48.7351 28.384Z"/>
<path d="M57.4194 34.096C57.1954 34.096 57.0034 34.016 56.8434 33.856C56.6834 33.696 56.6034 33.504 56.6034 33.28V19.36C56.6034 19.136 56.6834 18.944 56.8434 18.784C57.0034 18.624 57.1954 18.544 57.4194 18.544H70.5234C70.7474 18.544 70.9394 18.624 71.0994 18.784C71.2594 18.944 71.3394 19.136 71.3394 19.36C71.3394 19.584 71.2594 19.776 71.0994 19.936C70.9394 20.064 70.7474 20.128 70.5234 20.128H58.1874V32.512H74.8434C75.3554 32.512 75.6114 32.768 75.6114 33.28C75.6114 33.504 75.5314 33.696 75.3714 33.856C75.2434 34.016 75.0674 34.096 74.8434 34.096H57.4194ZM57.4194 15.952C57.1954 15.952 57.0034 15.872 56.8434 15.712C56.6834 15.552 56.6034 15.36 56.6034 15.136V1.12C56.6034 0.895997 56.6834 0.703998 56.8434 0.543998C57.0034 0.383998 57.1954 0.303998 57.4194 0.303998C57.6434 0.303998 57.8194 0.383998 57.9474 0.543998C58.1074 0.703998 58.1874 0.895997 58.1874 1.12V14.368H70.5234C70.7474 14.368 70.9394 14.448 71.0994 14.608C71.2594 14.736 71.3394 14.912 71.3394 15.136C71.3394 15.36 71.2594 15.552 71.0994 15.712C70.9394 15.872 70.7474 15.952 70.5234 15.952H57.4194ZM74.7474 4.624C74.9714 4.624 75.1634 4.704 75.3234 4.864C75.4834 5.024 75.5634 5.216 75.5634 5.44C75.5634 5.664 75.4834 5.856 75.3234 6.016C75.1634 6.144 74.9714 6.208 74.7474 6.208H62.3154V11.584C62.3154 11.808 62.2354 12 62.0754 12.16C61.9154 12.32 61.7234 12.4 61.4994 12.4C61.2754 12.4 61.0834 12.32 60.9234 12.16C60.7954 12 60.7314 11.808 60.7314 11.584V5.44C60.7314 5.216 60.7954 5.024 60.9234 4.864C61.0834 4.704 61.2754 4.624 61.4994 4.624H74.7474ZM61.3554 2.032C61.1314 2.032 60.9394 1.952 60.7794 1.792C60.6514 1.632 60.5874 1.44 60.5874 1.216C60.5874 0.703997 60.8434 0.447996 61.3554 0.447996H74.8434C75.0674 0.447996 75.2594 0.527997 75.4194 0.687999C75.5794 0.815997 75.6594 0.991997 75.6594 1.216C75.6594 1.44 75.5794 1.632 75.4194 1.792C75.2594 1.952 75.0674 2.032 74.8434 2.032H61.3554ZM61.4994 21.952C61.7234 21.952 61.9154 22.032 62.0754 22.192C62.2354 22.32 62.3154 22.512 62.3154 22.768V28.432H71.9154C72.1394 28.432 72.3314 28.512 72.4914 28.672C72.6514 28.832 72.7314 29.024 72.7314 29.248C72.7314 29.472 72.6514 29.664 72.4914 29.824C72.3314 29.952 72.1394 30.016 71.9154 30.016H61.4994C60.9874 30.016 60.7314 29.76 60.7314 29.248V22.768C60.7314 22.224 60.9874 21.952 61.4994 21.952ZM74.8914 28.384C75.1154 28.448 75.2754 28.592 75.3714 28.816C75.4674 29.008 75.4834 29.216 75.4194 29.44V29.488C75.2594 29.872 74.9874 30.064 74.6034 30.064C74.2514 29.968 74.0114 29.824 73.8834 29.632C73.7554 29.408 73.7234 29.168 73.7874 28.912C73.9474 28.528 74.2194 28.336 74.6034 28.336C74.7314 28.336 74.8274 28.352 74.8914 28.384Z"/>
<path d="M80.3664 17.008C80.3664 15.472 80.5584 13.952 80.9424 12.448C81.3584 10.944 81.9344 9.536 82.6704 8.224C83.4384 6.88 84.3664 5.664 85.4544 4.576C86.5424 3.488 87.7744 2.592 89.1504 1.888C89.2144 1.824 89.3424 1.792 89.5344 1.792C89.8224 1.792 90.0464 1.92 90.2064 2.176C90.3344 2.4 90.3504 2.624 90.2544 2.848C90.1904 3.04 90.0624 3.184 89.8704 3.28C88.6224 3.952 87.5024 4.784 86.5104 5.776C85.5184 6.736 84.6864 7.824 84.0144 9.04C83.3424 10.224 82.8304 11.504 82.4784 12.88C82.1264 14.224 81.9504 15.6 81.9504 17.008C81.9504 18.96 82.2864 20.864 82.9584 22.72C83.6624 24.544 84.6224 26.16 85.8384 27.568C87.0864 28.976 88.5584 30.112 90.2544 30.976C91.9824 31.808 93.8704 32.224 95.9184 32.224C97.9664 32.224 99.8384 31.808 101.534 30.976C103.23 30.112 104.686 28.976 105.902 27.568C107.15 26.128 108.11 24.496 108.782 22.672C109.486 20.848 109.838 18.96 109.838 17.008C109.838 15.12 109.518 13.296 108.878 11.536C108.238 9.744 107.342 8.16 106.19 6.784C105.038 5.376 103.646 4.224 102.014 3.328C100.414 2.432 98.6384 1.92 96.6864 1.792V5.2C96.6864 5.712 96.4304 5.968 95.9184 5.968C94.4464 5.968 93.1024 6.272 91.8864 6.88C90.6704 7.488 89.6304 8.304 88.7664 9.328C87.9344 10.352 87.2784 11.52 86.7984 12.832C86.3504 14.144 86.1264 15.504 86.1264 16.912C86.1264 18.288 86.3504 19.632 86.7984 20.944C87.2784 22.256 87.9504 23.424 88.8144 24.448C89.6784 25.472 90.7024 26.288 91.8864 26.896C93.1024 27.504 94.4464 27.808 95.9184 27.808C97.3904 27.808 98.7344 27.504 99.9504 26.896C101.166 26.288 102.206 25.488 103.07 24.496C103.934 23.472 104.59 22.304 105.038 20.992C105.518 19.68 105.758 18.32 105.758 16.912C105.758 14.608 105.198 12.544 104.078 10.72C102.99 8.896 101.502 7.568 99.6144 6.736C99.4224 6.672 99.2784 6.544 99.1824 6.352C99.1184 6.128 99.1344 5.92 99.2304 5.728C99.3264 5.408 99.5664 5.248 99.9504 5.248C100.078 5.248 100.174 5.264 100.238 5.296C101.326 5.776 102.302 6.416 103.166 7.216C104.03 7.984 104.766 8.88 105.374 9.904C106.014 10.896 106.494 11.984 106.814 13.168C107.166 14.352 107.342 15.6 107.342 16.912C107.342 18.544 107.054 20.112 106.478 21.616C105.934 23.12 105.166 24.448 104.174 25.6C103.182 26.752 101.982 27.68 100.574 28.384C99.1664 29.056 97.6144 29.392 95.9184 29.392C94.2224 29.392 92.6704 29.04 91.2624 28.336C89.8864 27.632 88.6864 26.704 87.6624 25.552C86.6704 24.4 85.9024 23.072 85.3584 21.568C84.8144 20.064 84.5424 18.512 84.5424 16.912C84.5424 15.376 84.7824 13.888 85.2624 12.448C85.7744 10.976 86.4944 9.68 87.4224 8.56C88.3504 7.408 89.4544 6.464 90.7344 5.728C92.0464 4.96 93.5024 4.528 95.1024 4.432V0.975998C95.1024 0.463997 95.3744 0.207996 95.9184 0.207996C98.1904 0.207996 100.27 0.687997 102.158 1.648C104.046 2.576 105.678 3.824 107.054 5.392C108.43 6.928 109.502 8.704 110.27 10.72C111.038 12.736 111.422 14.832 111.422 17.008C111.422 19.184 111.038 21.296 110.27 23.344C109.502 25.36 108.43 27.152 107.054 28.72C105.678 30.256 104.03 31.488 102.11 32.416C100.222 33.344 98.1584 33.808 95.9184 33.808C93.6464 33.808 91.5504 33.344 89.6304 32.416C87.7424 31.488 86.1104 30.256 84.7344 28.72C83.3584 27.152 82.2864 25.36 81.5184 23.344C80.7504 21.296 80.3664 19.184 80.3664 17.008ZM91.2144 1.264C91.3104 0.879998 91.5824 0.687999 92.0304 0.687999C92.1584 0.687999 92.2544 0.703999 92.3184 0.735998C92.5424 0.799997 92.7024 0.943997 92.7984 1.168C92.8944 1.392 92.9104 1.616 92.8464 1.84C92.6864 2.256 92.4144 2.464 92.0304 2.464C91.6464 2.336 91.3904 2.176 91.2624 1.984C91.1344 1.76 91.1184 1.536 91.2144 1.312V1.264Z"/>
<path d="M122.167 30.928C122.167 31.44 121.895 31.696 121.351 31.696C120.839 31.696 120.583 31.44 120.583 30.928V17.344C120.583 16.8 120.839 16.528 121.351 16.528C121.895 16.528 122.167 16.8 122.167 17.344V30.928ZM117.127 34.096C116.615 34.096 116.359 33.84 116.359 33.328V1.264C116.359 0.847997 116.551 0.591997 116.935 0.495998C116.967 0.495998 116.999 0.495998 117.031 0.495998C117.063 0.463997 117.095 0.447996 117.127 0.447996C117.415 0.447996 117.639 0.575996 117.799 0.831997L137.575 32.896C137.863 33.344 137.783 33.712 137.335 34C137.143 34.064 136.999 34.096 136.903 34.096C136.615 34.096 136.391 33.968 136.231 33.712L117.943 4.048V33.328C117.943 33.552 117.863 33.744 117.703 33.904C117.543 34.032 117.351 34.096 117.127 34.096ZM123.367 4C123.079 3.552 123.159 3.184 123.607 2.896C123.703 2.832 123.847 2.8 124.039 2.8C124.359 2.8 124.583 2.912 124.711 3.136L136.135 21.328V1.264C136.135 1.04 136.199 0.847999 136.327 0.687999C136.487 0.527997 136.679 0.447996 136.903 0.447996C137.127 0.447996 137.319 0.527997 137.479 0.687999C137.639 0.847999 137.719 1.04 137.719 1.264V24.064C137.719 24.48 137.527 24.736 137.143 24.832C136.695 24.832 136.391 24.72 136.231 24.496L123.367 4ZM141.127 3.136C141.383 3.136 141.575 3.216 141.703 3.376C141.863 3.536 141.943 3.728 141.943 3.952V33.328C141.943 33.84 141.671 34.096 141.127 34.096C140.615 34.096 140.359 33.84 140.359 33.328V3.952C140.359 3.728 140.423 3.536 140.551 3.376C140.711 3.216 140.903 3.136 141.127 3.136ZM140.887 2.08C140.631 2.016 140.455 1.872 140.359 1.648C140.263 1.424 140.247 1.2 140.311 0.975998H140.359C140.455 0.559998 140.727 0.351997 141.175 0.351997C141.239 0.351997 141.271 0.367997 141.271 0.399997C141.303 0.399997 141.351 0.399997 141.415 0.399997C141.959 0.623998 142.151 0.991998 141.991 1.504L141.943 1.552C141.847 1.936 141.575 2.128 141.127 2.128L140.887 2.08Z"/>
<path d="M158.266 33.232C158.266 33.744 158.01 34 157.498 34C157.274 34 157.082 33.936 156.922 33.808C156.762 33.648 156.682 33.456 156.682 33.232V21.664C156.682 21.408 156.762 21.216 156.922 21.088C157.082 20.928 157.274 20.848 157.498 20.848C158.01 20.848 158.266 21.12 158.266 21.664V33.232ZM161.002 13.024V5.536C161.002 5.312 161.082 5.12 161.242 4.96C161.402 4.8 161.594 4.72 161.818 4.72H170.698C170.954 4.72 171.146 4.8 171.274 4.96C171.434 5.12 171.514 5.312 171.514 5.536C171.514 6.048 171.242 6.304 170.698 6.304H162.586V13.024C162.586 13.536 162.33 13.792 161.818 13.792C161.594 13.792 161.402 13.728 161.242 13.6C161.082 13.44 161.002 13.248 161.002 13.024ZM153.754 4.72C153.978 4.72 154.154 4.8 154.282 4.96C154.442 5.12 154.522 5.312 154.522 5.536C154.522 6.048 154.266 6.304 153.754 6.304H147.898C147.354 6.304 147.082 6.048 147.082 5.536C147.082 5.312 147.146 5.12 147.274 4.96C147.434 4.8 147.642 4.72 147.898 4.72H153.754ZM158.218 1.312V16.48H161.818C162.042 16.48 162.218 16.56 162.346 16.72C162.506 16.88 162.586 17.072 162.586 17.296V29.536C162.586 30.08 162.33 30.352 161.818 30.352C161.594 30.352 161.402 30.288 161.242 30.16C161.082 30 161.002 29.792 161.002 29.536V18.064H157.45C157.226 18.064 157.034 18 156.874 17.872C156.714 17.712 156.634 17.52 156.634 17.296V2.08H147.898C147.354 2.08 147.082 1.824 147.082 1.312C147.082 0.767998 147.354 0.495998 147.898 0.495998H157.45C157.962 0.495998 158.218 0.767998 158.218 1.312ZM161.818 0.495998H168.058C168.57 0.495998 168.826 0.767998 168.826 1.312C168.826 1.824 168.57 2.08 168.058 2.08H161.818C161.594 2.08 161.402 2.016 161.242 1.888C161.082 1.728 161.002 1.536 161.002 1.312C161.002 1.056 161.082 0.863998 161.242 0.735998C161.402 0.575998 161.594 0.495998 161.818 0.495998ZM170.986 0.447996C171.242 0.511997 171.418 0.655997 171.514 0.879996C171.61 1.104 171.626 1.328 171.562 1.552H171.514C171.418 1.968 171.146 2.176 170.698 2.176C170.346 2.048 170.106 1.888 169.978 1.696C169.85 1.472 169.818 1.248 169.882 1.024L169.93 0.975998C170.026 0.591997 170.298 0.399997 170.746 0.399997C170.874 0.399997 170.954 0.415997 170.986 0.447996Z"/>
<path d="M181.956 23.296C181.956 22.784 182.228 22.528 182.772 22.528C183.284 22.528 183.54 22.784 183.54 23.296V33.04C183.54 33.552 183.284 33.808 182.772 33.808C182.228 33.808 181.956 33.552 181.956 33.04V23.296ZM196.74 12.352C196.228 12.352 195.972 12.096 195.972 11.584V1.408C195.972 1.184 196.036 0.991997 196.164 0.831997C196.324 0.671997 196.516 0.591997 196.74 0.591997C196.996 0.591997 197.188 0.671997 197.316 0.831997C197.476 0.991997 197.556 1.184 197.556 1.408V11.584C197.556 12.096 197.284 12.352 196.74 12.352ZM201.012 33.664C200.788 33.664 200.596 33.584 200.436 33.424C200.308 33.264 200.244 33.072 200.244 32.848V4.72C200.244 4.208 200.5 3.952 201.012 3.952C201.236 3.952 201.428 4.032 201.588 4.192C201.748 4.32 201.828 4.496 201.828 4.72V32.848C201.828 33.072 201.748 33.264 201.588 33.424C201.428 33.584 201.236 33.664 201.012 33.664ZM182.772 16.144C182.516 16.144 182.308 16.064 182.148 15.904C182.02 15.744 181.956 15.552 181.956 15.328V1.36C181.956 0.847998 182.228 0.591997 182.772 0.591997C183.284 0.591997 183.54 0.847998 183.54 1.36V14.56H196.74C197.284 14.56 197.556 14.816 197.556 15.328V30.112C197.556 30.336 197.476 30.528 197.316 30.688C197.188 30.848 196.996 30.928 196.74 30.928C196.516 30.928 196.324 30.848 196.164 30.688C196.036 30.528 195.972 30.336 195.972 30.112V16.144H182.772ZM178.5 16.096C178.276 16.096 178.084 16.032 177.924 15.904C177.764 15.744 177.684 15.552 177.684 15.328V1.36C177.684 1.136 177.764 0.959997 177.924 0.831997C178.084 0.671997 178.276 0.591997 178.5 0.591997C179.012 0.591997 179.268 0.847998 179.268 1.36V15.328C179.268 15.84 179.012 16.096 178.5 16.096ZM178.5 33.664C178.276 33.664 178.084 33.584 177.924 33.424C177.764 33.264 177.684 33.072 177.684 32.848V19.696C177.684 19.472 177.764 19.28 177.924 19.12C178.084 18.96 178.276 18.88 178.5 18.88H192.948C193.172 18.88 193.348 18.96 193.476 19.12C193.636 19.28 193.716 19.472 193.716 19.696C193.716 20.208 193.46 20.464 192.948 20.464H179.268V32.848C179.268 33.072 179.188 33.264 179.028 33.424C178.9 33.584 178.724 33.664 178.5 33.664ZM197.076 31.936C197.3 32.032 197.46 32.192 197.556 32.416C197.652 32.608 197.668 32.816 197.604 33.04V33.088C197.444 33.472 197.172 33.664 196.788 33.664C196.436 33.568 196.196 33.408 196.068 33.184C195.94 32.96 195.908 32.736 195.972 32.512C196.068 32.096 196.34 31.888 196.788 31.888C196.852 31.888 196.9 31.904 196.932 31.936C196.964 31.936 197.012 31.936 197.076 31.936Z"/>
<path d="M210.232 34.096C210.008 34.096 209.816 34.016 209.656 33.856C209.496 33.696 209.416 33.504 209.416 33.28V19.36C209.416 19.136 209.496 18.944 209.656 18.784C209.816 18.624 210.008 18.544 210.232 18.544H223.336C223.56 18.544 223.752 18.624 223.912 18.784C224.072 18.944 224.152 19.136 224.152 19.36C224.152 19.584 224.072 19.776 223.912 19.936C223.752 20.064 223.56 20.128 223.336 20.128H211V32.512H227.656C228.168 32.512 228.424 32.768 228.424 33.28C228.424 33.504 228.344 33.696 228.184 33.856C228.056 34.016 227.88 34.096 227.656 34.096H210.232ZM210.232 15.952C210.008 15.952 209.816 15.872 209.656 15.712C209.496 15.552 209.416 15.36 209.416 15.136V1.12C209.416 0.895997 209.496 0.703998 209.656 0.543998C209.816 0.383998 210.008 0.303998 210.232 0.303998C210.456 0.303998 210.632 0.383998 210.76 0.543998C210.92 0.703998 211 0.895997 211 1.12V14.368H223.336C223.56 14.368 223.752 14.448 223.912 14.608C224.072 14.736 224.152 14.912 224.152 15.136C224.152 15.36 224.072 15.552 223.912 15.712C223.752 15.872 223.56 15.952 223.336 15.952H210.232ZM227.56 4.624C227.784 4.624 227.976 4.704 228.136 4.864C228.296 5.024 228.376 5.216 228.376 5.44C228.376 5.664 228.296 5.856 228.136 6.016C227.976 6.144 227.784 6.208 227.56 6.208H215.128V11.584C215.128 11.808 215.048 12 214.888 12.16C214.728 12.32 214.536 12.4 214.312 12.4C214.088 12.4 213.896 12.32 213.736 12.16C213.608 12 213.544 11.808 213.544 11.584V5.44C213.544 5.216 213.608 5.024 213.736 4.864C213.896 4.704 214.088 4.624 214.312 4.624H227.56ZM214.168 2.032C213.944 2.032 213.752 1.952 213.592 1.792C213.464 1.632 213.4 1.44 213.4 1.216C213.4 0.703997 213.656 0.447996 214.168 0.447996H227.656C227.88 0.447996 228.072 0.527997 228.232 0.687999C228.392 0.815997 228.472 0.991997 228.472 1.216C228.472 1.44 228.392 1.632 228.232 1.792C228.072 1.952 227.88 2.032 227.656 2.032H214.168ZM214.312 21.952C214.536 21.952 214.728 22.032 214.888 22.192C215.048 22.32 215.128 22.512 215.128 22.768V28.432H224.728C224.952 28.432 225.144 28.512 225.304 28.672C225.464 28.832 225.544 29.024 225.544 29.248C225.544 29.472 225.464 29.664 225.304 29.824C225.144 29.952 224.952 30.016 224.728 30.016H214.312C213.8 30.016 213.544 29.76 213.544 29.248V22.768C213.544 22.224 213.8 21.952 214.312 21.952ZM227.704 28.384C227.928 28.448 228.088 28.592 228.184 28.816C228.28 29.008 228.296 29.216 228.232 29.44V29.488C228.072 29.872 227.8 30.064 227.416 30.064C227.064 29.968 226.824 29.824 226.696 29.632C226.568 29.408 226.536 29.168 226.6 28.912C226.76 28.528 227.032 28.336 227.416 28.336C227.544 28.336 227.64 28.352 227.704 28.384Z"/>
<path d="M262.212 18.208C261.636 18.112 261.38 17.808 261.444 17.296L263.46 3.856C263.524 3.408 263.78 3.184 264.228 3.184C264.26 3.184 264.292 3.2 264.324 3.232C264.548 3.264 264.724 3.36 264.852 3.52C265.012 3.68 265.06 3.872 264.996 4.096L263.028 17.488C262.932 17.968 262.66 18.208 262.212 18.208ZM258.708 31.504C258.356 31.504 258.116 31.344 257.988 31.024L253.332 19.696C253.236 19.504 253.22 19.312 253.284 19.12C253.38 18.896 253.54 18.752 253.764 18.688C253.892 18.624 253.988 18.592 254.052 18.592C254.436 18.592 254.676 18.768 254.772 19.12L259.476 30.448C259.54 30.64 259.524 30.848 259.428 31.072C259.364 31.264 259.236 31.392 259.044 31.456L258.708 31.504ZM264.612 34.048C264.292 34.048 264.052 33.888 263.892 33.568L254.532 12.112L245.652 31.024C245.492 31.344 245.252 31.504 244.932 31.504C244.836 31.504 244.724 31.472 244.596 31.408C244.404 31.312 244.26 31.168 244.164 30.976C244.1 30.752 244.116 30.544 244.212 30.352L253.812 9.904C253.972 9.584 254.212 9.424 254.532 9.424C254.916 9.424 255.156 9.584 255.252 9.904L264.228 30.4L268.452 1.168C268.484 0.943997 268.58 0.783998 268.74 0.687999C268.9 0.559999 269.092 0.495998 269.316 0.495998C269.54 0.527998 269.716 0.623998 269.844 0.783998C270.004 0.943997 270.052 1.136 269.988 1.36L265.428 33.376C265.364 33.76 265.124 33.984 264.708 34.048H264.612ZM240.948 17.92C240.756 17.92 240.58 17.856 240.42 17.728C240.292 17.568 240.196 17.392 240.132 17.2L238.164 1.36C238.1 0.847998 238.324 0.559998 238.836 0.495998C239.06 0.495998 239.252 0.559999 239.412 0.687999C239.572 0.783998 239.668 0.943997 239.7 1.168L241.716 17.008C241.78 17.52 241.556 17.808 241.044 17.872L240.948 17.92ZM239.028 34.048C238.548 33.952 238.276 33.728 238.212 33.376L233.652 1.36C233.588 1.136 233.62 0.943997 233.748 0.783998C233.908 0.623998 234.1 0.527998 234.324 0.495998C234.548 0.495998 234.74 0.559999 234.9 0.687999C235.06 0.783998 235.156 0.943997 235.188 1.168L239.412 30.544L251.7 4.672C251.86 4.384 252.1 4.24 252.42 4.24C252.58 4.24 252.692 4.272 252.756 4.336C252.948 4.4 253.076 4.544 253.14 4.768C253.236 4.96 253.236 5.152 253.14 5.344L239.748 33.568C239.588 33.888 239.348 34.048 239.028 34.048ZM264.612 2.224C264.26 2.128 264.02 1.968 263.892 1.744C263.764 1.52 263.732 1.296 263.796 1.072V1.024C263.956 0.639997 264.228 0.447996 264.612 0.447996C264.676 0.447996 264.724 0.463997 264.756 0.495998C264.788 0.495998 264.836 0.495998 264.9 0.495998C265.156 0.559998 265.332 0.703998 265.428 0.927999C265.524 1.152 265.524 1.376 265.428 1.6V1.648C265.332 2.032 265.06 2.224 264.612 2.224Z"/>
<path d="M276.372 34.096C276.148 34.096 275.956 34.016 275.796 33.856C275.636 33.696 275.556 33.504 275.556 33.28V19.36C275.556 19.136 275.636 18.944 275.796 18.784C275.956 18.624 276.148 18.544 276.372 18.544H289.476C289.7 18.544 289.892 18.624 290.052 18.784C290.212 18.944 290.292 19.136 290.292 19.36C290.292 19.584 290.212 19.776 290.052 19.936C289.892 20.064 289.7 20.128 289.476 20.128H277.14V32.512H293.796C294.308 32.512 294.564 32.768 294.564 33.28C294.564 33.504 294.484 33.696 294.324 33.856C294.196 34.016 294.02 34.096 293.796 34.096H276.372ZM276.372 15.952C276.148 15.952 275.956 15.872 275.796 15.712C275.636 15.552 275.556 15.36 275.556 15.136V1.12C275.556 0.895997 275.636 0.703998 275.796 0.543998C275.956 0.383998 276.148 0.303998 276.372 0.303998C276.596 0.303998 276.772 0.383998 276.9 0.543998C277.06 0.703998 277.14 0.895997 277.14 1.12V14.368H289.476C289.7 14.368 289.892 14.448 290.052 14.608C290.212 14.736 290.292 14.912 290.292 15.136C290.292 15.36 290.212 15.552 290.052 15.712C289.892 15.872 289.7 15.952 289.476 15.952H276.372ZM293.7 4.624C293.924 4.624 294.116 4.704 294.276 4.864C294.436 5.024 294.516 5.216 294.516 5.44C294.516 5.664 294.436 5.856 294.276 6.016C294.116 6.144 293.924 6.208 293.7 6.208H281.268V11.584C281.268 11.808 281.188 12 281.028 12.16C280.868 12.32 280.676 12.4 280.452 12.4C280.228 12.4 280.036 12.32 279.876 12.16C279.748 12 279.684 11.808 279.684 11.584V5.44C279.684 5.216 279.748 5.024 279.876 4.864C280.036 4.704 280.228 4.624 280.452 4.624H293.7ZM280.308 2.032C280.084 2.032 279.892 1.952 279.732 1.792C279.604 1.632 279.54 1.44 279.54 1.216C279.54 0.703997 279.796 0.447996 280.308 0.447996H293.796C294.02 0.447996 294.212 0.527997 294.372 0.687999C294.532 0.815997 294.612 0.991997 294.612 1.216C294.612 1.44 294.532 1.632 294.372 1.792C294.212 1.952 294.02 2.032 293.796 2.032H280.308ZM280.452 21.952C280.676 21.952 280.868 22.032 281.028 22.192C281.188 22.32 281.268 22.512 281.268 22.768V28.432H290.868C291.092 28.432 291.284 28.512 291.444 28.672C291.604 28.832 291.684 29.024 291.684 29.248C291.684 29.472 291.604 29.664 291.444 29.824C291.284 29.952 291.092 30.016 290.868 30.016H280.452C279.94 30.016 279.684 29.76 279.684 29.248V22.768C279.684 22.224 279.94 21.952 280.452 21.952ZM293.844 28.384C294.068 28.448 294.228 28.592 294.324 28.816C294.42 29.008 294.436 29.216 294.372 29.44V29.488C294.212 29.872 293.94 30.064 293.556 30.064C293.204 29.968 292.964 29.824 292.836 29.632C292.708 29.408 292.676 29.168 292.74 28.912C292.9 28.528 293.172 28.336 293.556 28.336C293.684 28.336 293.78 28.352 293.844 28.384Z"/>
<path d="M303.153 33.952C302.929 33.952 302.737 33.888 302.577 33.76C302.417 33.6 302.337 33.392 302.337 33.136V1.216C302.337 0.991997 302.417 0.815997 302.577 0.687999C302.737 0.527997 302.929 0.447996 303.153 0.447996H311.217C312.689 0.447996 314.113 0.575996 315.489 0.831997C316.897 1.056 318.145 1.488 319.233 2.128C320.321 2.768 321.185 3.648 321.825 4.768C322.497 5.888 322.833 7.328 322.833 9.088C322.833 9.6 322.785 10.096 322.689 10.576C322.657 10.832 322.545 11.008 322.353 11.104C322.193 11.2 322.001 11.248 321.777 11.248C321.553 11.184 321.377 11.072 321.249 10.912C321.121 10.752 321.089 10.56 321.153 10.336C321.185 10.144 321.201 9.952 321.201 9.76C321.233 9.536 321.249 9.312 321.249 9.088C321.249 7.584 320.961 6.368 320.385 5.44C319.809 4.512 319.041 3.808 318.081 3.328C317.121 2.816 316.049 2.48 314.865 2.32C313.681 2.128 312.465 2.032 311.217 2.032H303.921V33.136C303.921 33.68 303.665 33.952 303.153 33.952ZM314.289 33.952H307.425C306.913 33.952 306.657 33.696 306.657 33.184C306.657 32.96 306.721 32.768 306.849 32.608C307.009 32.448 307.201 32.368 307.425 32.368H314.289C316.913 32.368 318.897 31.616 320.241 30.112C321.617 28.608 322.305 26.56 322.305 23.968C322.305 21.248 321.601 19.216 320.193 17.872C318.817 16.496 316.785 15.808 314.097 15.808H311.121C310.897 15.808 310.705 15.744 310.545 15.616C310.385 15.456 310.305 15.264 310.305 15.04C310.305 14.816 310.385 14.624 310.545 14.464C310.705 14.304 310.897 14.224 311.121 14.224H314.097C317.201 14.224 319.601 15.056 321.297 16.72C323.025 18.384 323.889 20.8 323.889 23.968C323.889 27.008 323.057 29.44 321.393 31.264C319.729 33.056 317.361 33.952 314.289 33.952ZM313.041 29.68H307.377C306.865 29.68 306.609 29.408 306.609 28.864V5.296C306.609 4.784 306.865 4.528 307.377 4.528H312.273C313.617 4.528 314.689 4.704 315.489 5.056C316.289 5.408 316.897 5.856 317.313 6.4C317.761 6.912 318.049 7.472 318.177 8.08C318.305 8.656 318.369 9.184 318.369 9.664C318.369 9.856 318.353 10.112 318.321 10.432C318.321 10.752 318.273 11.072 318.177 11.392C318.081 11.712 317.953 11.984 317.793 12.208C317.633 12.432 317.425 12.544 317.169 12.544C317.009 12.544 316.897 12.528 316.833 12.496C316.641 12.4 316.497 12.256 316.401 12.064C316.337 11.84 316.353 11.632 316.449 11.44C316.673 10.96 316.785 10.368 316.785 9.664C316.785 8.256 316.353 7.312 315.489 6.832C314.625 6.352 313.553 6.112 312.273 6.112H308.193V28.096H313.041C313.809 28.096 314.513 28.064 315.153 28C315.793 27.936 316.337 27.776 316.785 27.52C317.233 27.264 317.569 26.88 317.793 26.368C318.049 25.856 318.177 25.152 318.177 24.256C318.177 23.36 318.049 22.64 317.793 22.096C317.569 21.552 317.217 21.12 316.737 20.8C316.289 20.48 315.745 20.272 315.105 20.176C314.497 20.048 313.809 19.984 313.041 19.984H311.121C310.897 19.984 310.705 19.904 310.545 19.744C310.417 19.584 310.353 19.392 310.353 19.168C310.353 18.656 310.609 18.4 311.121 18.4H313.041C314.033 18.4 314.929 18.496 315.729 18.688C316.561 18.88 317.265 19.216 317.841 19.696C318.449 20.144 318.913 20.736 319.233 21.472C319.585 22.208 319.761 23.136 319.761 24.256C319.761 25.408 319.585 26.336 319.233 27.04C318.913 27.744 318.449 28.304 317.841 28.72C317.265 29.104 316.561 29.36 315.729 29.488C314.929 29.616 314.033 29.68 313.041 29.68ZM321.057 13.84C320.673 13.744 320.417 13.6 320.289 13.408C320.161 13.184 320.145 12.944 320.241 12.688C320.337 12.304 320.609 12.112 321.057 12.112C321.185 12.112 321.281 12.128 321.345 12.16C321.569 12.224 321.729 12.368 321.825 12.592C321.921 12.784 321.937 13.008 321.873 13.264C321.713 13.648 321.441 13.84 321.057 13.84Z"/>
</mask>
<path d="M1.184 33.952C0.959996 33.952 0.767996 33.888 0.607996 33.76C0.447996 33.6 0.367996 33.392 0.367996 33.136V1.216C0.367996 0.991997 0.447996 0.815997 0.607996 0.687999C0.767996 0.527997 0.959996 0.447996 1.184 0.447996H9.248C10.72 0.447996 12.144 0.575996 13.52 0.831997C14.928 1.056 16.176 1.488 17.264 2.128C18.352 2.768 19.216 3.648 19.856 4.768C20.528 5.888 20.864 7.328 20.864 9.088C20.864 9.6 20.816 10.096 20.72 10.576C20.688 10.832 20.576 11.008 20.384 11.104C20.224 11.2 20.032 11.248 19.808 11.248C19.584 11.184 19.408 11.072 19.28 10.912C19.152 10.752 19.12 10.56 19.184 10.336C19.216 10.144 19.232 9.952 19.232 9.76C19.264 9.536 19.28 9.312 19.28 9.088C19.28 7.584 18.992 6.368 18.416 5.44C17.84 4.512 17.072 3.808 16.112 3.328C15.152 2.816 14.08 2.48 12.896 2.32C11.712 2.128 10.496 2.032 9.248 2.032H1.952V33.136C1.952 33.68 1.696 33.952 1.184 33.952ZM12.32 33.952H5.456C4.944 33.952 4.688 33.696 4.688 33.184C4.688 32.96 4.752 32.768 4.88 32.608C5.04 32.448 5.232 32.368 5.456 32.368H12.32C14.944 32.368 16.928 31.616 18.272 30.112C19.648 28.608 20.336 26.56 20.336 23.968C20.336 21.248 19.632 19.216 18.224 17.872C16.848 16.496 14.816 15.808 12.128 15.808H9.152C8.928 15.808 8.736 15.744 8.576 15.616C8.416 15.456 8.336 15.264 8.336 15.04C8.336 14.816 8.416 14.624 8.576 14.464C8.736 14.304 8.928 14.224 9.152 14.224H12.128C15.232 14.224 17.632 15.056 19.328 16.72C21.056 18.384 21.92 20.8 21.92 23.968C21.92 27.008 21.088 29.44 19.424 31.264C17.76 33.056 15.392 33.952 12.32 33.952ZM11.072 29.68H5.408C4.896 29.68 4.64 29.408 4.64 28.864V5.296C4.64 4.784 4.896 4.528 5.408 4.528H10.304C11.648 4.528 12.72 4.704 13.52 5.056C14.32 5.408 14.928 5.856 15.344 6.4C15.792 6.912 16.08 7.472 16.208 8.08C16.336 8.656 16.4 9.184 16.4 9.664C16.4 9.856 16.384 10.112 16.352 10.432C16.352 10.752 16.304 11.072 16.208 11.392C16.112 11.712 15.984 11.984 15.824 12.208C15.664 12.432 15.456 12.544 15.2 12.544C15.04 12.544 14.928 12.528 14.864 12.496C14.672 12.4 14.528 12.256 14.432 12.064C14.368 11.84 14.384 11.632 14.48 11.44C14.704 10.96 14.816 10.368 14.816 9.664C14.816 8.256 14.384 7.312 13.52 6.832C12.656 6.352 11.584 6.112 10.304 6.112H6.224V28.096H11.072C11.84 28.096 12.544 28.064 13.184 28C13.824 27.936 14.368 27.776 14.816 27.52C15.264 27.264 15.6 26.88 15.824 26.368C16.08 25.856 16.208 25.152 16.208 24.256C16.208 23.36 16.08 22.64 15.824 22.096C15.6 21.552 15.248 21.12 14.768 20.8C14.32 20.48 13.776 20.272 13.136 20.176C12.528 20.048 11.84 19.984 11.072 19.984H9.152C8.928 19.984 8.736 19.904 8.576 19.744C8.448 19.584 8.384 19.392 8.384 19.168C8.384 18.656 8.64 18.4 9.152 18.4H11.072C12.064 18.4 12.96 18.496 13.76 18.688C14.592 18.88 15.296 19.216 15.872 19.696C16.48 20.144 16.944 20.736 17.264 21.472C17.616 22.208 17.792 23.136 17.792 24.256C17.792 25.408 17.616 26.336 17.264 27.04C16.944 27.744 16.48 28.304 15.872 28.72C15.296 29.104 14.592 29.36 13.76 29.488C12.96 29.616 12.064 29.68 11.072 29.68ZM19.088 13.84C18.704 13.744 18.448 13.6 18.32 13.408C18.192 13.184 18.176 12.944 18.272 12.688C18.368 12.304 18.64 12.112 19.088 12.112C19.216 12.112 19.312 12.128 19.376 12.16C19.6 12.224 19.76 12.368 19.856 12.592C19.952 12.784 19.968 13.008 19.904 13.264C19.744 13.648 19.472 13.84 19.088 13.84Z" stroke="black" stroke-width="2" mask="url(#path-1-inside-1)"/>
<path d="M31.2631 34.096C31.0391 34.096 30.8471 34.016 30.6871 33.856C30.5271 33.696 30.4471 33.504 30.4471 33.28V19.36C30.4471 19.136 30.5271 18.944 30.6871 18.784C30.8471 18.624 31.0391 18.544 31.2631 18.544H44.3671C44.5911 18.544 44.7831 18.624 44.9431 18.784C45.1031 18.944 45.1831 19.136 45.1831 19.36C45.1831 19.584 45.1031 19.776 44.9431 19.936C44.7831 20.064 44.5911 20.128 44.3671 20.128H32.0311V32.512H48.6871C49.1991 32.512 49.4551 32.768 49.4551 33.28C49.4551 33.504 49.3751 33.696 49.2151 33.856C49.0871 34.016 48.9111 34.096 48.6871 34.096H31.2631ZM31.2631 15.952C31.0391 15.952 30.8471 15.872 30.6871 15.712C30.5271 15.552 30.4471 15.36 30.4471 15.136V1.12C30.4471 0.895997 30.5271 0.703998 30.6871 0.543998C30.8471 0.383998 31.0391 0.303998 31.2631 0.303998C31.4871 0.303998 31.6631 0.383998 31.7911 0.543998C31.9511 0.703998 32.0311 0.895997 32.0311 1.12V14.368H44.3671C44.5911 14.368 44.7831 14.448 44.9431 14.608C45.1031 14.736 45.1831 14.912 45.1831 15.136C45.1831 15.36 45.1031 15.552 44.9431 15.712C44.7831 15.872 44.5911 15.952 44.3671 15.952H31.2631ZM48.5911 4.624C48.8151 4.624 49.0071 4.704 49.1671 4.864C49.3271 5.024 49.4071 5.216 49.4071 5.44C49.4071 5.664 49.3271 5.856 49.1671 6.016C49.0071 6.144 48.8151 6.208 48.5911 6.208H36.1591V11.584C36.1591 11.808 36.0791 12 35.9191 12.16C35.7591 12.32 35.5671 12.4 35.3431 12.4C35.1191 12.4 34.9271 12.32 34.7671 12.16C34.6391 12 34.5751 11.808 34.5751 11.584V5.44C34.5751 5.216 34.6391 5.024 34.7671 4.864C34.9271 4.704 35.1191 4.624 35.3431 4.624H48.5911ZM35.1991 2.032C34.9751 2.032 34.7831 1.952 34.6231 1.792C34.4951 1.632 34.4311 1.44 34.4311 1.216C34.4311 0.703997 34.6871 0.447996 35.1991 0.447996H48.6871C48.9111 0.447996 49.1031 0.527997 49.2631 0.687999C49.4231 0.815997 49.5031 0.991997 49.5031 1.216C49.5031 1.44 49.4231 1.632 49.2631 1.792C49.1031 1.952 48.9111 2.032 48.6871 2.032H35.1991ZM35.3431 21.952C35.5671 21.952 35.7591 22.032 35.9191 22.192C36.0791 22.32 36.1591 22.512 36.1591 22.768V28.432H45.7591C45.9831 28.432 46.1751 28.512 46.3351 28.672C46.4951 28.832 46.5751 29.024 46.5751 29.248C46.5751 29.472 46.4951 29.664 46.3351 29.824C46.1751 29.952 45.9831 30.016 45.7591 30.016H35.3431C34.8311 30.016 34.5751 29.76 34.5751 29.248V22.768C34.5751 22.224 34.8311 21.952 35.3431 21.952ZM48.7351 28.384C48.9591 28.448 49.1191 28.592 49.2151 28.816C49.3111 29.008 49.3271 29.216 49.2631 29.44V29.488C49.1031 29.872 48.8311 30.064 48.4471 30.064C48.0951 29.968 47.8551 29.824 47.7271 29.632C47.5991 29.408 47.5671 29.168 47.6311 28.912C47.7911 28.528 48.0631 28.336 48.4471 28.336C48.5751 28.336 48.6711 28.352 48.7351 28.384Z" stroke="black" stroke-width="2" mask="url(#path-1-inside-1)"/>
<path d="M57.4194 34.096C57.1954 34.096 57.0034 34.016 56.8434 33.856C56.6834 33.696 56.6034 33.504 56.6034 33.28V19.36C56.6034 19.136 56.6834 18.944 56.8434 18.784C57.0034 18.624 57.1954 18.544 57.4194 18.544H70.5234C70.7474 18.544 70.9394 18.624 71.0994 18.784C71.2594 18.944 71.3394 19.136 71.3394 19.36C71.3394 19.584 71.2594 19.776 71.0994 19.936C70.9394 20.064 70.7474 20.128 70.5234 20.128H58.1874V32.512H74.8434C75.3554 32.512 75.6114 32.768 75.6114 33.28C75.6114 33.504 75.5314 33.696 75.3714 33.856C75.2434 34.016 75.0674 34.096 74.8434 34.096H57.4194ZM57.4194 15.952C57.1954 15.952 57.0034 15.872 56.8434 15.712C56.6834 15.552 56.6034 15.36 56.6034 15.136V1.12C56.6034 0.895997 56.6834 0.703998 56.8434 0.543998C57.0034 0.383998 57.1954 0.303998 57.4194 0.303998C57.6434 0.303998 57.8194 0.383998 57.9474 0.543998C58.1074 0.703998 58.1874 0.895997 58.1874 1.12V14.368H70.5234C70.7474 14.368 70.9394 14.448 71.0994 14.608C71.2594 14.736 71.3394 14.912 71.3394 15.136C71.3394 15.36 71.2594 15.552 71.0994 15.712C70.9394 15.872 70.7474 15.952 70.5234 15.952H57.4194ZM74.7474 4.624C74.9714 4.624 75.1634 4.704 75.3234 4.864C75.4834 5.024 75.5634 5.216 75.5634 5.44C75.5634 5.664 75.4834 5.856 75.3234 6.016C75.1634 6.144 74.9714 6.208 74.7474 6.208H62.3154V11.584C62.3154 11.808 62.2354 12 62.0754 12.16C61.9154 12.32 61.7234 12.4 61.4994 12.4C61.2754 12.4 61.0834 12.32 60.9234 12.16C60.7954 12 60.7314 11.808 60.7314 11.584V5.44C60.7314 5.216 60.7954 5.024 60.9234 4.864C61.0834 4.704 61.2754 4.624 61.4994 4.624H74.7474ZM61.3554 2.032C61.1314 2.032 60.9394 1.952 60.7794 1.792C60.6514 1.632 60.5874 1.44 60.5874 1.216C60.5874 0.703997 60.8434 0.447996 61.3554 0.447996H74.8434C75.0674 0.447996 75.2594 0.527997 75.4194 0.687999C75.5794 0.815997 75.6594 0.991997 75.6594 1.216C75.6594 1.44 75.5794 1.632 75.4194 1.792C75.2594 1.952 75.0674 2.032 74.8434 2.032H61.3554ZM61.4994 21.952C61.7234 21.952 61.9154 22.032 62.0754 22.192C62.2354 22.32 62.3154 22.512 62.3154 22.768V28.432H71.9154C72.1394 28.432 72.3314 28.512 72.4914 28.672C72.6514 28.832 72.7314 29.024 72.7314 29.248C72.7314 29.472 72.6514 29.664 72.4914 29.824C72.3314 29.952 72.1394 30.016 71.9154 30.016H61.4994C60.9874 30.016 60.7314 29.76 60.7314 29.248V22.768C60.7314 22.224 60.9874 21.952 61.4994 21.952ZM74.8914 28.384C75.1154 28.448 75.2754 28.592 75.3714 28.816C75.4674 29.008 75.4834 29.216 75.4194 29.44V29.488C75.2594 29.872 74.9874 30.064 74.6034 30.064C74.2514 29.968 74.0114 29.824 73.8834 29.632C73.7554 29.408 73.7234 29.168 73.7874 28.912C73.9474 28.528 74.2194 28.336 74.6034 28.336C74.7314 28.336 74.8274 28.352 74.8914 28.384Z" stroke="black" stroke-width="2" mask="url(#path-1-inside-1)"/>
<path d="M80.3664 17.008C80.3664 15.472 80.5584 13.952 80.9424 12.448C81.3584 10.944 81.9344 9.536 82.6704 8.224C83.4384 6.88 84.3664 5.664 85.4544 4.576C86.5424 3.488 87.7744 2.592 89.1504 1.888C89.2144 1.824 89.3424 1.792 89.5344 1.792C89.8224 1.792 90.0464 1.92 90.2064 2.176C90.3344 2.4 90.3504 2.624 90.2544 2.848C90.1904 3.04 90.0624 3.184 89.8704 3.28C88.6224 3.952 87.5024 4.784 86.5104 5.776C85.5184 6.736 84.6864 7.824 84.0144 9.04C83.3424 10.224 82.8304 11.504 82.4784 12.88C82.1264 14.224 81.9504 15.6 81.9504 17.008C81.9504 18.96 82.2864 20.864 82.9584 22.72C83.6624 24.544 84.6224 26.16 85.8384 27.568C87.0864 28.976 88.5584 30.112 90.2544 30.976C91.9824 31.808 93.8704 32.224 95.9184 32.224C97.9664 32.224 99.8384 31.808 101.534 30.976C103.23 30.112 104.686 28.976 105.902 27.568C107.15 26.128 108.11 24.496 108.782 22.672C109.486 20.848 109.838 18.96 109.838 17.008C109.838 15.12 109.518 13.296 108.878 11.536C108.238 9.744 107.342 8.16 106.19 6.784C105.038 5.376 103.646 4.224 102.014 3.328C100.414 2.432 98.6384 1.92 96.6864 1.792V5.2C96.6864 5.712 96.4304 5.968 95.9184 5.968C94.4464 5.968 93.1024 6.272 91.8864 6.88C90.6704 7.488 89.6304 8.304 88.7664 9.328C87.9344 10.352 87.2784 11.52 86.7984 12.832C86.3504 14.144 86.1264 15.504 86.1264 16.912C86.1264 18.288 86.3504 19.632 86.7984 20.944C87.2784 22.256 87.9504 23.424 88.8144 24.448C89.6784 25.472 90.7024 26.288 91.8864 26.896C93.1024 27.504 94.4464 27.808 95.9184 27.808C97.3904 27.808 98.7344 27.504 99.9504 26.896C101.166 26.288 102.206 25.488 103.07 24.496C103.934 23.472 104.59 22.304 105.038 20.992C105.518 19.68 105.758 18.32 105.758 16.912C105.758 14.608 105.198 12.544 104.078 10.72C102.99 8.896 101.502 7.568 99.6144 6.736C99.4224 6.672 99.2784 6.544 99.1824 6.352C99.1184 6.128 99.1344 5.92 99.2304 5.728C99.3264 5.408 99.5664 5.248 99.9504 5.248C100.078 5.248 100.174 5.264 100.238 5.296C101.326 5.776 102.302 6.416 103.166 7.216C104.03 7.984 104.766 8.88 105.374 9.904C106.014 10.896 106.494 11.984 106.814 13.168C107.166 14.352 107.342 15.6 107.342 16.912C107.342 18.544 107.054 20.112 106.478 21.616C105.934 23.12 105.166 24.448 104.174 25.6C103.182 26.752 101.982 27.68 100.574 28.384C99.1664 29.056 97.6144 29.392 95.9184 29.392C94.2224 29.392 92.6704 29.04 91.2624 28.336C89.8864 27.632 88.6864 26.704 87.6624 25.552C86.6704 24.4 85.9024 23.072 85.3584 21.568C84.8144 20.064 84.5424 18.512 84.5424 16.912C84.5424 15.376 84.7824 13.888 85.2624 12.448C85.7744 10.976 86.4944 9.68 87.4224 8.56C88.3504 7.408 89.4544 6.464 90.7344 5.728C92.0464 4.96 93.5024 4.528 95.1024 4.432V0.975998C95.1024 0.463997 95.3744 0.207996 95.9184 0.207996C98.1904 0.207996 100.27 0.687997 102.158 1.648C104.046 2.576 105.678 3.824 107.054 5.392C108.43 6.928 109.502 8.704 110.27 10.72C111.038 12.736 111.422 14.832 111.422 17.008C111.422 19.184 111.038 21.296 110.27 23.344C109.502 25.36 108.43 27.152 107.054 28.72C105.678 30.256 104.03 31.488 102.11 32.416C100.222 33.344 98.1584 33.808 95.9184 33.808C93.6464 33.808 91.5504 33.344 89.6304 32.416C87.7424 31.488 86.1104 30.256 84.7344 28.72C83.3584 27.152 82.2864 25.36 81.5184 23.344C80.7504 21.296 80.3664 19.184 80.3664 17.008ZM91.2144 1.264C91.3104 0.879998 91.5824 0.687999 92.0304 0.687999C92.1584 0.687999 92.2544 0.703999 92.3184 0.735998C92.5424 0.799997 92.7024 0.943997 92.7984 1.168C92.8944 1.392 92.9104 1.616 92.8464 1.84C92.6864 2.256 92.4144 2.464 92.0304 2.464C91.6464 2.336 91.3904 2.176 91.2624 1.984C91.1344 1.76 91.1184 1.536 91.2144 1.312V1.264Z" stroke="black" stroke-width="2" mask="url(#path-1-inside-1)"/>
<path d="M122.167 30.928C122.167 31.44 121.895 31.696 121.351 31.696C120.839 31.696 120.583 31.44 120.583 30.928V17.344C120.583 16.8 120.839 16.528 121.351 16.528C121.895 16.528 122.167 16.8 122.167 17.344V30.928ZM117.127 34.096C116.615 34.096 116.359 33.84 116.359 33.328V1.264C116.359 0.847997 116.551 0.591997 116.935 0.495998C116.967 0.495998 116.999 0.495998 117.031 0.495998C117.063 0.463997 117.095 0.447996 117.127 0.447996C117.415 0.447996 117.639 0.575996 117.799 0.831997L137.575 32.896C137.863 33.344 137.783 33.712 137.335 34C137.143 34.064 136.999 34.096 136.903 34.096C136.615 34.096 136.391 33.968 136.231 33.712L117.943 4.048V33.328C117.943 33.552 117.863 33.744 117.703 33.904C117.543 34.032 117.351 34.096 117.127 34.096ZM123.367 4C123.079 3.552 123.159 3.184 123.607 2.896C123.703 2.832 123.847 2.8 124.039 2.8C124.359 2.8 124.583 2.912 124.711 3.136L136.135 21.328V1.264C136.135 1.04 136.199 0.847999 136.327 0.687999C136.487 0.527997 136.679 0.447996 136.903 0.447996C137.127 0.447996 137.319 0.527997 137.479 0.687999C137.639 0.847999 137.719 1.04 137.719 1.264V24.064C137.719 24.48 137.527 24.736 137.143 24.832C136.695 24.832 136.391 24.72 136.231 24.496L123.367 4ZM141.127 3.136C141.383 3.136 141.575 3.216 141.703 3.376C141.863 3.536 141.943 3.728 141.943 3.952V33.328C141.943 33.84 141.671 34.096 141.127 34.096C140.615 34.096 140.359 33.84 140.359 33.328V3.952C140.359 3.728 140.423 3.536 140.551 3.376C140.711 3.216 140.903 3.136 141.127 3.136ZM140.887 2.08C140.631 2.016 140.455 1.872 140.359 1.648C140.263 1.424 140.247 1.2 140.311 0.975998H140.359C140.455 0.559998 140.727 0.351997 141.175 0.351997C141.239 0.351997 141.271 0.367997 141.271 0.399997C141.303 0.399997 141.351 0.399997 141.415 0.399997C141.959 0.623998 142.151 0.991998 141.991 1.504L141.943 1.552C141.847 1.936 141.575 2.128 141.127 2.128L140.887 2.08Z" stroke="black" stroke-width="2" mask="url(#path-1-inside-1)"/>
<path d="M158.266 33.232C158.266 33.744 158.01 34 157.498 34C157.274 34 157.082 33.936 156.922 33.808C156.762 33.648 156.682 33.456 156.682 33.232V21.664C156.682 21.408 156.762 21.216 156.922 21.088C157.082 20.928 157.274 20.848 157.498 20.848C158.01 20.848 158.266 21.12 158.266 21.664V33.232ZM161.002 13.024V5.536C161.002 5.312 161.082 5.12 161.242 4.96C161.402 4.8 161.594 4.72 161.818 4.72H170.698C170.954 4.72 171.146 4.8 171.274 4.96C171.434 5.12 171.514 5.312 171.514 5.536C171.514 6.048 171.242 6.304 170.698 6.304H162.586V13.024C162.586 13.536 162.33 13.792 161.818 13.792C161.594 13.792 161.402 13.728 161.242 13.6C161.082 13.44 161.002 13.248 161.002 13.024ZM153.754 4.72C153.978 4.72 154.154 4.8 154.282 4.96C154.442 5.12 154.522 5.312 154.522 5.536C154.522 6.048 154.266 6.304 153.754 6.304H147.898C147.354 6.304 147.082 6.048 147.082 5.536C147.082 5.312 147.146 5.12 147.274 4.96C147.434 4.8 147.642 4.72 147.898 4.72H153.754ZM158.218 1.312V16.48H161.818C162.042 16.48 162.218 16.56 162.346 16.72C162.506 16.88 162.586 17.072 162.586 17.296V29.536C162.586 30.08 162.33 30.352 161.818 30.352C161.594 30.352 161.402 30.288 161.242 30.16C161.082 30 161.002 29.792 161.002 29.536V18.064H157.45C157.226 18.064 157.034 18 156.874 17.872C156.714 17.712 156.634 17.52 156.634 17.296V2.08H147.898C147.354 2.08 147.082 1.824 147.082 1.312C147.082 0.767998 147.354 0.495998 147.898 0.495998H157.45C157.962 0.495998 158.218 0.767998 158.218 1.312ZM161.818 0.495998H168.058C168.57 0.495998 168.826 0.767998 168.826 1.312C168.826 1.824 168.57 2.08 168.058 2.08H161.818C161.594 2.08 161.402 2.016 161.242 1.888C161.082 1.728 161.002 1.536 161.002 1.312C161.002 1.056 161.082 0.863998 161.242 0.735998C161.402 0.575998 161.594 0.495998 161.818 0.495998ZM170.986 0.447996C171.242 0.511997 171.418 0.655997 171.514 0.879996C171.61 1.104 171.626 1.328 171.562 1.552H171.514C171.418 1.968 171.146 2.176 170.698 2.176C170.346 2.048 170.106 1.888 169.978 1.696C169.85 1.472 169.818 1.248 169.882 1.024L169.93 0.975998C170.026 0.591997 170.298 0.399997 170.746 0.399997C170.874 0.399997 170.954 0.415997 170.986 0.447996Z" stroke="black" stroke-width="2" mask="url(#path-1-inside-1)"/>
<path d="M181.956 23.296C181.956 22.784 182.228 22.528 182.772 22.528C183.284 22.528 183.54 22.784 183.54 23.296V33.04C183.54 33.552 183.284 33.808 182.772 33.808C182.228 33.808 181.956 33.552 181.956 33.04V23.296ZM196.74 12.352C196.228 12.352 195.972 12.096 195.972 11.584V1.408C195.972 1.184 196.036 0.991997 196.164 0.831997C196.324 0.671997 196.516 0.591997 196.74 0.591997C196.996 0.591997 197.188 0.671997 197.316 0.831997C197.476 0.991997 197.556 1.184 197.556 1.408V11.584C197.556 12.096 197.284 12.352 196.74 12.352ZM201.012 33.664C200.788 33.664 200.596 33.584 200.436 33.424C200.308 33.264 200.244 33.072 200.244 32.848V4.72C200.244 4.208 200.5 3.952 201.012 3.952C201.236 3.952 201.428 4.032 201.588 4.192C201.748 4.32 201.828 4.496 201.828 4.72V32.848C201.828 33.072 201.748 33.264 201.588 33.424C201.428 33.584 201.236 33.664 201.012 33.664ZM182.772 16.144C182.516 16.144 182.308 16.064 182.148 15.904C182.02 15.744 181.956 15.552 181.956 15.328V1.36C181.956 0.847998 182.228 0.591997 182.772 0.591997C183.284 0.591997 183.54 0.847998 183.54 1.36V14.56H196.74C197.284 14.56 197.556 14.816 197.556 15.328V30.112C197.556 30.336 197.476 30.528 197.316 30.688C197.188 30.848 196.996 30.928 196.74 30.928C196.516 30.928 196.324 30.848 196.164 30.688C196.036 30.528 195.972 30.336 195.972 30.112V16.144H182.772ZM178.5 16.096C178.276 16.096 178.084 16.032 177.924 15.904C177.764 15.744 177.684 15.552 177.684 15.328V1.36C177.684 1.136 177.764 0.959997 177.924 0.831997C178.084 0.671997 178.276 0.591997 178.5 0.591997C179.012 0.591997 179.268 0.847998 179.268 1.36V15.328C179.268 15.84 179.012 16.096 178.5 16.096ZM178.5 33.664C178.276 33.664 178.084 33.584 177.924 33.424C177.764 33.264 177.684 33.072 177.684 32.848V19.696C177.684 19.472 177.764 19.28 177.924 19.12C178.084 18.96 178.276 18.88 178.5 18.88H192.948C193.172 18.88 193.348 18.96 193.476 19.12C193.636 19.28 193.716 19.472 193.716 19.696C193.716 20.208 193.46 20.464 192.948 20.464H179.268V32.848C179.268 33.072 179.188 33.264 179.028 33.424C178.9 33.584 178.724 33.664 178.5 33.664ZM197.076 31.936C197.3 32.032 197.46 32.192 197.556 32.416C197.652 32.608 197.668 32.816 197.604 33.04V33.088C197.444 33.472 197.172 33.664 196.788 33.664C196.436 33.568 196.196 33.408 196.068 33.184C195.94 32.96 195.908 32.736 195.972 32.512C196.068 32.096 196.34 31.888 196.788 31.888C196.852 31.888 196.9 31.904 196.932 31.936C196.964 31.936 197.012 31.936 197.076 31.936Z" stroke="black" stroke-width="2" mask="url(#path-1-inside-1)"/>
<path d="M210.232 34.096C210.008 34.096 209.816 34.016 209.656 33.856C209.496 33.696 209.416 33.504 209.416 33.28V19.36C209.416 19.136 209.496 18.944 209.656 18.784C209.816 18.624 210.008 18.544 210.232 18.544H223.336C223.56 18.544 223.752 18.624 223.912 18.784C224.072 18.944 224.152 19.136 224.152 19.36C224.152 19.584 224.072 19.776 223.912 19.936C223.752 20.064 223.56 20.128 223.336 20.128H211V32.512H227.656C228.168 32.512 228.424 32.768 228.424 33.28C228.424 33.504 228.344 33.696 228.184 33.856C228.056 34.016 227.88 34.096 227.656 34.096H210.232ZM210.232 15.952C210.008 15.952 209.816 15.872 209.656 15.712C209.496 15.552 209.416 15.36 209.416 15.136V1.12C209.416 0.895997 209.496 0.703998 209.656 0.543998C209.816 0.383998 210.008 0.303998 210.232 0.303998C210.456 0.303998 210.632 0.383998 210.76 0.543998C210.92 0.703998 211 0.895997 211 1.12V14.368H223.336C223.56 14.368 223.752 14.448 223.912 14.608C224.072 14.736 224.152 14.912 224.152 15.136C224.152 15.36 224.072 15.552 223.912 15.712C223.752 15.872 223.56 15.952 223.336 15.952H210.232ZM227.56 4.624C227.784 4.624 227.976 4.704 228.136 4.864C228.296 5.024 228.376 5.216 228.376 5.44C228.376 5.664 228.296 5.856 228.136 6.016C227.976 6.144 227.784 6.208 227.56 6.208H215.128V11.584C215.128 11.808 215.048 12 214.888 12.16C214.728 12.32 214.536 12.4 214.312 12.4C214.088 12.4 213.896 12.32 213.736 12.16C213.608 12 213.544 11.808 213.544 11.584V5.44C213.544 5.216 213.608 5.024 213.736 4.864C213.896 4.704 214.088 4.624 214.312 4.624H227.56ZM214.168 2.032C213.944 2.032 213.752 1.952 213.592 1.792C213.464 1.632 213.4 1.44 213.4 1.216C213.4 0.703997 213.656 0.447996 214.168 0.447996H227.656C227.88 0.447996 228.072 0.527997 228.232 0.687999C228.392 0.815997 228.472 0.991997 228.472 1.216C228.472 1.44 228.392 1.632 228.232 1.792C228.072 1.952 227.88 2.032 227.656 2.032H214.168ZM214.312 21.952C214.536 21.952 214.728 22.032 214.888 22.192C215.048 22.32 215.128 22.512 215.128 22.768V28.432H224.728C224.952 28.432 225.144 28.512 225.304 28.672C225.464 28.832 225.544 29.024 225.544 29.248C225.544 29.472 225.464 29.664 225.304 29.824C225.144 29.952 224.952 30.016 224.728 30.016H214.312C213.8 30.016 213.544 29.76 213.544 29.248V22.768C213.544 22.224 213.8 21.952 214.312 21.952ZM227.704 28.384C227.928 28.448 228.088 28.592 228.184 28.816C228.28 29.008 228.296 29.216 228.232 29.44V29.488C228.072 29.872 227.8 30.064 227.416 30.064C227.064 29.968 226.824 29.824 226.696 29.632C226.568 29.408 226.536 29.168 226.6 28.912C226.76 28.528 227.032 28.336 227.416 28.336C227.544 28.336 227.64 28.352 227.704 28.384Z" stroke="black" stroke-width="2" mask="url(#path-1-inside-1)"/>
<path d="M262.212 18.208C261.636 18.112 261.38 17.808 261.444 17.296L263.46 3.856C263.524 3.408 263.78 3.184 264.228 3.184C264.26 3.184 264.292 3.2 264.324 3.232C264.548 3.264 264.724 3.36 264.852 3.52C265.012 3.68 265.06 3.872 264.996 4.096L263.028 17.488C262.932 17.968 262.66 18.208 262.212 18.208ZM258.708 31.504C258.356 31.504 258.116 31.344 257.988 31.024L253.332 19.696C253.236 19.504 253.22 19.312 253.284 19.12C253.38 18.896 253.54 18.752 253.764 18.688C253.892 18.624 253.988 18.592 254.052 18.592C254.436 18.592 254.676 18.768 254.772 19.12L259.476 30.448C259.54 30.64 259.524 30.848 259.428 31.072C259.364 31.264 259.236 31.392 259.044 31.456L258.708 31.504ZM264.612 34.048C264.292 34.048 264.052 33.888 263.892 33.568L254.532 12.112L245.652 31.024C245.492 31.344 245.252 31.504 244.932 31.504C244.836 31.504 244.724 31.472 244.596 31.408C244.404 31.312 244.26 31.168 244.164 30.976C244.1 30.752 244.116 30.544 244.212 30.352L253.812 9.904C253.972 9.584 254.212 9.424 254.532 9.424C254.916 9.424 255.156 9.584 255.252 9.904L264.228 30.4L268.452 1.168C268.484 0.943997 268.58 0.783998 268.74 0.687999C268.9 0.559999 269.092 0.495998 269.316 0.495998C269.54 0.527998 269.716 0.623998 269.844 0.783998C270.004 0.943997 270.052 1.136 269.988 1.36L265.428 33.376C265.364 33.76 265.124 33.984 264.708 34.048H264.612ZM240.948 17.92C240.756 17.92 240.58 17.856 240.42 17.728C240.292 17.568 240.196 17.392 240.132 17.2L238.164 1.36C238.1 0.847998 238.324 0.559998 238.836 0.495998C239.06 0.495998 239.252 0.559999 239.412 0.687999C239.572 0.783998 239.668 0.943997 239.7 1.168L241.716 17.008C241.78 17.52 241.556 17.808 241.044 17.872L240.948 17.92ZM239.028 34.048C238.548 33.952 238.276 33.728 238.212 33.376L233.652 1.36C233.588 1.136 233.62 0.943997 233.748 0.783998C233.908 0.623998 234.1 0.527998 234.324 0.495998C234.548 0.495998 234.74 0.559999 234.9 0.687999C235.06 0.783998 235.156 0.943997 235.188 1.168L239.412 30.544L251.7 4.672C251.86 4.384 252.1 4.24 252.42 4.24C252.58 4.24 252.692 4.272 252.756 4.336C252.948 4.4 253.076 4.544 253.14 4.768C253.236 4.96 253.236 5.152 253.14 5.344L239.748 33.568C239.588 33.888 239.348 34.048 239.028 34.048ZM264.612 2.224C264.26 2.128 264.02 1.968 263.892 1.744C263.764 1.52 263.732 1.296 263.796 1.072V1.024C263.956 0.639997 264.228 0.447996 264.612 0.447996C264.676 0.447996 264.724 0.463997 264.756 0.495998C264.788 0.495998 264.836 0.495998 264.9 0.495998C265.156 0.559998 265.332 0.703998 265.428 0.927999C265.524 1.152 265.524 1.376 265.428 1.6V1.648C265.332 2.032 265.06 2.224 264.612 2.224Z" stroke="black" stroke-width="2" mask="url(#path-1-inside-1)"/>
<path d="M276.372 34.096C276.148 34.096 275.956 34.016 275.796 33.856C275.636 33.696 275.556 33.504 275.556 33.28V19.36C275.556 19.136 275.636 18.944 275.796 18.784C275.956 18.624 276.148 18.544 276.372 18.544H289.476C289.7 18.544 289.892 18.624 290.052 18.784C290.212 18.944 290.292 19.136 290.292 19.36C290.292 19.584 290.212 19.776 290.052 19.936C289.892 20.064 289.7 20.128 289.476 20.128H277.14V32.512H293.796C294.308 32.512 294.564 32.768 294.564 33.28C294.564 33.504 294.484 33.696 294.324 33.856C294.196 34.016 294.02 34.096 293.796 34.096H276.372ZM276.372 15.952C276.148 15.952 275.956 15.872 275.796 15.712C275.636 15.552 275.556 15.36 275.556 15.136V1.12C275.556 0.895997 275.636 0.703998 275.796 0.543998C275.956 0.383998 276.148 0.303998 276.372 0.303998C276.596 0.303998 276.772 0.383998 276.9 0.543998C277.06 0.703998 277.14 0.895997 277.14 1.12V14.368H289.476C289.7 14.368 289.892 14.448 290.052 14.608C290.212 14.736 290.292 14.912 290.292 15.136C290.292 15.36 290.212 15.552 290.052 15.712C289.892 15.872 289.7 15.952 289.476 15.952H276.372ZM293.7 4.624C293.924 4.624 294.116 4.704 294.276 4.864C294.436 5.024 294.516 5.216 294.516 5.44C294.516 5.664 294.436 5.856 294.276 6.016C294.116 6.144 293.924 6.208 293.7 6.208H281.268V11.584C281.268 11.808 281.188 12 281.028 12.16C280.868 12.32 280.676 12.4 280.452 12.4C280.228 12.4 280.036 12.32 279.876 12.16C279.748 12 279.684 11.808 279.684 11.584V5.44C279.684 5.216 279.748 5.024 279.876 4.864C280.036 4.704 280.228 4.624 280.452 4.624H293.7ZM280.308 2.032C280.084 2.032 279.892 1.952 279.732 1.792C279.604 1.632 279.54 1.44 279.54 1.216C279.54 0.703997 279.796 0.447996 280.308 0.447996H293.796C294.02 0.447996 294.212 0.527997 294.372 0.687999C294.532 0.815997 294.612 0.991997 294.612 1.216C294.612 1.44 294.532 1.632 294.372 1.792C294.212 1.952 294.02 2.032 293.796 2.032H280.308ZM280.452 21.952C280.676 21.952 280.868 22.032 281.028 22.192C281.188 22.32 281.268 22.512 281.268 22.768V28.432H290.868C291.092 28.432 291.284 28.512 291.444 28.672C291.604 28.832 291.684 29.024 291.684 29.248C291.684 29.472 291.604 29.664 291.444 29.824C291.284 29.952 291.092 30.016 290.868 30.016H280.452C279.94 30.016 279.684 29.76 279.684 29.248V22.768C279.684 22.224 279.94 21.952 280.452 21.952ZM293.844 28.384C294.068 28.448 294.228 28.592 294.324 28.816C294.42 29.008 294.436 29.216 294.372 29.44V29.488C294.212 29.872 293.94 30.064 293.556 30.064C293.204 29.968 292.964 29.824 292.836 29.632C292.708 29.408 292.676 29.168 292.74 28.912C292.9 28.528 293.172 28.336 293.556 28.336C293.684 28.336 293.78 28.352 293.844 28.384Z" stroke="black" stroke-width="2" mask="url(#path-1-inside-1)"/>
<path d="M303.153 33.952C302.929 33.952 302.737 33.888 302.577 33.76C302.417 33.6 302.337 33.392 302.337 33.136V1.216C302.337 0.991997 302.417 0.815997 302.577 0.687999C302.737 0.527997 302.929 0.447996 303.153 0.447996H311.217C312.689 0.447996 314.113 0.575996 315.489 0.831997C316.897 1.056 318.145 1.488 319.233 2.128C320.321 2.768 321.185 3.648 321.825 4.768C322.497 5.888 322.833 7.328 322.833 9.088C322.833 9.6 322.785 10.096 322.689 10.576C322.657 10.832 322.545 11.008 322.353 11.104C322.193 11.2 322.001 11.248 321.777 11.248C321.553 11.184 321.377 11.072 321.249 10.912C321.121 10.752 321.089 10.56 321.153 10.336C321.185 10.144 321.201 9.952 321.201 9.76C321.233 9.536 321.249 9.312 321.249 9.088C321.249 7.584 320.961 6.368 320.385 5.44C319.809 4.512 319.041 3.808 318.081 3.328C317.121 2.816 316.049 2.48 314.865 2.32C313.681 2.128 312.465 2.032 311.217 2.032H303.921V33.136C303.921 33.68 303.665 33.952 303.153 33.952ZM314.289 33.952H307.425C306.913 33.952 306.657 33.696 306.657 33.184C306.657 32.96 306.721 32.768 306.849 32.608C307.009 32.448 307.201 32.368 307.425 32.368H314.289C316.913 32.368 318.897 31.616 320.241 30.112C321.617 28.608 322.305 26.56 322.305 23.968C322.305 21.248 321.601 19.216 320.193 17.872C318.817 16.496 316.785 15.808 314.097 15.808H311.121C310.897 15.808 310.705 15.744 310.545 15.616C310.385 15.456 310.305 15.264 310.305 15.04C310.305 14.816 310.385 14.624 310.545 14.464C310.705 14.304 310.897 14.224 311.121 14.224H314.097C317.201 14.224 319.601 15.056 321.297 16.72C323.025 18.384 323.889 20.8 323.889 23.968C323.889 27.008 323.057 29.44 321.393 31.264C319.729 33.056 317.361 33.952 314.289 33.952ZM313.041 29.68H307.377C306.865 29.68 306.609 29.408 306.609 28.864V5.296C306.609 4.784 306.865 4.528 307.377 4.528H312.273C313.617 4.528 314.689 4.704 315.489 5.056C316.289 5.408 316.897 5.856 317.313 6.4C317.761 6.912 318.049 7.472 318.177 8.08C318.305 8.656 318.369 9.184 318.369 9.664C318.369 9.856 318.353 10.112 318.321 10.432C318.321 10.752 318.273 11.072 318.177 11.392C318.081 11.712 317.953 11.984 317.793 12.208C317.633 12.432 317.425 12.544 317.169 12.544C317.009 12.544 316.897 12.528 316.833 12.496C316.641 12.4 316.497 12.256 316.401 12.064C316.337 11.84 316.353 11.632 316.449 11.44C316.673 10.96 316.785 10.368 316.785 9.664C316.785 8.256 316.353 7.312 315.489 6.832C314.625 6.352 313.553 6.112 312.273 6.112H308.193V28.096H313.041C313.809 28.096 314.513 28.064 315.153 28C315.793 27.936 316.337 27.776 316.785 27.52C317.233 27.264 317.569 26.88 317.793 26.368C318.049 25.856 318.177 25.152 318.177 24.256C318.177 23.36 318.049 22.64 317.793 22.096C317.569 21.552 317.217 21.12 316.737 20.8C316.289 20.48 315.745 20.272 315.105 20.176C314.497 20.048 313.809 19.984 313.041 19.984H311.121C310.897 19.984 310.705 19.904 310.545 19.744C310.417 19.584 310.353 19.392 310.353 19.168C310.353 18.656 310.609 18.4 311.121 18.4H313.041C314.033 18.4 314.929 18.496 315.729 18.688C316.561 18.88 317.265 19.216 317.841 19.696C318.449 20.144 318.913 20.736 319.233 21.472C319.585 22.208 319.761 23.136 319.761 24.256C319.761 25.408 319.585 26.336 319.233 27.04C318.913 27.744 318.449 28.304 317.841 28.72C317.265 29.104 316.561 29.36 315.729 29.488C314.929 29.616 314.033 29.68 313.041 29.68ZM321.057 13.84C320.673 13.744 320.417 13.6 320.289 13.408C320.161 13.184 320.145 12.944 320.241 12.688C320.337 12.304 320.609 12.112 321.057 12.112C321.185 12.112 321.281 12.128 321.345 12.16C321.569 12.224 321.729 12.368 321.825 12.592C321.921 12.784 321.937 13.008 321.873 13.264C321.713 13.648 321.441 13.84 321.057 13.84Z" stroke="black" stroke-width="2" mask="url(#path-1-inside-1)"/>
</svg>
