<?xml version="1.0" encoding="UTF-8" standalone="no"?>
<!DOCTYPE svg PUBLIC "-//W3C//DTD SVG 1.1//EN" "http://www.w3.org/Graphics/SVG/1.1/DTD/svg11.dtd">
<svg width="100%" height="100%" viewBox="0 0 120 120" version="1.1" xmlns="http://www.w3.org/2000/svg" xmlns:xlink="http://www.w3.org/1999/xlink" xml:space="preserve" xmlns:serif="http://www.serif.com/" style="fill-rule:evenodd;clip-rule:evenodd;stroke-linejoin:round;stroke-miterlimit:2;">
    <g transform="matrix(0.946582,0,0,0.946582,-6.52702,11.2317)">
        <g transform="matrix(56,0,0,56,19.6526,39.9007)">
            <path d="M0.108,-0.001C0.103,-0.001 0.099,-0.003 0.096,-0.006C0.093,-0.009 0.091,-0.013 0.091,-0.018L0.091,-0.683C0.091,-0.688 0.093,-0.692 0.096,-0.695C0.099,-0.698 0.103,-0.699 0.108,-0.699L0.276,-0.699C0.307,-0.699 0.337,-0.697 0.366,-0.692C0.395,-0.687 0.42,-0.677 0.443,-0.664C0.466,-0.651 0.484,-0.632 0.498,-0.609C0.511,-0.586 0.518,-0.556 0.518,-0.519C0.518,-0.508 0.517,-0.498 0.515,-0.488C0.514,-0.483 0.512,-0.479 0.508,-0.477C0.505,-0.475 0.501,-0.474 0.496,-0.474C0.491,-0.475 0.488,-0.478 0.485,-0.481C0.482,-0.484 0.482,-0.488 0.483,-0.493C0.484,-0.497 0.484,-0.501 0.485,-0.505C0.485,-0.51 0.485,-0.514 0.485,-0.519C0.485,-0.55 0.479,-0.576 0.467,-0.595C0.455,-0.614 0.439,-0.629 0.419,-0.64C0.399,-0.65 0.377,-0.657 0.352,-0.661C0.327,-0.664 0.302,-0.666 0.276,-0.666L0.124,-0.666L0.124,-0.018C0.124,-0.007 0.119,-0.001 0.108,-0.001ZM0.34,-0.001L0.197,-0.001C0.186,-0.001 0.181,-0.006 0.181,-0.017C0.181,-0.022 0.183,-0.026 0.186,-0.029C0.189,-0.032 0.192,-0.034 0.197,-0.034L0.34,-0.034C0.395,-0.034 0.436,-0.05 0.465,-0.081C0.493,-0.112 0.507,-0.155 0.507,-0.209C0.507,-0.266 0.493,-0.308 0.464,-0.337C0.435,-0.365 0.392,-0.379 0.336,-0.379L0.274,-0.379C0.269,-0.379 0.265,-0.381 0.262,-0.384C0.259,-0.387 0.257,-0.39 0.257,-0.395C0.257,-0.4 0.259,-0.404 0.262,-0.407C0.265,-0.41 0.269,-0.412 0.274,-0.412L0.336,-0.412C0.401,-0.412 0.451,-0.395 0.487,-0.36C0.522,-0.325 0.54,-0.275 0.54,-0.209C0.54,-0.146 0.523,-0.095 0.488,-0.058C0.453,-0.02 0.404,-0.001 0.34,-0.001ZM0.314,-0.09L0.196,-0.09C0.185,-0.09 0.18,-0.096 0.18,-0.107L0.18,-0.598C0.18,-0.609 0.185,-0.614 0.196,-0.614L0.298,-0.614C0.326,-0.614 0.348,-0.61 0.365,-0.603C0.382,-0.596 0.395,-0.587 0.404,-0.576C0.412,-0.565 0.418,-0.553 0.421,-0.541C0.424,-0.528 0.425,-0.517 0.425,-0.507C0.425,-0.503 0.425,-0.498 0.425,-0.491C0.424,-0.484 0.423,-0.478 0.421,-0.471C0.419,-0.464 0.416,-0.459 0.413,-0.454C0.41,-0.449 0.405,-0.447 0.4,-0.447C0.397,-0.447 0.394,-0.447 0.393,-0.448C0.389,-0.45 0.386,-0.453 0.385,-0.458C0.383,-0.462 0.383,-0.466 0.385,-0.47C0.39,-0.48 0.392,-0.492 0.392,-0.507C0.392,-0.536 0.383,-0.556 0.365,-0.566C0.347,-0.576 0.325,-0.581 0.298,-0.581L0.213,-0.581L0.213,-0.123L0.314,-0.123C0.33,-0.123 0.345,-0.124 0.358,-0.125C0.371,-0.126 0.383,-0.13 0.392,-0.135C0.401,-0.14 0.408,-0.148 0.413,-0.159C0.419,-0.17 0.421,-0.184 0.421,-0.203C0.421,-0.222 0.419,-0.237 0.413,-0.248C0.408,-0.259 0.401,-0.268 0.392,-0.275C0.382,-0.282 0.371,-0.286 0.358,-0.289C0.344,-0.291 0.33,-0.292 0.314,-0.292L0.274,-0.292C0.269,-0.292 0.266,-0.294 0.263,-0.297C0.26,-0.3 0.258,-0.304 0.258,-0.309C0.258,-0.32 0.263,-0.325 0.274,-0.325L0.314,-0.325C0.335,-0.325 0.354,-0.323 0.371,-0.319C0.388,-0.315 0.402,-0.308 0.414,-0.299C0.427,-0.289 0.437,-0.276 0.444,-0.261C0.451,-0.246 0.454,-0.226 0.454,-0.203C0.454,-0.179 0.451,-0.16 0.444,-0.145C0.437,-0.13 0.427,-0.119 0.414,-0.111C0.402,-0.102 0.388,-0.097 0.371,-0.094C0.354,-0.091 0.335,-0.09 0.314,-0.09ZM0.481,-0.42C0.473,-0.422 0.468,-0.425 0.465,-0.43C0.462,-0.434 0.462,-0.439 0.464,-0.444C0.466,-0.452 0.472,-0.456 0.481,-0.456C0.484,-0.456 0.486,-0.456 0.487,-0.455C0.492,-0.454 0.495,-0.451 0.497,-0.447C0.499,-0.442 0.499,-0.437 0.498,-0.432C0.495,-0.424 0.489,-0.42 0.481,-0.42Z" style="fill:white;fill-rule:nonzero;"/>
        </g>
    </g>
    <g transform="matrix(0.943878,0,0,0.943878,-3.45499,7.76429)">
        <g transform="matrix(56,0,0,56,72.9529,43.7717)">
            <path d="M0.034,-0.354C0.034,-0.386 0.038,-0.418 0.047,-0.449C0.055,-0.48 0.067,-0.51 0.083,-0.538C0.098,-0.565 0.117,-0.59 0.14,-0.613C0.163,-0.636 0.188,-0.654 0.217,-0.669C0.218,-0.67 0.221,-0.671 0.225,-0.671C0.231,-0.671 0.236,-0.668 0.239,-0.663C0.242,-0.658 0.242,-0.654 0.241,-0.65C0.239,-0.645 0.236,-0.642 0.232,-0.64C0.206,-0.626 0.183,-0.609 0.162,-0.589C0.141,-0.568 0.124,-0.546 0.11,-0.521C0.096,-0.496 0.085,-0.469 0.078,-0.441C0.071,-0.412 0.067,-0.383 0.067,-0.354C0.067,-0.313 0.074,-0.274 0.089,-0.235C0.103,-0.197 0.123,-0.163 0.149,-0.134C0.174,-0.105 0.205,-0.081 0.241,-0.064C0.276,-0.046 0.315,-0.037 0.358,-0.037C0.401,-0.037 0.44,-0.046 0.475,-0.064C0.51,-0.081 0.541,-0.105 0.567,-0.135C0.592,-0.164 0.612,-0.198 0.626,-0.236C0.641,-0.274 0.648,-0.313 0.648,-0.354C0.648,-0.393 0.641,-0.432 0.628,-0.469C0.615,-0.505 0.596,-0.539 0.572,-0.568C0.548,-0.597 0.519,-0.62 0.486,-0.639C0.452,-0.658 0.415,-0.668 0.374,-0.671L0.374,-0.6C0.374,-0.589 0.369,-0.584 0.358,-0.584C0.327,-0.584 0.299,-0.578 0.274,-0.565C0.249,-0.552 0.227,-0.535 0.21,-0.514C0.192,-0.493 0.178,-0.468 0.169,-0.441C0.159,-0.414 0.154,-0.385 0.154,-0.356C0.154,-0.327 0.159,-0.299 0.169,-0.272C0.178,-0.245 0.192,-0.22 0.21,-0.199C0.228,-0.178 0.25,-0.161 0.275,-0.148C0.3,-0.135 0.327,-0.129 0.358,-0.129C0.389,-0.129 0.417,-0.135 0.442,-0.148C0.467,-0.161 0.489,-0.178 0.507,-0.199C0.525,-0.22 0.539,-0.244 0.549,-0.271C0.558,-0.298 0.563,-0.327 0.563,-0.356C0.563,-0.404 0.552,-0.447 0.529,-0.485C0.505,-0.523 0.474,-0.551 0.435,-0.568C0.431,-0.569 0.428,-0.572 0.427,-0.577C0.425,-0.581 0.425,-0.585 0.427,-0.589C0.429,-0.596 0.434,-0.599 0.442,-0.599C0.445,-0.599 0.447,-0.599 0.448,-0.598C0.471,-0.588 0.491,-0.575 0.509,-0.559C0.527,-0.542 0.543,-0.524 0.556,-0.502C0.569,-0.482 0.579,-0.459 0.586,-0.434C0.593,-0.409 0.596,-0.383 0.596,-0.356C0.596,-0.322 0.59,-0.289 0.579,-0.258C0.567,-0.227 0.551,-0.199 0.53,-0.175C0.509,-0.151 0.484,-0.132 0.455,-0.117C0.426,-0.103 0.393,-0.096 0.358,-0.096C0.323,-0.096 0.291,-0.103 0.262,-0.118C0.233,-0.133 0.207,-0.152 0.187,-0.176C0.166,-0.2 0.149,-0.228 0.138,-0.259C0.127,-0.29 0.121,-0.323 0.121,-0.356C0.121,-0.388 0.126,-0.419 0.137,-0.45C0.147,-0.48 0.162,-0.507 0.181,-0.531C0.2,-0.554 0.224,-0.574 0.251,-0.59C0.278,-0.605 0.308,-0.614 0.341,-0.616L0.341,-0.688C0.341,-0.699 0.347,-0.704 0.358,-0.704C0.405,-0.704 0.449,-0.694 0.488,-0.675C0.527,-0.655 0.561,-0.629 0.59,-0.597C0.619,-0.564 0.641,-0.527 0.657,-0.485C0.673,-0.443 0.681,-0.399 0.681,-0.354C0.681,-0.309 0.673,-0.265 0.657,-0.223C0.641,-0.18 0.619,-0.143 0.59,-0.111C0.561,-0.078 0.527,-0.052 0.488,-0.033C0.448,-0.014 0.405,-0.004 0.358,-0.004C0.311,-0.004 0.267,-0.014 0.228,-0.033C0.188,-0.052 0.154,-0.078 0.125,-0.111C0.096,-0.143 0.074,-0.18 0.058,-0.223C0.042,-0.265 0.034,-0.309 0.034,-0.354ZM0.26,-0.682C0.262,-0.69 0.268,-0.694 0.277,-0.694C0.28,-0.694 0.282,-0.694 0.283,-0.693C0.288,-0.692 0.291,-0.689 0.293,-0.684C0.295,-0.679 0.295,-0.675 0.294,-0.67C0.291,-0.661 0.285,-0.657 0.277,-0.657C0.269,-0.66 0.264,-0.663 0.261,-0.668C0.258,-0.672 0.258,-0.676 0.26,-0.681L0.26,-0.682Z" style="fill:white;fill-rule:nonzero;"/>
        </g>
    </g>
    <g transform="matrix(0.943878,0,0,0.943878,-13.2469,28.9829)">
        <g transform="matrix(56,0,0,56,27.6923,83.8213)">
            <path d="M0.278,-0.016C0.278,-0.005 0.273,0 0.262,0C0.257,0 0.253,-0.002 0.25,-0.005C0.247,-0.008 0.245,-0.011 0.245,-0.016L0.245,-0.257C0.245,-0.262 0.247,-0.267 0.25,-0.27C0.253,-0.273 0.257,-0.274 0.262,-0.274C0.273,-0.274 0.278,-0.268 0.278,-0.257L0.278,-0.016ZM0.335,-0.437L0.335,-0.593C0.335,-0.598 0.337,-0.602 0.34,-0.605C0.343,-0.608 0.347,-0.61 0.352,-0.61L0.537,-0.61C0.542,-0.61 0.547,-0.608 0.55,-0.605C0.553,-0.602 0.554,-0.598 0.554,-0.593C0.554,-0.582 0.548,-0.577 0.537,-0.577L0.368,-0.577L0.368,-0.437C0.368,-0.426 0.363,-0.421 0.352,-0.421C0.347,-0.421 0.343,-0.423 0.34,-0.426C0.337,-0.429 0.335,-0.432 0.335,-0.437ZM0.184,-0.61C0.189,-0.61 0.193,-0.608 0.196,-0.605C0.199,-0.602 0.2,-0.598 0.2,-0.593C0.2,-0.582 0.195,-0.577 0.184,-0.577L0.062,-0.577C0.051,-0.577 0.045,-0.582 0.045,-0.593C0.045,-0.598 0.047,-0.602 0.05,-0.605C0.053,-0.608 0.057,-0.61 0.062,-0.61L0.184,-0.61ZM0.277,-0.681L0.277,-0.365L0.352,-0.365C0.357,-0.365 0.361,-0.363 0.364,-0.36C0.367,-0.357 0.368,-0.353 0.368,-0.348L0.368,-0.093C0.368,-0.082 0.363,-0.076 0.352,-0.076C0.347,-0.076 0.343,-0.078 0.34,-0.081C0.337,-0.084 0.335,-0.088 0.335,-0.093L0.335,-0.332L0.261,-0.332C0.256,-0.332 0.252,-0.334 0.249,-0.337C0.246,-0.34 0.244,-0.343 0.244,-0.348L0.244,-0.665L0.062,-0.665C0.051,-0.665 0.045,-0.67 0.045,-0.681C0.045,-0.692 0.051,-0.698 0.062,-0.698L0.261,-0.698C0.272,-0.698 0.277,-0.692 0.277,-0.681ZM0.352,-0.698L0.482,-0.698C0.493,-0.698 0.498,-0.692 0.498,-0.681C0.498,-0.67 0.493,-0.665 0.482,-0.665L0.352,-0.665C0.347,-0.665 0.343,-0.667 0.34,-0.67C0.337,-0.673 0.335,-0.676 0.335,-0.681C0.335,-0.686 0.337,-0.691 0.34,-0.694C0.343,-0.697 0.347,-0.698 0.352,-0.698ZM0.543,-0.699C0.548,-0.698 0.552,-0.695 0.554,-0.69C0.556,-0.685 0.556,-0.681 0.555,-0.676L0.554,-0.676C0.552,-0.667 0.546,-0.663 0.537,-0.663C0.53,-0.666 0.525,-0.669 0.522,-0.674C0.519,-0.678 0.519,-0.682 0.52,-0.687L0.521,-0.688C0.523,-0.696 0.529,-0.7 0.538,-0.7C0.541,-0.7 0.542,-0.7 0.543,-0.699Z" style="fill:white;fill-rule:nonzero;"/>
        </g>
    </g>
    <g transform="matrix(0.943878,0,0,0.943878,-19.3592,31.1785)">
        <g transform="matrix(56,0,0,56,86.5012,81.4392)">
            <path d="M0.633,-0.329C0.621,-0.331 0.616,-0.337 0.617,-0.348L0.659,-0.628C0.66,-0.637 0.666,-0.642 0.675,-0.642C0.676,-0.642 0.676,-0.642 0.677,-0.641C0.682,-0.64 0.686,-0.638 0.689,-0.635C0.692,-0.632 0.692,-0.628 0.691,-0.623L0.65,-0.344C0.648,-0.334 0.642,-0.329 0.633,-0.329ZM0.56,-0.052C0.553,-0.052 0.548,-0.055 0.545,-0.062L0.448,-0.298C0.446,-0.302 0.446,-0.306 0.448,-0.311C0.449,-0.315 0.452,-0.318 0.457,-0.319C0.46,-0.32 0.462,-0.321 0.463,-0.321C0.471,-0.321 0.476,-0.317 0.478,-0.31L0.576,-0.074C0.577,-0.07 0.577,-0.066 0.576,-0.062C0.574,-0.057 0.571,-0.054 0.567,-0.053L0.56,-0.052ZM0.683,0.001C0.676,0.001 0.671,-0.002 0.668,-0.009L0.473,-0.456L0.288,-0.062C0.285,-0.055 0.28,-0.052 0.273,-0.052C0.271,-0.052 0.269,-0.053 0.266,-0.054C0.262,-0.056 0.259,-0.059 0.258,-0.064C0.256,-0.068 0.256,-0.072 0.258,-0.076L0.458,-0.502C0.461,-0.509 0.466,-0.512 0.473,-0.512C0.481,-0.512 0.486,-0.509 0.488,-0.502L0.675,-0.075L0.763,-0.684C0.764,-0.689 0.766,-0.692 0.769,-0.695C0.772,-0.697 0.776,-0.698 0.781,-0.698C0.786,-0.697 0.79,-0.695 0.793,-0.692C0.796,-0.689 0.796,-0.685 0.795,-0.68L0.7,-0.013C0.699,-0.005 0.694,0 0.685,0.001L0.683,0.001ZM0.19,-0.335C0.186,-0.335 0.183,-0.337 0.18,-0.34C0.177,-0.343 0.174,-0.346 0.173,-0.35L0.132,-0.68C0.131,-0.691 0.135,-0.697 0.146,-0.698C0.151,-0.698 0.155,-0.697 0.158,-0.695C0.161,-0.692 0.163,-0.689 0.164,-0.684L0.206,-0.354C0.207,-0.343 0.203,-0.337 0.192,-0.336L0.19,-0.335ZM0.15,0.001C0.14,-0.001 0.134,-0.006 0.133,-0.013L0.038,-0.68C0.037,-0.685 0.038,-0.689 0.041,-0.692C0.043,-0.695 0.047,-0.697 0.052,-0.698C0.057,-0.698 0.061,-0.697 0.064,-0.695C0.067,-0.692 0.069,-0.689 0.07,-0.684L0.158,-0.072L0.414,-0.611C0.417,-0.617 0.422,-0.62 0.429,-0.62C0.432,-0.62 0.435,-0.619 0.436,-0.618C0.44,-0.617 0.443,-0.614 0.445,-0.61C0.446,-0.605 0.446,-0.601 0.444,-0.597L0.165,-0.009C0.162,-0.002 0.157,0.001 0.15,0.001ZM0.683,-0.662C0.676,-0.664 0.671,-0.667 0.668,-0.672C0.665,-0.677 0.665,-0.681 0.666,-0.686L0.666,-0.687C0.669,-0.695 0.675,-0.699 0.683,-0.699C0.684,-0.699 0.685,-0.699 0.686,-0.699C0.687,-0.698 0.688,-0.698 0.689,-0.698C0.694,-0.697 0.698,-0.694 0.7,-0.689C0.702,-0.684 0.702,-0.68 0.7,-0.675L0.7,-0.674C0.698,-0.666 0.692,-0.662 0.683,-0.662Z" style="fill:white;fill-rule:nonzero;"/>
        </g>
    </g>
</svg>
