<svg width="541" height="51" viewBox="0 0 541 51" fill="none" xmlns="http://www.w3.org/2000/svg">
<mask id="path-1-outside-1" maskUnits="userSpaceOnUse" x="0.903992" y="0.304001" width="540" height="51" fill="white">
<rect fill="white" x="0.903992" y="0.304001" width="540" height="51"/>
<path d="M41.56 36.352C41.56 38.4 41.1333 40.1707 40.28 41.664C39.4267 43.1147 38.2533 44.3093 36.76 45.248C35.2667 46.1867 33.5173 46.8907 31.512 47.36C29.5493 47.7867 27.4587 48 25.24 48H2.90399V2.56H29.272C30.8507 2.56 32.28 2.90134 33.56 3.584C34.84 4.26667 35.928 5.16267 36.824 6.272C37.72 7.33867 38.4027 8.576 38.872 9.984C39.384 11.3493 39.64 12.7573 39.64 14.208C39.64 16.3413 39.0853 18.3893 37.976 20.352C36.9093 22.272 35.288 23.7227 33.112 24.704C35.7147 25.472 37.7627 26.816 39.256 28.736C40.792 30.6133 41.56 33.152 41.56 36.352ZM28.888 33.792C28.888 32.6827 28.5893 31.7653 27.992 31.04C27.3947 30.272 26.6267 29.888 25.688 29.888H15.384V37.504H25.24C26.264 37.504 27.1173 37.184 27.8 36.544C28.5253 35.904 28.888 34.9867 28.888 33.792ZM15.384 13.184V20.16H23.896C24.7493 20.16 25.5173 19.9253 26.2 19.456C26.9253 18.9867 27.288 18.048 27.288 16.64C27.288 15.4027 26.9893 14.528 26.392 14.016C25.7947 13.4613 25.0907 13.184 24.28 13.184H15.384Z"/>
<path d="M84.2755 37.12V48H51.8915V2.56H83.6995V13.44H64.3715V19.84H80.8835V29.952H64.3715V37.12H84.2755Z"/>
<path d="M127.263 37.12V48H94.879V2.56H126.687V13.44H107.359V19.84H123.871V29.952H107.359V37.12H127.263Z"/>
<path d="M157.659 48.384C154.203 48.384 151.067 47.7227 148.251 46.4C145.435 45.0773 143.024 43.3493 141.019 41.216C139.014 39.04 137.456 36.5653 136.347 33.792C135.238 31.0187 134.683 28.16 134.683 25.216C134.683 22.2293 135.259 19.3493 136.411 16.576C137.563 13.8027 139.163 11.3707 141.211 9.28C143.302 7.14667 145.755 5.46134 148.571 4.224C151.43 2.944 154.544 2.304 157.915 2.304C161.371 2.304 164.507 2.96533 167.323 4.288C170.139 5.61067 172.55 7.36 174.555 9.536C176.56 11.712 178.096 14.1867 179.163 16.96C180.272 19.7333 180.827 22.5707 180.827 25.472C180.827 28.4587 180.251 31.3387 179.099 34.112C177.947 36.8427 176.347 39.2747 174.299 41.408C172.251 43.4987 169.798 45.184 166.939 46.464C164.123 47.744 161.03 48.384 157.659 48.384ZM147.355 25.344C147.355 26.88 147.568 28.3733 147.995 29.824C148.422 31.232 149.062 32.4907 149.915 33.6C150.768 34.7093 151.835 35.6053 153.115 36.288C154.438 36.9707 155.995 37.312 157.787 37.312C159.579 37.312 161.136 36.9707 162.459 36.288C163.782 35.5627 164.848 34.6453 165.659 33.536C166.512 32.384 167.131 31.0827 167.515 29.632C167.942 28.1813 168.155 26.7093 168.155 25.216C168.155 23.68 167.942 22.208 167.515 20.8C167.088 19.3493 166.427 18.0907 165.531 17.024C164.678 15.9147 163.59 15.04 162.267 14.4C160.987 13.7173 159.472 13.376 157.723 13.376C155.931 13.376 154.374 13.7173 153.051 14.4C151.771 15.0827 150.704 16 149.851 17.152C148.998 18.2613 148.358 19.5413 147.931 20.992C147.547 22.4 147.355 23.8507 147.355 25.344Z"/>
<path d="M203.396 25.664V48H190.916V2.56H200.644L218.884 25.664V2.56H231.364V48H221.444L203.396 25.664Z"/>
<path d="M279.358 13.44H266.302V48H253.822V13.44H240.702V2.56H279.358V13.44Z"/>
<path d="M328.896 2.56V48H316.416V30.208H301.184V48H288.704V2.56H301.184V19.328H316.416V2.56H328.896Z"/>
<path d="M373.888 37.12V48H341.504V2.56H373.312V13.44H353.984V19.84H370.496V29.952H353.984V37.12H373.888Z"/>
<path d="M398.956 2.56H410.411L414.379 16.576L418.411 2.56H429.867L422.379 24.256L425.643 33.728L435.435 2.56H449.003L431.211 48H420.844L414.379 31.744L407.979 48H397.611L379.819 2.56H393.323L403.18 33.728L406.315 24.256L398.956 2.56Z"/>
<path d="M489.301 37.12V48H456.917V2.56H488.725V13.44H469.397V19.84H485.909V29.952H469.397V37.12H489.301Z"/>
<path d="M538.56 36.352C538.56 38.4 538.133 40.1707 537.28 41.664C536.427 43.1147 535.253 44.3093 533.76 45.248C532.267 46.1867 530.517 46.8907 528.512 47.36C526.549 47.7867 524.459 48 522.24 48H499.904V2.56H526.272C527.851 2.56 529.28 2.90134 530.56 3.584C531.84 4.26667 532.928 5.16267 533.824 6.272C534.72 7.33867 535.403 8.576 535.872 9.984C536.384 11.3493 536.64 12.7573 536.64 14.208C536.64 16.3413 536.085 18.3893 534.976 20.352C533.909 22.272 532.288 23.7227 530.112 24.704C532.715 25.472 534.763 26.816 536.256 28.736C537.792 30.6133 538.56 33.152 538.56 36.352ZM525.888 33.792C525.888 32.6827 525.589 31.7653 524.992 31.04C524.395 30.272 523.627 29.888 522.688 29.888H512.384V37.504H522.24C523.264 37.504 524.117 37.184 524.8 36.544C525.525 35.904 525.888 34.9867 525.888 33.792ZM512.384 13.184V20.16H520.896C521.749 20.16 522.517 19.9253 523.2 19.456C523.925 18.9867 524.288 18.048 524.288 16.64C524.288 15.4027 523.989 14.528 523.392 14.016C522.795 13.4613 522.091 13.184 521.28 13.184H512.384Z"/>
</mask>
<path d="M41.56 36.352C41.56 38.4 41.1333 40.1707 40.28 41.664C39.4267 43.1147 38.2533 44.3093 36.76 45.248C35.2667 46.1867 33.5173 46.8907 31.512 47.36C29.5493 47.7867 27.4587 48 25.24 48H2.90399V2.56H29.272C30.8507 2.56 32.28 2.90134 33.56 3.584C34.84 4.26667 35.928 5.16267 36.824 6.272C37.72 7.33867 38.4027 8.576 38.872 9.984C39.384 11.3493 39.64 12.7573 39.64 14.208C39.64 16.3413 39.0853 18.3893 37.976 20.352C36.9093 22.272 35.288 23.7227 33.112 24.704C35.7147 25.472 37.7627 26.816 39.256 28.736C40.792 30.6133 41.56 33.152 41.56 36.352ZM28.888 33.792C28.888 32.6827 28.5893 31.7653 27.992 31.04C27.3947 30.272 26.6267 29.888 25.688 29.888H15.384V37.504H25.24C26.264 37.504 27.1173 37.184 27.8 36.544C28.5253 35.904 28.888 34.9867 28.888 33.792ZM15.384 13.184V20.16H23.896C24.7493 20.16 25.5173 19.9253 26.2 19.456C26.9253 18.9867 27.288 18.048 27.288 16.64C27.288 15.4027 26.9893 14.528 26.392 14.016C25.7947 13.4613 25.0907 13.184 24.28 13.184H15.384Z" stroke="white" stroke-width="4" mask="url(#path-1-outside-1)"/>
<path d="M84.2755 37.12V48H51.8915V2.56H83.6995V13.44H64.3715V19.84H80.8835V29.952H64.3715V37.12H84.2755Z" stroke="white" stroke-width="4" mask="url(#path-1-outside-1)"/>
<path d="M127.263 37.12V48H94.879V2.56H126.687V13.44H107.359V19.84H123.871V29.952H107.359V37.12H127.263Z" stroke="white" stroke-width="4" mask="url(#path-1-outside-1)"/>
<path d="M157.659 48.384C154.203 48.384 151.067 47.7227 148.251 46.4C145.435 45.0773 143.024 43.3493 141.019 41.216C139.014 39.04 137.456 36.5653 136.347 33.792C135.238 31.0187 134.683 28.16 134.683 25.216C134.683 22.2293 135.259 19.3493 136.411 16.576C137.563 13.8027 139.163 11.3707 141.211 9.28C143.302 7.14667 145.755 5.46134 148.571 4.224C151.43 2.944 154.544 2.304 157.915 2.304C161.371 2.304 164.507 2.96533 167.323 4.288C170.139 5.61067 172.55 7.36 174.555 9.536C176.56 11.712 178.096 14.1867 179.163 16.96C180.272 19.7333 180.827 22.5707 180.827 25.472C180.827 28.4587 180.251 31.3387 179.099 34.112C177.947 36.8427 176.347 39.2747 174.299 41.408C172.251 43.4987 169.798 45.184 166.939 46.464C164.123 47.744 161.03 48.384 157.659 48.384ZM147.355 25.344C147.355 26.88 147.568 28.3733 147.995 29.824C148.422 31.232 149.062 32.4907 149.915 33.6C150.768 34.7093 151.835 35.6053 153.115 36.288C154.438 36.9707 155.995 37.312 157.787 37.312C159.579 37.312 161.136 36.9707 162.459 36.288C163.782 35.5627 164.848 34.6453 165.659 33.536C166.512 32.384 167.131 31.0827 167.515 29.632C167.942 28.1813 168.155 26.7093 168.155 25.216C168.155 23.68 167.942 22.208 167.515 20.8C167.088 19.3493 166.427 18.0907 165.531 17.024C164.678 15.9147 163.59 15.04 162.267 14.4C160.987 13.7173 159.472 13.376 157.723 13.376C155.931 13.376 154.374 13.7173 153.051 14.4C151.771 15.0827 150.704 16 149.851 17.152C148.998 18.2613 148.358 19.5413 147.931 20.992C147.547 22.4 147.355 23.8507 147.355 25.344Z" stroke="white" stroke-width="4" mask="url(#path-1-outside-1)"/>
<path d="M203.396 25.664V48H190.916V2.56H200.644L218.884 25.664V2.56H231.364V48H221.444L203.396 25.664Z" stroke="white" stroke-width="4" mask="url(#path-1-outside-1)"/>
<path d="M279.358 13.44H266.302V48H253.822V13.44H240.702V2.56H279.358V13.44Z" stroke="white" stroke-width="4" mask="url(#path-1-outside-1)"/>
<path d="M328.896 2.56V48H316.416V30.208H301.184V48H288.704V2.56H301.184V19.328H316.416V2.56H328.896Z" stroke="white" stroke-width="4" mask="url(#path-1-outside-1)"/>
<path d="M373.888 37.12V48H341.504V2.56H373.312V13.44H353.984V19.84H370.496V29.952H353.984V37.12H373.888Z" stroke="white" stroke-width="4" mask="url(#path-1-outside-1)"/>
<path d="M398.956 2.56H410.411L414.379 16.576L418.411 2.56H429.867L422.379 24.256L425.643 33.728L435.435 2.56H449.003L431.211 48H420.844L414.379 31.744L407.979 48H397.611L379.819 2.56H393.323L403.18 33.728L406.315 24.256L398.956 2.56Z" stroke="white" stroke-width="4" mask="url(#path-1-outside-1)"/>
<path d="M489.301 37.12V48H456.917V2.56H488.725V13.44H469.397V19.84H485.909V29.952H469.397V37.12H489.301Z" stroke="white" stroke-width="4" mask="url(#path-1-outside-1)"/>
<path d="M538.56 36.352C538.56 38.4 538.133 40.1707 537.28 41.664C536.427 43.1147 535.253 44.3093 533.76 45.248C532.267 46.1867 530.517 46.8907 528.512 47.36C526.549 47.7867 524.459 48 522.24 48H499.904V2.56H526.272C527.851 2.56 529.28 2.90134 530.56 3.584C531.84 4.26667 532.928 5.16267 533.824 6.272C534.72 7.33867 535.403 8.576 535.872 9.984C536.384 11.3493 536.64 12.7573 536.64 14.208C536.64 16.3413 536.085 18.3893 534.976 20.352C533.909 22.272 532.288 23.7227 530.112 24.704C532.715 25.472 534.763 26.816 536.256 28.736C537.792 30.6133 538.56 33.152 538.56 36.352ZM525.888 33.792C525.888 32.6827 525.589 31.7653 524.992 31.04C524.395 30.272 523.627 29.888 522.688 29.888H512.384V37.504H522.24C523.264 37.504 524.117 37.184 524.8 36.544C525.525 35.904 525.888 34.9867 525.888 33.792ZM512.384 13.184V20.16H520.896C521.749 20.16 522.517 19.9253 523.2 19.456C523.925 18.9867 524.288 18.048 524.288 16.64C524.288 15.4027 523.989 14.528 523.392 14.016C522.795 13.4613 522.091 13.184 521.28 13.184H512.384Z" stroke="white" stroke-width="4" mask="url(#path-1-outside-1)"/>
</svg>
