<?xml version="1.0" encoding="UTF-8" standalone="no"?>
<svg
   xmlns:dc="http://purl.org/dc/elements/1.1/"
   xmlns:cc="http://creativecommons.org/ns#"
   xmlns:rdf="http://www.w3.org/1999/02/22-rdf-syntax-ns#"
   xmlns:svg="http://www.w3.org/2000/svg"
   xmlns="http://www.w3.org/2000/svg"
   xmlns:sodipodi="http://sodipodi.sourceforge.net/DTD/sodipodi-0.dtd"
   xmlns:inkscape="http://www.inkscape.org/namespaces/inkscape"
   inkscape:version="1.0 (4035a4fb49, 2020-05-01)"
   sodipodi:docname="gatsby.svg"
   id="svg8"
   version="1.1"
   focusable="false"
   viewBox="0 0 28 28">
  <metadata
     id="metadata14">
    <rdf:RDF>
      <cc:Work
         rdf:about="">
        <dc:format>image/svg+xml</dc:format>
        <dc:type
           rdf:resource="http://purl.org/dc/dcmitype/StillImage" />
        <dc:title>
    Gatsby
  </dc:title>
      </cc:Work>
    </rdf:RDF>
  </metadata>
  <defs
     id="defs12">
    <inkscape:path-effect
       message="Jeśli po konwersji przycięcia na ścieżki nie zostanie spłaszczony wynik, użyj reguły wypełniania w oknie dialogowym &lt;b&gt;wypełnienie i obrys&lt;/b&gt; ."
       hide_clip="false"
       flatten="false"
       inverse="true"
       lpeversion="1"
       is_visible="true"
       id="path-effect855"
       effect="powerclip" />
    <clipPath
       id="clipPath851"
       clipPathUnits="userSpaceOnUse">
      <path
         style="display:none;fill:#ffff9c;fill-opacity:1"
         id="path853"
         d="M 6.2,21.8 C 4.1,19.7 3,16.9 3,14.2 L 13.9,25 C 11.1,24.9 8.3,23.9 6.2,21.8 Z M 16.4,24.7 3.3,11.6 C 4.4,6.7 8.8,3 14,3 c 3.7,0 6.9,1.8 8.9,4.5 L 21.4,8.8 C 19.7,6.5 17,5 14,5 10.1,5 6.8,7.5 5.5,11 L 17,22.5 c 2.9,-1 5.1,-3.5 5.8,-6.5 H 18 v -2 h 7 c 0,5.2 -3.7,9.6 -8.6,10.7 z"
         fill="#fff" />
      <path
         d="M -5,-5 H 33 V 33 H -5 Z M 6.2,21.8 c 2.1,2.1 4.9,3.1 7.7,3.2 L 3,14.2 c 0,2.7 1.1,5.5 3.2,7.6 z m 10.2,2.9 C 21.3,23.6 25,19.2 25,14 h -7 v 2 h 4.8 c -0.7,3 -2.9,5.5 -5.8,6.5 L 5.5,11 C 6.8,7.5 10.1,5 14,5 c 3,0 5.7,1.5 7.4,3.8 L 22.9,7.5 C 20.9,4.8 17.7,3 14,3 8.8,3 4.4,6.7 3.3,11.6 Z"
         class="powerclip"
         style="fill:#ffff9c;fill-opacity:1"
         id="lpe_path-effect855" />
    </clipPath>
  </defs>
  <sodipodi:namedview
     inkscape:pagecheckerboard="true"
     inkscape:current-layer="svg8"
     inkscape:window-maximized="1"
     inkscape:window-y="-8"
     inkscape:window-x="-8"
     inkscape:cy="14"
     inkscape:cx="14"
     inkscape:zoom="18.456733"
     showgrid="false"
     id="namedview10"
     inkscape:window-height="706"
     inkscape:window-width="1366"
     inkscape:pageshadow="2"
     inkscape:pageopacity="0"
     guidetolerance="10"
     gridtolerance="10"
     objecttolerance="10"
     borderopacity="1"
     bordercolor="#666666"
     pagecolor="#ffffff" />
  <title
     id="title2">
    Gatsby
  </title>
  <path
     d="M 28,14 A 14,14 0 0 1 14,28 14,14 0 0 1 0,14 14,14 0 0 1 14,0 14,14 0 0 1 28,14"
     sodipodi:ry="14"
     sodipodi:rx="14"
     sodipodi:cy="14"
     sodipodi:cx="14"
     sodipodi:type="arc"
     inkscape:path-effect="#path-effect855"
     clip-path="url(#clipPath851)"
     style="fill:#ffffff;fill-opacity:1"
     id="circle4"
     fill="#639" />
</svg>
