<?xml version="1.0" encoding="UTF-8" standalone="no"?>
<!DOCTYPE svg PUBLIC "-//W3C//DTD SVG 1.1//EN" "http://www.w3.org/Graphics/SVG/1.1/DTD/svg11.dtd">
<svg width="100%" height="100%" viewBox="0 0 340 220" version="1.1" xmlns="http://www.w3.org/2000/svg" xmlns:xlink="http://www.w3.org/1999/xlink" xml:space="preserve" xmlns:serif="http://www.serif.com/" style="fill-rule:evenodd;clip-rule:evenodd;stroke-linejoin:round;stroke-miterlimit:2;">
    <g transform="matrix(1,0,0,1,-80,-140)">
        <g>
            <rect x="239.9" y="339" width="63.4" height="8.9" style="fill:white;"/>
            <clipPath id="_clip1">
                <rect x="239.9" y="339" width="63.4" height="8.9"/>
            </clipPath>
            <g clip-path="url(#_clip1)">
                <circle cx="351.2" cy="318.5" r="2.7" style="fill:white;"/>
            </g>
            <path d="M169.1,327.2L359.4,327.2C364.3,327.2 368.3,323.2 368.3,318.3L368.3,195.9C368.3,191 364.3,187 359.4,187L169.1,187C164.2,187 160.2,191 160.2,195.9L160.2,318.4C160.2,323.3 164.2,327.2 169.1,327.2ZM359.2,195.3L168,195.3L168,309.2L359.2,309.2L359.2,195.3Z" style="fill:white;"/>
        </g>
        <g>
            <g transform="matrix(0.5,0,0,0.5,186.5,103.854)">
                <path d="M327.6,250.6C327.6,234.8 317.4,221.4 303.3,216.6C291.1,215.3 282.1,228.2 283,249.4C282,228.2 291.1,215.3 303.3,216.6C299.6,215.3 295.7,214.7 291.6,214.7C271.7,214.7 255.6,230.8 255.6,250.7C255.6,253 255.8,255.3 256.3,257.6C261,268 275.9,270.9 294.8,258.8C275.8,271 261,268 256.3,257.6C259.5,274.2 274.1,286.7 291.6,286.7C300.7,286.7 309,283.3 315.3,277.8C321.9,268.6 317.2,255 297,243.9C317.3,255 321.9,268.6 315.3,277.8C322.8,271.1 327.6,261.4 327.6,250.6Z" style="fill:white;fill-rule:nonzero;"/>
            </g>
            <path d="M269.1,151.7C269.1,149.9 267.7,148.5 265.9,148.5C264.1,148.5 262.7,149.9 262.7,151.7C262.7,153.5 264.1,154.9 265.9,154.9C267.6,154.9 269.1,153.5 269.1,151.7Z" style="fill:white;fill-rule:nonzero;"/>
            <path d="M198.6,152.5C198.6,150.7 197.2,149.3 195.4,149.3C193.6,149.3 192.2,150.7 192.2,152.5C192.2,154.3 193.6,155.7 195.4,155.7C197.2,155.7 198.6,154.2 198.6,152.5Z" style="fill:white;fill-rule:nonzero;"/>
            <path d="M259.9,226.6L188.7,226.6L188.5,226.4L152.8,185.7L195,151.2L266.1,151.2L295.6,185.8L295.3,186.2L259.9,226.6ZM189.2,225.4L259.3,225.4L294.1,185.7L265.6,152.3L195.4,152.3L154.4,185.8L189.2,225.4Z" style="fill:white;fill-rule:nonzero;"/>
            <g transform="matrix(0.7194,-0.6946,0.6946,0.7194,-67.3716,210.971)">
                <rect x="174" y="188.3" width="106.9" height="1.2" style="fill:white;"/>
            </g>
            <g transform="matrix(0.7194,-0.6946,0.6946,0.7194,-67.3716,210.971)">
                <rect x="174" y="188.3" width="106.9" height="1.2" style="fill:white;"/>
            </g>
            <path d="M308.7,259.2L259.1,226.4L226,188.2L153.6,186.4L153.6,185.2L225,187L194.8,152.1L195.7,151.3L226.6,187L228.1,187L295.4,185.1L308.7,259.2ZM260,225.6L307.1,256.8L294.4,186.4L228.1,188.3L227.6,188.3L260,225.6Z" style="fill:white;fill-rule:nonzero;"/>
            <path d="M263.3,225.5C263.3,223.2 261.4,221.3 259.1,221.3C256.8,221.3 254.9,223.2 254.9,225.5C254.9,227.8 256.8,229.7 259.1,229.7C261.4,229.8 263.3,227.9 263.3,225.5Z" style="fill:white;fill-rule:nonzero;"/>
            <path d="M315.3,331.4C315.3,329.1 313.4,327.2 311.1,327.2C308.8,327.2 306.9,329.1 306.9,331.4C306.9,333.7 308.8,335.6 311.1,335.6C313.5,335.6 315.3,333.8 315.3,331.4Z" style="fill:white;fill-rule:nonzero;"/>
            <path d="M372.2,241.2C372.2,238.9 370.3,237 368,237C365.7,237 363.8,238.9 363.8,241.2C363.8,243.5 365.7,245.4 368,245.4C370.3,245.4 372.2,243.5 372.2,241.2Z" style="fill:white;fill-rule:nonzero;"/>
            <path d="M312.3,258.9C312.3,256.6 310.4,254.7 308.1,254.7C305.8,254.7 303.9,256.6 303.9,258.9C303.9,261.2 305.8,263.1 308.1,263.1C310.4,263.1 312.3,261.2 312.3,258.9Z" style="fill:white;fill-rule:nonzero;"/>
            <path d="M373.7,181C373.7,178.7 371.8,176.8 369.5,176.8C367.2,176.8 365.3,178.7 365.3,181C365.3,183.3 367.2,185.2 369.5,185.2C371.8,185.2 373.7,183.3 373.7,181Z" style="fill:white;fill-rule:nonzero;"/>
            <path d="M297.1,186.2C297.1,184.4 295.7,183 293.9,183C292.1,183 290.7,184.4 290.7,186.2C290.7,188 292.1,189.4 293.9,189.4C295.7,189.4 297.1,188 297.1,186.2Z" style="fill:white;fill-rule:nonzero;"/>
            <circle cx="227.4" cy="187.9" r="3.2" style="fill:white;"/>
            <circle cx="153.4" cy="186" r="3.2" style="fill:white;"/>
            <path d="M144.8,232.2C144.8,230.4 143.4,229 141.6,229C139.8,229 138.4,230.4 138.4,232.2C138.4,234 139.8,235.4 141.6,235.4C143.4,235.4 144.8,234 144.8,232.2Z" style="fill:white;fill-rule:nonzero;"/>
            <g transform="matrix(0.9871,-0.1602,0.1602,0.9871,-38.1983,18.3189)">
                <circle cx="94.5" cy="246.1" r="3.2" style="fill:white;"/>
            </g>
            <path d="M381.3,289.6C381.3,288.1 380.1,286.9 378.6,286.9C377.1,286.9 375.9,288.1 375.9,289.6C375.9,291.1 377.1,292.3 378.6,292.3C380.1,292.3 381.3,291.1 381.3,289.6Z" style="fill:white;fill-rule:nonzero;"/>
            <path d="M406.1,225.2C406.1,223.7 404.9,222.5 403.4,222.5C401.9,222.5 400.7,223.7 400.7,225.2C400.7,226.7 401.9,227.9 403.4,227.9C404.9,227.8 406.1,226.6 406.1,225.2Z" style="fill:white;fill-rule:nonzero;"/>
            <path d="M192.8,225C192.8,222.7 190.9,220.8 188.6,220.8C186.3,220.8 184.4,222.7 184.4,225C184.4,227.3 186.3,229.2 188.6,229.2C190.9,229.3 192.8,227.4 192.8,225Z" style="fill:white;fill-rule:nonzero;"/>
            <path d="M140.8,232.5L152.8,189L153.9,189.3L142.4,231.1L184.2,224.5L184.4,225.6L140.8,232.5Z" style="fill:white;fill-rule:nonzero;"/>
        </g>
        <path d="M212.3,344.3C212.3,346.7 210.4,348.6 208,348.6L135.2,348.6C132.8,348.6 130.9,346.7 130.9,344.3L130.9,245.7C130.9,243.3 132.8,241.4 135.2,241.4L208,241.4C210.4,241.4 212.3,243.3 212.3,245.7L212.3,344.3ZM205.3,252.4L137.8,252.4L137.8,337.5L205.3,337.5L205.3,252.4Z" style="fill:white;fill-rule:nonzero;"/>
        <path d="M147.3,344.9C147.3,347.7 145.1,349.9 142.3,349.9L110.8,349.9C108,349.9 105.8,347.7 105.8,344.9L105.8,274.5C105.8,271.7 108,269.5 110.8,269.5L142.3,269.5C145.1,269.5 147.3,271.7 147.3,274.5L147.3,344.9ZM143.7,282.8L109.6,282.8L109.6,336.8L143.7,336.8L143.7,282.8ZM123,275L132,275L132,278L123,278L123,275Z" style="fill:white;fill-rule:nonzero;"/>
    </g>
</svg>
