<?xml version="1.0" encoding="UTF-8" standalone="no"?>
<!DOCTYPE svg PUBLIC "-//W3C//DTD SVG 1.1//EN" "http://www.w3.org/Graphics/SVG/1.1/DTD/svg11.dtd">
<svg width="100%" height="100%" viewBox="0 0 150 150" version="1.1" xmlns="http://www.w3.org/2000/svg" xmlns:xlink="http://www.w3.org/1999/xlink" xml:space="preserve" xmlns:serif="http://www.serif.com/" style="fill-rule:evenodd;clip-rule:evenodd;stroke-linejoin:round;stroke-miterlimit:2;">
    <g transform="matrix(1,0,0,1,-210.9,-21.2935)">
        <g transform="matrix(1,0,0,1,-11.4289,-9.30167)">
            <path d="M248.886,66.044C254.293,57.224 259.472,49.589 262.368,46.663L262.369,46.663L279.304,75.997C275.295,80.591 265.238,97.862 263.526,103.16L229.609,103.16C230.369,99.726 234.237,91.764 239.147,82.816C240.591,83.67 242.275,84.16 244.072,84.16C249.424,84.16 253.77,79.814 253.77,74.462C253.77,70.862 251.803,67.717 248.886,66.044Z" style="fill:white;"/>
        </g>
        <circle cx="232.643" cy="65.161" r="6.907" style="fill:white;"/>
        <g transform="matrix(1,0,0,1,-11.4289,-9.30167)">
            <path d="M287.488,43.268C287.461,43.564 287.447,43.864 287.447,44.168C287.447,49.52 291.792,53.865 297.144,53.865C302.497,53.865 306.842,49.52 306.842,44.168C306.842,43.888 306.83,43.61 306.807,43.337C316.989,43.616 326.014,44.281 329.944,45.313L313.008,74.648C307.031,73.47 287.034,73.396 281.596,74.563L264.637,45.19C268.039,44.114 277.088,43.48 287.488,43.268ZM329.944,45.313L329.945,45.313L329.945,45.313L329.944,45.313Z" style="fill:white;"/>
        </g>
        <circle cx="285.715" cy="34.866" r="6.907" style="fill:white;"/>
        <g transform="matrix(1,0,0,1,-11.4289,-9.30167)">
            <path d="M354.379,80.902C359.534,90.338 363.787,99.059 364.909,103.16L331.035,103.161C329.062,97.394 319.134,80.048 315.401,75.916L332.361,46.542L332.361,46.541C334.87,48.838 339.594,55.773 344.693,64.123C341.577,65.737 339.447,68.991 339.447,72.739C339.447,78.091 343.792,82.437 349.145,82.437C351.072,82.437 352.869,81.873 354.379,80.902Z" style="fill:white;"/>
        </g>
        <circle cx="337.716" cy="63.437" r="6.907" style="fill:white;"/>
        <g transform="matrix(1,0,0,1,-11.4289,-9.30167)">
            <path d="M345.388,143.601C340.123,152.152 335.117,159.499 332.289,162.357L315.352,133.023C319.362,128.43 329.418,111.161 331.131,105.862L365.049,105.862L365.049,105.862C364.27,109.383 360.223,117.664 355.134,126.89C353.846,126.257 352.397,125.901 350.865,125.901C345.512,125.901 341.167,130.246 341.167,135.599C341.167,138.919 342.84,141.852 345.388,143.601Z" style="fill:white;"/>
        </g>
        <circle cx="339.436" cy="126.297" r="6.907" style="fill:white;"/>
        <g transform="matrix(1,0,0,1,-11.4289,-9.30167)">
            <path d="M287.539,165.682C277.483,165.398 268.6,164.737 264.709,163.714L281.647,134.378C287.623,135.556 307.619,135.63 313.056,134.463L313.056,134.462L330.016,163.837C326.569,164.927 317.331,165.563 306.761,165.768C306.145,161.007 302.071,157.325 297.144,157.325C292.247,157.325 288.193,160.963 287.539,165.682Z" style="fill:white;"/>
        </g>
        <circle cx="285.715" cy="157.721" r="6.907" style="fill:white;"/>
        <g transform="matrix(1,0,0,1,-11.4289,-9.30167)">
            <path d="M239.636,126.938C234.774,117.963 230.824,109.791 229.749,105.863L263.624,105.862L263.624,105.863C265.598,111.632 275.525,128.976 279.258,133.108L262.299,162.481C259.676,160.079 254.63,152.606 249.264,143.743C251.931,142.015 253.698,139.011 253.698,135.599C253.698,130.246 249.352,125.901 244,125.901C242.431,125.901 240.948,126.275 239.636,126.938Z" style="fill:white;"/>
        </g>
        <circle cx="232.571" cy="126.297" r="6.907" style="fill:white;"/>
    </g>
</svg>
