<?xml version="1.0" encoding="UTF-8" standalone="no"?>
<!DOCTYPE svg PUBLIC "-//W3C//DTD SVG 1.1//EN" "http://www.w3.org/Graphics/SVG/1.1/DTD/svg11.dtd">
<svg width="100%" height="100%" viewBox="0 0 68 113" version="1.1" xmlns="http://www.w3.org/2000/svg" xmlns:xlink="http://www.w3.org/1999/xlink" xml:space="preserve" xmlns:serif="http://www.serif.com/" style="fill-rule:evenodd;clip-rule:evenodd;stroke-linejoin:round;stroke-miterlimit:2;">
    <g transform="matrix(0.75,0,0,0.75,0,0)">
        <g id="_2744583888992" transform="matrix(1,0,0,1,-84.6,-54.6)">
            <path d="M146.778,172.488L112.422,172.488C111.09,172.488 110.041,171.439 110.041,170.135C110.041,162.935 108.567,156.557 106.441,150.775C104.258,144.85 101.395,139.493 98.731,134.476C94.224,126.028 90.17,118.46 90.17,110.268L90.17,109.814C90.283,97.2 95.272,87.165 102.671,80.249C110.041,73.332 119.849,69.591 129.657,69.591C129.742,69.591 129.827,69.591 129.883,69.619L130.025,69.619C140.343,69.704 150.633,73.984 158.06,81.723C164.693,88.668 169.03,98.334 169.03,110.268C169.03,118.46 164.976,126.028 160.498,134.476C155.169,144.454 149.159,155.679 149.159,170.135C149.159,171.439 148.11,172.488 146.778,172.488ZM113.924,181.049C112.62,181.049 111.543,180 111.543,178.668C111.543,177.364 112.62,176.287 113.924,176.287L145.276,176.287C146.58,176.287 147.657,177.364 147.657,178.668C147.657,180 146.58,181.049 145.276,181.049L113.924,181.049ZM124.838,133.54L134.362,133.54L134.362,130.224C134.362,128.891 135.411,127.843 136.715,127.843C138.047,127.843 139.096,128.891 139.096,130.224L139.096,167.754L144.454,167.754C145.049,153.326 151.002,142.186 156.302,132.236C160.498,124.384 164.296,117.298 164.296,110.268C164.296,99.666 160.469,91.106 154.63,85.011C148.11,78.18 139.068,74.438 129.969,74.353L129.657,74.353C121.039,74.353 112.394,77.641 105.874,83.735C99.383,89.802 95.017,98.674 94.904,109.843L94.904,110.268C94.904,117.298 98.702,124.384 102.898,132.236C105.676,137.452 108.624,142.98 110.891,149.131C112.961,154.772 114.463,160.894 114.746,167.754L120.104,167.754L120.104,130.224C120.104,128.891 121.153,127.843 122.485,127.843C123.789,127.843 124.838,128.891 124.838,130.224L124.838,133.54ZM134.362,167.754L134.362,138.302L124.838,138.302L124.838,167.754L134.362,167.754ZM116.702,189.609C115.37,189.609 114.321,188.532 114.321,187.228C114.321,185.924 115.37,184.847 116.702,184.847L142.243,184.847C143.575,184.847 144.624,185.924 144.624,187.228C144.624,188.532 143.575,189.609 142.243,189.609L116.702,189.609Z" style="fill:white;fill-rule:nonzero;"/>
        </g>
    </g>
</svg>
