<?xml version="1.0" encoding="UTF-8" standalone="no"?>
<!DOCTYPE svg PUBLIC "-//W3C//DTD SVG 1.1//EN" "http://www.w3.org/Graphics/SVG/1.1/DTD/svg11.dtd">
<svg width="100%" height="100%" viewBox="0 0 150 150" version="1.1" xmlns="http://www.w3.org/2000/svg" xmlns:xlink="http://www.w3.org/1999/xlink" xml:space="preserve" xmlns:serif="http://www.serif.com/" style="fill-rule:evenodd;clip-rule:evenodd;stroke-linejoin:round;stroke-miterlimit:2;">
    <g transform="matrix(1,0,0,1,-20.565,-402.224)">
        <g transform="matrix(0.397933,0.366553,0.638096,-0.692722,124.135,139.518)">
            <rect x="340.524" y="-323.987" width="64.495" height="5.743" style="fill:white;"/>
        </g>
        <g transform="matrix(0.473336,0.1622,0.344232,-1.00454,123.736,14.2476)">
            <rect x="183.755" y="-436.099" width="64.495" height="5.743" style="fill:white;"/>
        </g>
        <g transform="matrix(0.29092,-0.0387793,0.132826,0.996452,12.3244,-4.17837)">
            <rect x="-41.662" y="471.324" width="64.495" height="5.743" style="fill:white;"/>
        </g>
        <g transform="matrix(0.315513,-0.259925,0.581189,0.705482,-79.2575,109.666)">
            <rect x="-286.081" y="392.715" width="64.495" height="5.743" style="fill:white;"/>
        </g>
        <g transform="matrix(1,0,0,1,-11.4289,-9.30167)">
            <path d="M55.395,459.336C67.661,459.336 77.619,469.295 77.619,481.561C77.619,493.826 67.661,503.785 55.395,503.785C43.129,503.785 33.171,493.826 33.171,481.561C33.171,469.295 43.129,459.336 55.395,459.336ZM55.395,465.732C64.131,465.732 71.223,472.825 71.223,481.561C71.223,490.297 64.131,497.389 55.395,497.389C46.659,497.389 39.567,490.297 39.567,481.561C39.567,472.825 46.659,465.732 55.395,465.732Z" style="fill:white;"/>
        </g>
        <g transform="matrix(1,0,0,1,-11.4289,-9.30167)">
            <path d="M143.431,425.887C148.783,425.887 153.129,430.233 153.129,435.585C153.129,440.937 148.783,445.283 143.431,445.283C138.079,445.283 133.733,440.937 133.733,435.585C133.733,430.233 138.079,425.887 143.431,425.887ZM143.431,428.678C147.243,428.678 150.338,431.773 150.338,435.585C150.338,439.397 147.243,442.492 143.431,442.492C139.619,442.492 136.524,439.397 136.524,435.585C136.524,431.773 139.619,428.678 143.431,428.678Z" style="fill:white;"/>
        </g>
        <g transform="matrix(1,0,0,1,-11.4289,-9.30167)">
            <path d="M164.007,446.143C169.36,446.143 173.705,450.489 173.705,455.841C173.705,461.193 169.36,465.539 164.007,465.539C158.655,465.539 154.31,461.193 154.31,455.841C154.31,450.489 158.655,446.143 164.007,446.143ZM164.007,448.934C167.819,448.934 170.914,452.029 170.914,455.841C170.914,459.653 167.819,462.748 164.007,462.748C160.195,462.748 157.1,459.653 157.1,455.841C157.1,452.029 160.195,448.934 164.007,448.934Z" style="fill:white;"/>
        </g>
        <g transform="matrix(1,0,0,1,-11.4289,-9.30167)">
            <path d="M171.119,488.776C176.472,488.776 180.817,493.121 180.817,498.473C180.817,503.826 176.472,508.171 171.119,508.171C165.767,508.171 161.422,503.826 161.422,498.473C161.422,493.121 165.767,488.776 171.119,488.776ZM171.119,491.567C174.931,491.567 178.026,494.661 178.026,498.473C178.026,502.285 174.931,505.38 171.119,505.38C167.307,505.38 164.212,502.285 164.212,498.473C164.212,494.661 167.307,491.567 171.119,491.567Z" style="fill:white;"/>
        </g>
        <g transform="matrix(1,0,0,1,-11.4289,-9.30167)">
            <path d="M150.095,508.848C155.447,508.848 159.793,513.193 159.793,518.546C159.793,523.898 155.447,528.243 150.095,528.243C144.743,528.243 140.397,523.898 140.397,518.546C140.397,513.193 144.743,508.848 150.095,508.848ZM150.095,511.639C153.907,511.639 157.002,514.734 157.002,518.546C157.002,522.358 153.907,525.452 150.095,525.452C146.283,525.452 143.188,522.358 143.188,518.546C143.188,514.734 146.283,511.639 150.095,511.639Z" style="fill:white;"/>
        </g>
        <g transform="matrix(1,0,0,1,-11.4289,-9.30167)">
            <path d="M122.983,527.768C128.335,527.768 132.681,532.113 132.681,537.466C132.681,542.818 128.335,547.163 122.983,547.163C117.631,547.163 113.285,542.818 113.285,537.466C113.285,532.113 117.631,527.768 122.983,527.768ZM122.983,530.559C126.795,530.559 129.89,533.654 129.89,537.466C129.89,541.278 126.795,544.373 122.983,544.373C119.171,544.373 116.076,541.278 116.076,537.466C116.076,533.654 119.171,530.559 122.983,530.559Z" style="fill:white;"/>
        </g>
        <g transform="matrix(0.974115,0,0,1,3.20541,3.55271e-15)">
            <rect x="76.342" y="423.379" width="47.493" height="5.743" style="fill:white;"/>
        </g>
        <g transform="matrix(0.985143,0,0,1,2.14544,-1.77636e-14)">
            <rect x="78.086" y="444.315" width="66.321" height="5.743" style="fill:white;"/>
        </g>
        <rect x="91.122" y="486.852" width="59.592" height="5.743" style="fill:white;"/>
        <g transform="matrix(0.980516,0,0,1,2.54249,-1.77636e-14)">
            <rect x="77.539" y="506.668" width="52.953" height="5.743" style="fill:white;"/>
        </g>
        <rect x="77.285" y="524.996" width="26.095" height="5.743" style="fill:white;"/>
        <g transform="matrix(0.68346,-0.72999,0.72999,0.68346,0.737778,-0.184039)">
            <rect x="-298.857" y="345.435" width="42.042" height="5.743" style="fill:white;"/>
        </g>
        <g transform="matrix(0.616085,0.778073,0.756962,-0.599369,-5.18183,8.07859)">
            <rect x="412.964" y="-269.05" width="51.464" height="5.743" style="fill:white;"/>
        </g>
        <g transform="matrix(1,0,0,1,-11.4289,-9.30167)">
            <path d="M128.079,467.104C133.431,467.104 137.777,471.449 137.777,476.801C137.777,482.154 133.431,486.499 128.079,486.499C122.727,486.499 118.381,482.154 118.381,476.801C118.381,471.449 122.727,467.104 128.079,467.104ZM128.079,469.894C131.891,469.894 134.986,472.989 134.986,476.801C134.986,480.613 131.891,483.708 128.079,483.708C124.267,483.708 121.172,480.613 121.172,476.801C121.172,472.989 124.267,469.894 128.079,469.894Z" style="fill:white;"/>
        </g>
        <g transform="matrix(1.01016,0,0,1,-1.10247,3.55271e-15)">
            <rect x="81.842" y="464.588" width="26.636" height="5.743" style="fill:white;"/>
        </g>
    </g>
</svg>
