<?xml version="1.0" encoding="UTF-8" standalone="no"?>
<!DOCTYPE svg PUBLIC "-//W3C//DTD SVG 1.1//EN" "http://www.w3.org/Graphics/SVG/1.1/DTD/svg11.dtd">
<svg width="100%" height="100%" viewBox="0 0 100 100" version="1.1" xmlns="http://www.w3.org/2000/svg" xmlns:xlink="http://www.w3.org/1999/xlink" xml:space="preserve" xmlns:serif="http://www.serif.com/" style="fill-rule:evenodd;clip-rule:evenodd;stroke-linejoin:round;stroke-miterlimit:2;">
    <g transform="matrix(0.214957,0,0,0.214957,-29.5114,-0.791041)">
        <g transform="matrix(0.00033877,-1,1,0.00033877,-42.827,106.71)">
            <path d="M62.476,604.65L62.476,536.931L62.445,536.931C62.235,534.586 60.873,532.052 58.883,530.9C56.718,529.647 57.897,529.658 55.726,530.9C49.455,533.321 43.128,537.167 36.288,536.931C25.454,536.931 16.58,528.412 16.038,517.712C16.021,517.367 16.038,517.03 16.038,516.681C16.038,505.497 25.105,496.431 36.288,496.431C43.25,496.431 49.198,500.207 55.726,502.462C57.897,503.704 60.718,503.715 62.883,502.462C64.873,501.31 66.235,498.776 66.445,496.431L66.476,496.431L66.476,422.681L-7.274,422.681L-7.274,422.65C-9.619,422.44 -12.154,421.077 -13.305,419.087C-14.558,416.922 -14.547,414.102 -13.305,411.931C-11.05,405.403 -7.274,399.456 -7.274,392.493C-7.274,381.309 -16.34,372.243 -27.524,372.243C-27.873,372.243 -28.21,372.225 -28.555,372.243C-39.255,372.785 -47.774,381.659 -47.774,392.493C-48.011,399.332 -44.164,405.659 -41.743,411.931C-40.501,414.102 -40.49,416.922 -41.743,419.087C-42.895,421.077 -45.429,422.44 -47.774,422.65L-47.774,422.681L-115.524,422.681L-115.524,496.431L-115.555,496.431C-115.765,498.776 -117.128,501.31 -119.118,502.462C-121.282,503.715 -124.103,503.704 -126.274,502.462C-132.801,500.207 -138.749,496.431 -145.712,496.431C-156.896,496.431 -165.962,505.497 -165.962,516.681C-165.962,517.03 -165.979,517.367 -165.962,517.712C-165.42,528.411 -156.546,536.931 -145.712,536.931C-138.872,537.167 -132.546,533.321 -126.274,530.9C-124.103,529.658 -121.282,529.647 -119.118,530.9C-117.128,532.052 -115.765,534.586 -115.555,536.931L-115.524,536.931L-115.524,604.65L-47.774,604.65L-47.774,604.619C-45.429,604.409 -42.895,603.046 -41.743,601.056C-40.49,598.892 -40.501,596.071 -41.743,593.9C-44.164,587.628 -48.011,581.302 -47.774,574.462C-47.774,563.628 -39.255,554.754 -28.555,554.212C-28.21,554.195 -27.873,554.212 -27.524,554.212C-16.34,554.212 -7.274,563.278 -7.274,574.462C-7.274,581.424 -11.05,587.372 -13.305,593.9C-14.547,596.071 -14.558,598.892 -13.305,601.056C-12.154,603.046 -9.619,604.409 -7.274,604.619L-7.274,604.65L62.476,604.65Z" style="fill:white;fill-opacity:0;fill-rule:nonzero;stroke:white;stroke-width:4.65px;"/>
        </g>
        <g transform="matrix(-0.99999,-0.0036716,0.0036716,-0.99999,410.95,493.42)">
            <path d="M-148.7,87.168L-148.7,154.887L-148.669,154.887C-148.459,157.232 -147.096,159.766 -145.106,160.918C-142.942,162.171 -140.121,162.16 -137.95,160.918C-131.678,158.497 -125.352,154.651 -118.512,154.887C-107.678,154.887 -98.804,163.406 -98.262,174.106C-98.245,174.451 -98.262,174.788 -98.262,175.137C-98.262,186.321 -107.328,195.387 -118.512,195.387C-125.474,195.387 -131.422,191.611 -137.95,189.356C-140.121,188.114 -142.942,188.103 -145.106,189.356C-147.096,190.508 -148.459,193.042 -148.669,195.387L-148.699,195.387L-148.699,269.137L-80.949,269.137L-80.949,269.106C-78.603,268.896 -76.069,267.534 -74.918,265.543C-73.665,263.379 -73.676,260.558 -74.918,258.387C-77.338,252.115 -81.185,245.789 -80.949,238.949C-80.949,228.115 -72.43,219.241 -61.73,218.699C-61.385,218.682 -61.048,218.699 -60.698,218.699C-49.514,218.699 -40.448,227.766 -40.448,238.949C-40.448,245.911 -44.224,251.859 -46.48,258.387C-47.722,260.558 -47.733,263.379 -46.48,265.543C-45.328,267.534 -42.794,268.896 -40.448,269.106L-40.448,269.137L33.302,269.137L33.302,195.387L33.333,195.387C33.542,193.042 34.905,190.508 36.895,189.356C39.06,188.103 41.881,188.114 44.051,189.356C50.579,191.611 56.526,195.387 63.489,195.387C74.673,195.387 83.739,186.321 83.739,175.137C83.739,174.788 83.756,174.451 83.739,174.106C83.197,163.407 74.324,154.887 63.489,154.887C56.65,154.651 50.323,158.497 44.051,160.918C41.881,162.16 39.06,162.171 36.895,160.918C34.905,159.766 33.542,157.232 33.333,154.887L33.302,154.887L33.302,87.168L-34.448,87.168L-34.448,87.199C-36.794,87.409 -39.328,88.772 -40.48,90.762C-41.732,92.926 -41.722,95.747 -40.48,97.918C-38.059,104.19 -34.212,110.516 -34.448,117.356C-34.448,128.19 -42.968,137.064 -53.667,137.606C-54.013,137.624 -54.349,137.606 -54.699,137.606C-65.883,137.606 -74.949,128.54 -74.949,117.356C-74.949,110.394 -71.173,104.446 -68.917,97.918C-67.676,95.747 -67.665,92.926 -68.917,90.762C-70.069,88.772 -72.603,87.409 -74.949,87.199L-74.949,87.169L-148.699,87.169L-148.7,87.168Z" style="fill:white;fill-opacity:0;fill-rule:nonzero;stroke:white;stroke-width:4.65px;stroke-linejoin:miter;stroke-miterlimit:4;"/>
        </g>
        <g transform="matrix(-0.011976,-0.99993,0.99993,-0.011976,-89.882,597.864)">
            <path d="M552.91,468.87L552.91,401.151L552.879,401.151C552.669,398.806 551.306,396.272 549.316,395.12C547.152,393.867 544.331,393.878 542.16,395.12C535.888,397.541 529.562,401.387 522.722,401.151C511.888,401.151 503.014,392.632 502.472,381.932C502.455,381.587 502.472,381.25 502.472,380.901C502.472,369.717 511.538,360.651 522.722,360.651C529.684,360.651 535.632,364.427 542.16,366.682C544.331,367.924 547.152,367.935 549.316,366.682C551.306,365.53 552.669,362.996 552.879,360.651L552.91,360.651L552.91,282.835L485.16,282.835L485.16,282.866C482.815,283.076 480.281,288.504 479.129,290.494C477.876,292.659 477.887,295.48 479.129,297.651C481.55,303.922 485.396,310.249 485.16,317.089C485.16,327.923 476.641,336.797 465.941,337.339C465.596,337.356 465.259,337.339 464.91,337.339C453.726,337.339 444.66,328.272 444.66,317.089C444.66,310.127 448.436,304.179 450.691,297.651C451.933,295.48 451.944,292.659 450.691,290.494C449.539,288.504 447.005,287.142 444.66,286.932L444.66,286.901L370.91,286.901L370.91,360.651L370.879,360.651C370.669,362.996 369.306,365.53 367.316,366.682C365.152,367.935 362.331,367.924 360.16,366.682C353.633,364.427 347.685,360.651 340.722,360.651C329.538,360.651 320.472,369.717 320.472,380.901C320.472,381.25 320.455,381.587 320.472,381.932C321.014,392.631 329.888,401.151 340.722,401.151C347.562,401.387 353.888,397.541 360.16,395.12C362.331,393.878 365.152,393.867 367.316,395.12C369.306,396.271 370.669,398.805 370.879,401.151L370.91,401.151L370.91,468.87L438.66,468.87L438.66,468.839C441.005,468.629 443.539,467.266 444.691,465.276C445.944,463.111 445.933,460.291 444.691,458.12C442.27,451.848 438.423,445.522 438.66,438.682C438.66,427.848 447.179,418.974 457.879,418.432C458.224,418.414 458.56,418.432 458.91,418.432C470.094,418.432 479.16,427.498 479.16,438.682C479.16,445.644 475.384,451.592 473.129,458.12C471.887,460.291 471.876,463.112 473.129,465.276C474.28,467.266 476.814,468.629 479.16,468.839L479.16,468.87L552.91,468.87Z" style="fill:white;fill-opacity:0;fill-rule:nonzero;stroke:white;stroke-width:4.46px;"/>
        </g>
        <g transform="matrix(1,0,0,1,0.00016094,0.788377)">
            <path d="M374.19,221.54L306.471,221.661L306.471,221.692C304.126,221.906 301.594,223.273 300.446,225.265C299.197,227.432 299.213,230.252 300.459,232.421C302.891,238.689 306.749,245.008 306.525,251.848C306.544,262.682 298.041,271.571 287.342,272.132C286.997,272.15 286.66,272.133 286.311,272.134C275.127,272.154 266.045,263.104 266.025,251.92C266.012,244.958 269.778,239.003 272.021,232.471C273.259,230.298 273.265,227.477 272.008,225.315C270.853,223.327 268.317,221.969 265.971,221.763L265.971,221.732L192.221,221.863L192.352,295.613L192.321,295.613C192.115,297.959 190.757,300.496 188.769,301.651C186.607,302.908 183.786,302.902 181.613,301.664C175.082,299.42 169.127,295.655 162.164,295.667C150.98,295.687 141.93,304.769 141.95,315.953C141.951,316.303 141.934,316.639 141.952,316.984C142.513,327.683 151.402,336.186 162.236,336.167C169.076,336.392 175.396,332.534 181.663,330.102C183.832,328.856 186.652,328.84 188.819,330.089C190.811,331.237 197.305,333.759 197.519,336.105L197.55,336.105L197.671,403.855L266.294,403.732L266.294,403.763C268.64,403.969 271.176,405.327 272.331,407.315C273.588,409.477 273.582,412.298 272.344,414.471C270.101,421.002 266.335,426.957 266.348,433.92C266.368,445.104 275.45,454.154 286.634,454.134C286.983,454.134 287.32,454.15 287.665,454.132C298.363,453.571 306.867,444.682 306.848,433.848C307.072,427.008 303.214,420.688 300.782,414.421C299.536,412.253 299.52,409.432 300.769,407.265C301.918,405.273 304.449,403.906 306.794,403.692L306.794,403.661L374.513,403.54L374.392,335.79L374.361,335.79C374.147,333.445 372.78,330.914 370.788,329.765C368.621,328.517 365.8,328.533 363.632,329.778C357.364,332.21 351.045,336.068 344.205,335.844C333.371,335.863 324.482,327.36 323.921,316.661C323.903,316.316 323.92,315.979 323.919,315.63C323.899,304.446 332.949,295.364 344.133,295.344C351.095,295.331 357.05,299.097 363.582,301.34C365.755,302.578 368.576,302.584 370.738,301.328C372.726,300.172 374.084,297.636 374.29,295.29L374.321,295.29L374.19,221.54Z" style="fill:white;fill-opacity:0;fill-rule:nonzero;stroke:white;stroke-width:4.65px;"/>
        </g>
    </g>
</svg>
