<?xml version="1.0" encoding="UTF-8" standalone="no"?>
<!DOCTYPE svg PUBLIC "-//W3C//DTD SVG 1.1//EN" "http://www.w3.org/Graphics/SVG/1.1/DTD/svg11.dtd">
<svg width="100%" height="100%" viewBox="0 0 100 100" version="1.1" xmlns="http://www.w3.org/2000/svg" xmlns:xlink="http://www.w3.org/1999/xlink" xml:space="preserve" xmlns:serif="http://www.serif.com/" style="fill-rule:evenodd;clip-rule:evenodd;stroke-linejoin:round;stroke-miterlimit:2;">
    <g transform="matrix(0.71092,0,0,0.71092,-42.1351,-42.1346)">
        <g id="Layer_x0020_1">
            <g id="_2744583925152">
                <path d="M130.479,100.687L174.444,125.858L185.131,120.246L185.131,75.43L158.854,85.238C158.542,85.408 158.202,85.493 157.833,85.493L120.274,85.493L99.78,108.567L115.455,113.046L126.68,100.403C127.559,99.439 129.09,99.326 130.082,100.205C130.224,100.346 130.365,100.517 130.479,100.687ZM68.485,159.279L73.871,149.981L66.586,134.674C66.416,134.362 66.302,133.965 66.302,133.569L66.302,77.131L66.331,77.131C66.331,76.564 66.529,75.997 66.926,75.543C67.833,74.551 69.335,74.494 70.328,75.373L88.356,91.729L90.369,87.902C90.822,87.052 91.729,86.57 92.636,86.627L112.847,86.627L117.326,81.581C117.78,81.014 118.46,80.674 119.197,80.674L157.408,80.674L186.69,69.761C187.937,69.279 189.298,69.931 189.751,71.15C189.865,71.433 189.921,71.717 189.921,72L189.921,121.691C189.921,122.683 189.326,123.506 188.476,123.902L179.376,128.693L191.679,135.723C192.841,136.375 193.238,137.849 192.586,139.011L192.501,139.124L183.997,153.836C183.345,154.97 181.871,155.367 180.737,154.715L180.624,154.63L178.441,153.383L171.921,164.636C171.269,165.77 169.795,166.167 168.661,165.515L168.548,165.43L165.203,163.502L158.74,174.728C158.06,175.861 156.586,176.258 155.452,175.606L150.265,172.602L143.291,184.706C142.639,185.839 141.165,186.236 140.031,185.584L125.461,177.165L118.97,188.419L118.942,188.419C118.29,189.553 116.844,189.95 115.71,189.269L104.23,182.665C104.202,182.636 104.145,182.636 104.117,182.608C104.06,182.58 104.031,182.551 103.975,182.523L92.665,175.975C92.608,175.946 92.58,175.946 92.523,175.918C92.494,175.89 92.438,175.861 92.409,175.833L69.364,162.539C68.23,161.887 67.833,160.413 68.485,159.279ZM76.762,144.935L80.504,138.472C81.156,137.339 82.602,136.942 83.764,137.594L95.329,144.283L95.357,144.283L106.781,150.888C106.838,150.917 106.894,150.945 106.923,150.973C106.98,151.002 107.008,151.03 107.065,151.058L118.375,157.578C118.431,157.606 118.46,157.635 118.517,157.663C118.545,157.691 118.602,157.72 118.63,157.748L129.969,164.268C129.997,164.296 130.054,164.324 130.082,164.353C131.244,165.005 131.641,166.479 130.961,167.613L127.843,172.998L140.343,180.255L146.126,170.22L138.643,165.883C137.509,165.231 137.112,163.757 137.764,162.624C138.444,161.49 139.89,161.093 141.052,161.745L155.792,170.249L161.065,161.121L146.324,152.617C145.191,151.937 144.794,150.491 145.446,149.357C146.098,148.195 147.572,147.798 148.706,148.45L165.373,158.088C165.43,158.117 165.487,158.145 165.515,158.173C165.572,158.202 165.628,158.23 165.657,158.258L168.973,160.157L174.302,150.973L154.035,139.266C152.872,138.614 152.476,137.169 153.156,136.006C153.808,134.872 155.254,134.476 156.416,135.128L178.639,147.969C178.668,147.997 178.724,147.997 178.753,148.025C178.809,148.054 178.838,148.082 178.894,148.11L181.049,149.357L187.228,138.699L128.806,105.25L118.063,117.298C117.496,118.006 116.504,118.318 115.569,118.063L94.791,112.11C94.45,112.025 94.139,111.855 93.855,111.6C92.863,110.721 92.778,109.219 93.657,108.227L108.595,91.417L93.94,91.417L91.162,96.69C90.539,97.852 89.093,98.306 87.931,97.682C87.704,97.569 87.477,97.398 87.307,97.228L71.121,82.545L71.121,133.03L76.762,144.935ZM83.452,142.923L78.746,151.087C78.69,151.2 78.605,151.342 78.52,151.455L73.814,159.591L81.269,163.871L90.879,147.231L83.452,142.923ZM95.017,149.613L85.408,166.28L92.835,170.561L102.472,153.921L95.017,149.613ZM106.611,156.302L97.002,172.97L104.428,177.25L114.038,160.611L106.611,156.302ZM118.205,162.992L108.567,179.66L116.022,183.94L125.631,167.301L118.205,162.992Z" style="fill:white;fill-rule:nonzero;"/>
            </g>
        </g>
    </g>
</svg>
