<?xml version="1.0" encoding="UTF-8" standalone="no"?>
<!DOCTYPE svg PUBLIC "-//W3C//DTD SVG 1.1//EN" "http://www.w3.org/Graphics/SVG/1.1/DTD/svg11.dtd">
<svg width="100%" height="100%" viewBox="0 0 500 400" version="1.1" xmlns="http://www.w3.org/2000/svg" xmlns:xlink="http://www.w3.org/1999/xlink" xml:space="preserve" xmlns:serif="http://www.serif.com/" style="fill-rule:evenodd;clip-rule:evenodd;stroke-linecap:round;">
    <g id="objects" transform="matrix(0.2,0,0,0.2,0,175.496)">
        <g id="path1102" transform="matrix(1.01084,0.270853,-0.270853,1.01084,280.477,-920.519)">
            <path d="M307.128,1030.25L234.334,1072.28L234.334,988.226L307.128,1030.25Z" style="fill:white;fill-rule:nonzero;"/>
        </g>
        <path id="path1211" d="M529.109,-708.838L472.025,-675.88L472.025,-741.795L529.109,-708.838Z" style="fill:none;fill-rule:nonzero;stroke:white;stroke-width:5.23px;"/>
        <path id="path1213" d="M2144.26,-713.52L2083.53,-652.791L2061.3,-735.749L2144.26,-713.52Z" style="fill:white;fill-rule:nonzero;"/>
        <path id="path1215" d="M2097.88,305.999L2006.85,265.525L2087.42,206.934L2097.88,305.999Z" style="fill:white;fill-rule:nonzero;"/>
        <g id="g1227" transform="matrix(1.01084,0.270853,-0.270853,1.01084,537.852,-797.649)">
            <rect id="rect1221" x="327.289" y="1307.04" width="18.183" height="90.914" style="fill:white;"/>
            <g id="rect1223" transform="matrix(-3.82857e-16,1,-1,-3.82857e-16,0,0)">
                <rect x="1343.4" y="-381.838" width="18.183" height="90.914" style="fill:white;"/>
            </g>
        </g>
        <g id="g1299" transform="matrix(0.509196,0.382324,-0.382324,0.509196,2492.55,-845.487)">
            <rect id="rect1295" x="327.289" y="1307.04" width="18.183" height="90.914" style="fill:white;"/>
            <g id="rect1297" transform="matrix(-3.82857e-16,1,-1,-3.82857e-16,0,0)">
                <rect x="1343.4" y="-381.838" width="18.183" height="90.914" style="fill:white;"/>
            </g>
        </g>
        <g id="g1305" transform="matrix(0.829776,-0.274262,0.274262,0.829776,-228.062,-1376.97)">
            <rect id="rect1301" x="327.289" y="1307.04" width="18.183" height="90.914" style="fill:white;"/>
            <g id="rect1303" transform="matrix(-3.82857e-16,1,-1,-3.82857e-16,0,0)">
                <rect x="1343.4" y="-381.838" width="18.183" height="90.914" style="fill:white;"/>
            </g>
        </g>
        <g transform="matrix(0.264583,6.5964e-10,-6.5964e-10,0.264583,1.57893e-05,-877.48)">
            <g id="g1329">
                <path id="rect1325" d="M7644.57,5786.3L7575.14,5977.12L7384.32,5907.7L7349.6,6003.1L7540.42,6072.53L7471,6263.35L7566.41,6298.07L7635.83,6107.24L7826.65,6176.67L7861.37,6081.26L7670.54,6011.83L7739.97,5821.02L7644.57,5786.3Z" style="fill:none;fill-rule:nonzero;stroke:white;stroke-width:27.92px;"/>
            </g>
        </g>
        <circle id="path1331" cx="818.392" cy="-575.968" r="20.93" style="fill:none;stroke:white;stroke-width:5.23px;"/>
        <circle id="path1333" cx="833.56" cy="145.317" r="38.056" style="fill:white;"/>
        <circle id="path1335" cx="2252.52" cy="-375.038" r="17.94" style="fill:none;stroke:white;stroke-width:5.23px;"/>
        <path id="path1337" d="M573.439,965.653C573.439,965.653 565.495,915.265 579.042,896.536C592.588,877.807 629.383,888.304 642.929,869.574C656.475,850.845 634.985,819.187 648.531,800.457C662.078,781.728 698.873,792.225 712.419,773.495C725.965,754.766 704.475,723.108 718.021,704.378C731.567,685.649 768.363,696.146 781.909,677.417C795.455,658.687 773.965,627.029 787.511,608.3C801.057,589.57 851.399,581.338 851.399,581.338" style="fill:none;fill-rule:nonzero;stroke:white;stroke-width:12.56px;"/>
        <g id="path1339" transform="matrix(1,0,0,1,4.37027,-1.92728)">
            <path d="M1661.24,-400.37C1661.24,-400.37 1651.99,-426.115 1657.25,-437.341C1662.5,-448.568 1682.93,-446.735 1688.19,-457.962C1693.44,-469.189 1678.94,-483.706 1684.2,-494.933C1689.45,-506.159 1709.89,-504.327 1715.14,-515.553C1720.39,-526.78 1705.89,-541.297 1711.15,-552.524C1716.4,-563.75 1736.84,-561.918 1742.09,-573.144C1747.35,-584.371 1732.85,-598.888 1738.1,-610.115C1743.35,-621.341 1769.04,-630.736 1769.04,-630.736" style="fill:none;fill-rule:nonzero;stroke:white;stroke-width:12.56px;"/>
        </g>
        <path id="path1341" d="M568.885,-167.351C568.885,-167.351 541.847,-150.705 527.841,-153.995C513.834,-157.285 511.041,-180.937 497.034,-184.227C483.028,-187.517 469.996,-167.582 455.99,-170.872C441.983,-174.161 439.189,-197.814 425.183,-201.103C411.176,-204.393 398.145,-184.458 384.138,-187.748C370.132,-191.038 367.338,-214.69 353.331,-217.98C339.325,-221.27 326.293,-201.334 312.287,-204.624C298.281,-207.914 281.48,-234.856 281.48,-234.856" style="fill:none;fill-rule:nonzero;stroke:white;stroke-width:12.56px;"/>
        <path id="path970" d="M927.459,-182.684L875.609,-205.739L921.5,-239.115L927.459,-182.684Z" style="fill:none;fill-rule:nonzero;stroke:white;stroke-width:2.98px;"/>
        <circle id="circle972" cx="1686.23" cy="969.512" r="21.854" style="fill:white;"/>
        <circle id="circle974" cx="1618.95" cy="-254.889" r="35.309" style="fill:none;stroke:white;stroke-width:10.3px;"/>
        <g id="g4815" transform="matrix(0.624134,0.0737751,-0.0737751,0.624134,401.235,314.669)">
            <path id="path4811" d="M1405.27,-249.254C1387.87,-250.028 1374.17,-236.584 1372.47,-219.255L1363.28,-125.11C1317.57,-117.286 1292.39,-109.338 1251.19,-85.708L1182.54,-150.31C1170.79,-163.157 1150.98,-164.039 1138.14,-152.287L1066.46,-86.721C1053.61,-74.97 1052.73,-55.165 1064.48,-42.318L1123,32.107C1095.66,70.915 1085.34,95.173 1073.3,139.934L978.928,140.737C961.517,140.885 946.906,153.343 946.131,170.737L941.81,267.784C941.035,285.178 954.481,298.886 971.81,300.579L1065.95,309.776C1073.78,355.486 1081.73,380.658 1105.36,421.858L1040.75,490.515C1027.91,502.267 1027.03,522.069 1038.78,534.917L1104.34,606.596C1116.1,619.443 1135.06,619.335 1148.75,608.573L1223.17,550.056C1261.98,577.396 1286.24,587.715 1331,599.752L1331.8,694.127C1331.95,711.537 1344.41,726.147 1361.8,726.921L1458.85,731.243C1476.24,732.017 1489.95,718.573 1491.64,701.244L1500.84,607.097C1546.55,599.273 1571.72,591.325 1612.92,567.695L1681.58,632.299C1693.33,645.146 1713.13,646.028 1725.98,634.276L1797.66,568.708C1810.51,556.956 1811.39,537.154 1799.64,524.307L1741.12,449.884C1768.46,411.075 1778.78,386.815 1790.82,342.053L1885.19,341.25C1902.6,341.102 1917.21,328.646 1917.99,311.251L1922.31,214.205C1923.08,196.811 1909.64,183.101 1892.31,181.408L1798.16,172.211C1790.34,126.501 1782.39,101.329 1758.76,60.129L1823.36,-8.526C1836.21,-20.278 1837.09,-40.082 1825.34,-52.93L1759.77,-124.607C1748.02,-137.454 1728.22,-138.336 1715.37,-126.584L1640.95,-68.067C1602.14,-95.408 1577.88,-105.727 1533.12,-117.765L1532.32,-212.138C1532.17,-229.549 1519.71,-244.158 1502.32,-244.933L1405.27,-249.254ZM1443.16,-8.402C1579.98,-2.309 1687.55,115.285 1681.45,252.099C1675.36,388.914 1557.77,496.483 1420.95,490.391C1288.32,484.486 1182.41,373.758 1182.41,240.994C1182.41,237.291 1182.5,233.588 1182.66,229.888C1188.75,93.073 1306.35,-14.495 1443.16,-8.402Z" style="fill:none;fill-rule:nonzero;stroke:white;stroke-width:8.9px;stroke-linecap:butt;"/>
        </g>
        <g id="g4821" transform="matrix(0.521736,-0.0945682,0.0945682,0.521736,804.094,132.949)">
            <path id="path4819" d="M1416.59,-259.446C1399.19,-260.221 1385.49,-246.776 1383.8,-229.448L1374.6,-135.303C1328.89,-127.478 1303.72,-119.53 1262.52,-95.9L1193.86,-160.502C1182.11,-173.349 1162.3,-174.231 1149.46,-162.479L1077.78,-96.914C1064.93,-85.162 1064.05,-65.358 1075.8,-52.51L1134.32,21.914C1106.98,60.722 1096.66,84.981 1084.62,129.742L990.249,130.545C972.838,130.693 958.227,143.151 957.452,160.545L953.131,257.592C952.356,274.986 965.802,288.693 983.131,290.386L1077.28,299.583C1085.1,345.293 1093.05,370.466 1116.68,411.666L1052.07,480.323C1039.23,492.075 1038.35,511.877 1050.1,524.724L1115.66,596.403C1127.42,609.251 1146.38,609.142 1160.07,598.381L1234.49,539.864C1273.3,567.204 1297.56,577.523 1342.32,589.559L1343.12,683.935C1343.27,701.345 1355.73,715.955 1373.12,716.729L1470.17,721.051C1487.56,721.825 1501.27,708.381 1502.96,691.052L1512.16,596.905C1557.87,589.081 1583.04,581.133 1624.24,557.502L1692.9,622.107C1704.65,634.954 1724.46,635.836 1737.3,624.084L1808.98,558.516C1821.83,546.764 1822.71,526.962 1810.96,514.115L1752.44,439.692C1779.78,400.883 1790.1,376.623 1802.14,331.86L1896.51,331.058C1913.92,330.91 1928.53,318.453 1929.31,301.059L1933.63,204.013C1934.4,186.619 1920.96,172.909 1903.63,171.216L1809.48,162.019C1801.66,116.309 1793.71,91.137 1770.08,49.937L1834.68,-18.719C1847.53,-30.47 1848.41,-50.275 1836.66,-63.122L1771.1,-134.799C1759.34,-147.646 1739.54,-148.528 1726.69,-136.776L1652.27,-78.259C1613.46,-105.6 1589.2,-115.92 1544.44,-127.957L1543.64,-222.33C1543.49,-239.741 1531.03,-254.35 1513.64,-255.125L1416.59,-259.446ZM1454.49,-18.594C1591.3,-12.502 1698.87,105.092 1692.78,241.906C1686.87,374.538 1576.14,480.446 1443.38,480.446C1439.68,480.446 1435.97,480.363 1432.28,480.199C1299.64,474.293 1193.74,363.565 1193.74,230.802C1193.74,227.099 1193.82,223.396 1193.98,219.696C1200.08,82.881 1317.67,-24.687 1454.49,-18.594Z" style="fill:none;fill-rule:nonzero;stroke:white;stroke-width:8.9px;stroke-linecap:butt;"/>
        </g>
        <g id="g4827" transform="matrix(0.363531,0.174354,-0.174354,0.363531,682.404,-356.074)">
            <path id="path4825" d="M1388.69,-273.311C1371.3,-274.086 1357.59,-260.642 1355.9,-243.313L1346.7,-149.168C1300.99,-141.343 1275.82,-133.395 1234.62,-109.765L1165.96,-174.367C1154.21,-187.215 1134.41,-188.096 1121.56,-176.344L1049.88,-110.779C1037.04,-99.027 1036.15,-79.223 1047.9,-66.375L1106.42,8.049C1079.08,46.857 1068.76,71.116 1056.73,115.877L962.353,116.68C944.942,116.828 930.331,129.286 929.556,146.68L925.235,243.727C924.46,261.121 937.906,274.828 955.235,276.521L1049.38,285.718C1057.2,331.428 1065.15,356.6 1088.78,397.801L1024.18,466.458C1011.33,478.21 1010.45,498.012 1022.2,510.859L1087.77,582.538C1099.52,595.385 1118.49,595.277 1132.17,584.515L1206.6,525.999C1245.4,553.339 1269.66,563.658 1314.42,575.694L1315.23,670.069C1315.38,687.48 1327.83,702.089 1345.23,702.864L1442.27,707.185C1459.67,707.96 1473.38,694.516 1475.07,677.187L1484.27,583.04C1529.98,575.215 1555.15,567.267 1596.35,543.637L1665,608.241C1676.76,621.089 1696.56,621.971 1709.41,610.219L1781.08,544.651C1793.93,532.899 1794.81,513.097 1783.06,500.25L1724.55,425.827C1751.89,387.018 1762.2,362.758 1774.24,317.995L1868.62,317.193C1886.03,317.045 1900.64,304.588 1901.41,287.194L1905.73,190.148C1906.51,172.754 1893.06,159.044 1875.73,157.351L1781.59,148.154C1773.76,102.444 1765.82,77.272 1742.18,36.072L1806.79,-32.584C1819.63,-44.335 1820.52,-64.14 1808.77,-76.987L1743.2,-148.664C1731.45,-161.511 1711.64,-162.393 1698.8,-150.641L1624.37,-92.124C1585.56,-119.465 1561.31,-129.785 1516.54,-141.822L1515.74,-236.195C1515.59,-253.606 1503.13,-268.215 1485.74,-268.99L1388.69,-273.311ZM1426.59,-32.459C1563.4,-26.367 1670.97,91.227 1664.88,228.041C1658.79,364.856 1541.19,472.425 1404.38,466.333C1271.75,460.428 1165.84,349.7 1165.84,216.937C1165.84,213.234 1165.92,209.531 1166.09,205.831C1172.18,69.016 1289.78,-38.552 1426.59,-32.459Z" style="fill:none;fill-rule:nonzero;stroke:white;stroke-width:8.9px;stroke-linecap:butt;"/>
        </g>
        <g id="g835" transform="matrix(0.734702,0.74523,-0.74523,0.734702,634.152,-645.221)">
            <path id="path831" d="M1607.28,297.08C1606.63,297.057 1606.07,297.135 1605.6,297.337C1600.59,299.492 1597.87,319.354 1597.24,324.765C1596.6,330.176 1594.64,350.128 1599.01,353.384C1608.79,357.268 1619.85,344.917 1622.81,351.972C1643.66,401.977 1636.26,459.283 1603.38,502.345C1598.28,508.614 1608.01,516.042 1612.72,509.472C1648.13,463.089 1656.11,401.315 1633.65,347.453C1627.98,340.545 1649.15,339.182 1650.84,331.07C1651.47,325.659 1635.63,313.373 1631.27,310.117C1627.31,307.166 1613.55,297.3 1607.28,297.08Z" style="fill:none;fill-rule:nonzero;stroke:white;stroke-width:5px;"/>
        </g>
        <g id="g841" transform="matrix(0.75108,-0.256182,0.256182,0.75108,545.477,140.469)">
            <path id="path839" d="M1607.38,291.436C1606.73,291.413 1606.16,291.492 1605.69,291.694C1600.68,293.848 1597.96,313.711 1597.33,319.122C1596.69,324.532 1594.73,344.485 1599.1,347.741C1608.88,351.624 1619.94,339.274 1622.9,346.329C1643.75,396.334 1636.35,453.64 1603.47,496.702C1598.37,502.971 1608.1,510.398 1612.81,503.829C1648.22,457.445 1656.2,395.672 1633.74,341.809C1628.07,334.902 1649.24,333.538 1650.93,325.426C1651.57,320.016 1635.73,307.73 1631.36,304.473C1627.4,301.522 1613.64,291.657 1607.38,291.436Z" style="fill:none;fill-rule:nonzero;stroke:white;stroke-width:5px;"/>
        </g>
        <g id="g847" transform="matrix(0.314416,0.648946,0.648946,-0.314416,456.929,-706.183)">
            <path id="path845" d="M1602.58,283.84C1601.93,283.818 1601.36,283.896 1600.89,284.098C1595.88,286.253 1593.17,306.115 1592.53,311.526C1591.89,316.937 1589.93,336.889 1594.3,340.145C1604.09,344.029 1615.14,331.678 1618.1,338.733C1638.95,388.738 1631.55,446.044 1598.67,489.106C1593.57,495.375 1603.31,502.803 1608.01,496.233C1643.42,449.849 1651.4,388.076 1628.94,334.213C1623.28,327.306 1644.44,325.942 1646.13,317.831C1646.77,312.42 1630.93,300.134 1626.56,296.878C1622.6,293.927 1608.85,284.061 1602.58,283.84Z" style="fill:rgb(130,207,255);fill-opacity:0;fill-rule:nonzero;stroke:white;stroke-width:5px;"/>
        </g>
        <g id="g1178" transform="matrix(0.787317,-0.210961,0.210961,0.787317,636.248,88.6331)">
            <g id="rect1021" transform="matrix(-3.82857e-16,1,-1,-3.82857e-16,0,0)">
                <rect x="-578.249" y="-1035.7" width="7.429" height="85.394" style="fill:none;stroke:white;stroke-width:3.28px;"/>
            </g>
            <path id="path1083" d="M818.688,-528.207L835.199,-439.097" style="fill:none;fill-rule:nonzero;stroke:white;stroke-width:4px;"/>
            <path id="path1085" d="M874.925,-528.207L858.414,-439.097" style="fill:none;fill-rule:nonzero;stroke:white;stroke-width:4px;"/>
            <path id="path1087" d="M822.878,-507.728C822.878,-507.728 826.432,-513.368 828.86,-513.368C831.288,-513.368 832.414,-507.728 834.842,-507.728C837.27,-507.728 838.396,-513.368 840.824,-513.368C843.253,-513.368 844.378,-507.728 846.806,-507.728C849.235,-507.728 850.36,-513.368 852.789,-513.368C855.217,-513.368 856.342,-507.728 858.771,-507.728C861.199,-507.728 862.325,-513.368 864.753,-513.368C867.181,-513.368 870.735,-507.728 870.735,-507.728" style="fill:none;fill-rule:nonzero;stroke:white;stroke-width:4px;"/>
            <path id="path860" d="M901.853,-531.465C920.11,-563.088 913.027,-603.255 885.055,-626.726C871.541,-638.066 854.472,-644.296 836.83,-644.329C819.092,-644.363 801.913,-638.128 788.325,-626.726C760.353,-603.255 753.27,-563.088 771.528,-531.465C771.528,-531.465 796.007,-489.32 799.021,-475.655C801.015,-466.612 799.021,-455.525 799.021,-455.525C799.021,-450.323 803.209,-446.135 808.411,-446.135L864.969,-446.135C870.171,-446.135 874.36,-450.323 874.36,-455.525C874.36,-455.525 872.365,-466.612 874.36,-475.655C877.374,-489.32 901.853,-531.465 901.853,-531.465Z" style="fill:none;fill-rule:nonzero;stroke:white;stroke-width:3.57px;stroke-linecap:butt;"/>
            <path id="path900" d="M808.572,-536.208L825.083,-447.097" style="fill:none;fill-rule:nonzero;stroke:white;stroke-width:3.57px;"/>
            <path id="path904" d="M864.809,-536.208L848.298,-447.097" style="fill:none;fill-rule:nonzero;stroke:white;stroke-width:3.57px;"/>
            <path id="path923" d="M812.762,-515.728C812.762,-515.728 816.316,-521.368 818.744,-521.368C821.172,-521.368 822.298,-515.728 824.726,-515.728C827.154,-515.728 828.28,-521.368 830.708,-521.368C833.136,-521.368 834.262,-515.728 836.69,-515.728C839.118,-515.728 840.244,-521.368 842.672,-521.368C845.101,-521.368 846.226,-515.728 848.654,-515.728C851.083,-515.728 852.208,-521.368 854.637,-521.368C857.065,-521.368 860.619,-515.728 860.619,-515.728" style="fill:none;fill-rule:nonzero;stroke:white;stroke-width:3.57px;"/>
            <rect id="rect1007" x="789.638" y="-445.443" width="82.105" height="22.137" style="fill:none;stroke:white;stroke-width:3.57px;stroke-linecap:butt;"/>
            <rect id="rect1009" x="797.979" y="-418.636" width="65.422" height="18.755" style="fill:none;stroke:white;stroke-width:3.57px;stroke-linecap:butt;"/>
            <path id="path1011" d="M849.054,-395.211C849.054,-391.34 842.318,-389.494 837.9,-388.224C835.691,-387.59 833.114,-387.272 830.69,-387.272C828.266,-387.272 825.69,-387.589 823.48,-388.224C819.062,-389.494 812.327,-391.34 812.327,-395.211L849.054,-395.211Z" style="fill:none;fill-rule:nonzero;stroke:white;stroke-width:3.57px;stroke-linecap:butt;"/>
            <rect id="rect1013" x="835.746" y="-770.775" width="7.429" height="85.394" style="fill:none;stroke:white;stroke-width:3.28px;"/>
            <g id="rect1015" transform="matrix(0.707107,-0.707107,0.707107,0.707107,0,0)">
                <rect x="983.63" y="21.27" width="7.429" height="50.037" style="fill:none;stroke:white;stroke-width:3.28px;"/>
            </g>
            <g id="rect1017" transform="matrix(0.707107,0.707107,-0.707107,0.707107,0,0)">
                <rect x="196.117" y="-1165.91" width="7.429" height="50.037" style="fill:none;stroke:white;stroke-width:3.28px;"/>
            </g>
            <g id="rect1019" transform="matrix(-3.82857e-16,-1,1,-3.82857e-16,0,0)">
                <rect x="570.82" y="643.22" width="7.429" height="85.394" style="fill:none;stroke:white;stroke-width:3.28px;"/>
            </g>
            <g id="rect1023" transform="matrix(-0.5,-0.866025,0.866025,-0.5,0,0)">
                <rect x="58.807" y="826.86" width="7.429" height="50.037" style="fill:none;stroke:white;stroke-width:3.28px;"/>
            </g>
            <g id="rect1025" transform="matrix(-0.5,0.866025,-0.866025,-0.5,0,0)">
                <rect x="-905.696" y="-627.128" width="7.429" height="50.037" style="fill:none;stroke:white;stroke-width:3.28px;"/>
            </g>
        </g>
        <g id="g1280" transform="matrix(0.347182,0,0,0.347182,534.415,-612.165)">
            <path id="path1257" d="M546.505,468.239C426.657,468.239 329.502,541.425 329.503,631.704C329.503,721.982 426.658,795.167 546.505,795.167C587.883,795.155 628.397,786.24 663.268,769.461C663.268,769.461 756.582,810.756 766.718,796.358C774.463,785.354 720.698,728.864 720.698,728.864C748.41,700.765 763.415,666.708 763.507,631.704C763.507,541.425 666.352,468.239 546.505,468.239Z" style="fill:none;fill-rule:nonzero;stroke:white;stroke-width:8.36px;"/>
        </g>
        <g id="g1331" transform="matrix(0.440904,0,0,0.440904,1484.16,298.457)">
            <path id="rect1304" d="M676.437,213.91C665.453,213.91 660.61,222.753 660.61,233.737L666.167,272.498L664.689,284.981L619.306,356.657L594.306,356.657L594.306,464.694C611.284,466.288 634.561,477.897 650.618,478.014L754.452,478.014C765.427,478.014 774.263,468.675 774.263,457.076C774.263,449.326 770.306,442.602 764.413,438.983L776.935,438.983C787.91,438.983 796.743,429.644 796.743,418.045C796.743,410.294 792.789,403.569 786.896,399.949L790.136,399.949C801.111,399.949 809.948,390.613 809.948,379.014C809.948,368.329 802.447,359.569 792.685,358.254C798.733,354.678 802.81,347.856 802.81,339.983C802.81,328.384 793.974,319.045 782.999,319.045L707.624,319.045C707.624,319.045 716.216,285.998 713.624,269.598C704.517,243.297 704.893,213.91 676.437,213.91Z" style="fill:none;fill-rule:nonzero;stroke:white;stroke-width:6px;"/>
        </g>
        <g id="path930" transform="matrix(0.457418,0.122565,-0.122565,0.457418,1804.43,-1186.7)">
            <path d="M470.853,1384.54C453.837,1384.54 439.835,1398.55 439.835,1415.56C439.85,1425.38 444.521,1434.62 452.411,1440.46L375.898,1440.46C366.944,1440.46 359.736,1447.66 359.736,1456.62L359.736,1542.23C365.57,1534.33 374.817,1529.66 384.632,1529.65L384.632,1529.65C401.648,1529.65 415.65,1543.65 415.65,1560.66L415.65,1560.66C415.65,1577.68 401.648,1591.68 384.632,1591.68C374.818,1591.67 365.571,1587 359.736,1579.11L359.736,1664.71C359.736,1673.66 366.944,1680.87 375.898,1680.87L452.408,1680.87C444.518,1686.71 439.849,1695.95 439.835,1705.77L439.835,1705.77C439.835,1722.78 453.837,1736.78 470.853,1736.78L470.853,1736.78C487.869,1736.78 501.87,1722.78 501.87,1705.77C501.856,1695.95 497.185,1686.71 489.294,1680.87L565.808,1680.87C574.762,1680.87 581.97,1673.66 581.97,1664.71L581.97,1579.11C576.135,1587 566.888,1591.67 557.074,1591.68C540.058,1591.68 526.056,1577.68 526.056,1560.66L526.056,1560.66C526.056,1543.65 540.058,1529.65 557.074,1529.65L557.074,1529.65C566.888,1529.66 576.135,1534.33 581.97,1542.22L581.97,1456.62C581.97,1447.66 574.762,1440.46 565.808,1440.46L489.298,1440.46C497.188,1434.62 501.857,1425.38 501.87,1415.56C501.87,1398.55 487.869,1384.54 470.853,1384.54Z" style="fill:none;fill-rule:nonzero;stroke:white;stroke-width:6px;stroke-linecap:butt;"/>
        </g>
        <g id="path932" transform="matrix(0.457418,0.122565,-0.122565,0.457418,1804.43,-1186.7)">
            <path d="M767.838,1564.35C750.822,1564.35 736.82,1578.35 736.82,1595.37C736.835,1605.18 741.506,1614.43 749.396,1620.26L672.883,1620.26C663.929,1620.26 656.721,1627.47 656.721,1636.43L656.721,1722.03C650.885,1714.14 641.639,1709.47 631.826,1709.45L631.826,1709.45C614.81,1709.45 600.808,1723.46 600.808,1740.47L600.808,1740.47C600.808,1757.49 614.81,1771.49 631.826,1771.49L631.826,1771.49C641.64,1771.48 650.886,1766.81 656.721,1758.91L656.721,1844.52C656.721,1853.47 663.929,1860.68 672.883,1860.68L749.398,1860.68C741.506,1854.85 736.834,1845.6 736.82,1835.78C736.82,1818.77 750.822,1804.77 767.838,1804.77L767.838,1804.77C784.853,1804.77 798.855,1818.77 798.855,1835.78L798.855,1835.78C798.842,1845.6 794.172,1854.84 786.281,1860.68L862.793,1860.68C871.747,1860.68 878.955,1853.47 878.955,1844.52L878.955,1758.92C884.79,1766.81 894.036,1771.48 903.849,1771.49C920.865,1771.49 934.867,1757.49 934.867,1740.47C934.867,1723.46 920.865,1709.45 903.849,1709.45C894.036,1709.47 884.79,1714.14 878.955,1722.03L878.955,1636.43C878.955,1627.47 871.747,1620.26 862.793,1620.26L786.283,1620.26C794.172,1614.43 798.842,1605.18 798.855,1595.37L798.855,1595.37C798.855,1578.35 784.853,1564.35 767.838,1564.35L767.838,1564.35Z" style="fill:none;fill-rule:nonzero;stroke:white;stroke-width:6px;stroke-linecap:butt;"/>
        </g>
        <g transform="matrix(0.439192,0.179533,-0.179533,0.439192,1421.06,-798.43)">
            <g id="g990">
                <g id="g980">
                    <path id="path974" d="M339.526,379.726C316.753,395.812 303.162,422.001 303.12,449.882C303.156,484.428 323.992,515.745 355.84,529.126L355.84,928.525C323.992,941.906 303.156,973.223 303.12,1007.77C303.162,1035.65 316.753,1061.84 339.526,1077.92L339.526,1019.11L390.184,980.911L440.844,1019.11L440.844,1076.45C462.437,1060.24 475.187,1034.77 475.229,1007.77C475.225,973.194 454.385,941.836 422.51,928.443L422.51,529.208C454.385,515.815 475.225,484.457 475.229,449.882C475.187,422.88 462.437,397.414 440.844,381.2L440.844,438.538L390.184,476.739L339.526,438.538L339.526,379.726Z" style="fill:none;fill-rule:nonzero;stroke:white;stroke-opacity:0.84;stroke-width:6px;stroke-linecap:butt;"/>
                    <g id="path976" transform="matrix(0.264583,0,0,0.264583,0,-877.48)">
                        <path d="M1508.07,4722.65L1372.11,4801.15L1372.11,4958.14L1508.07,5036.63L1644.03,4958.14L1644.03,4801.15L1508.07,4722.65ZM1508.07,4828.1C1536.34,4828.1 1559.61,4851.37 1559.61,4879.64C1559.61,4907.92 1536.34,4931.18 1508.07,4931.18C1479.8,4931.18 1456.53,4907.92 1456.53,4879.64C1456.53,4851.37 1479.79,4828.1 1508.07,4828.1Z" style="fill:none;fill-rule:nonzero;stroke:white;stroke-opacity:0.84;stroke-width:22.68px;stroke-linecap:butt;"/>
                    </g>
                    <g id="path978" transform="matrix(0.264583,0,0,0.264583,0,-877.48)">
                        <path d="M1845.66,4318.69L1662.4,4424.5L1662.4,4636.11L1845.66,4741.92L2028.92,4636.11L2028.92,4424.5L1845.66,4318.69ZM1845.66,4460.83C1845.66,4460.83 1845.66,4460.83 1845.66,4460.83C1883.77,4460.83 1915.13,4492.19 1915.13,4530.31C1915.13,4530.31 1915.13,4530.31 1915.13,4530.31C1915.13,4568.42 1883.77,4599.78 1845.66,4599.78C1845.66,4599.78 1845.66,4599.78 1845.66,4599.78C1807.55,4599.78 1776.19,4568.42 1776.19,4530.31C1776.19,4530.31 1776.19,4530.31 1776.19,4530.31C1776.19,4492.19 1807.55,4460.83 1845.66,4460.83Z" style="fill:none;fill-rule:nonzero;stroke:white;stroke-opacity:0.84;stroke-width:22.68px;stroke-linecap:butt;"/>
                    </g>
                </g>
            </g>
        </g>
        <g id="g1099" transform="matrix(0.579877,-0.0784765,0.0784765,0.579877,467.632,-219.222)">
            <path id="path966" d="M455.714,295.514L400.001,337.963L400.001,458.234L455.714,458.234L455.714,295.514Z" style="fill:white;fill-rule:nonzero;"/>
            <path id="path964" d="M390.237,345.401L347.143,378.234L334.524,370.004L334.524,458.234L390.237,458.234L390.237,345.401Z" style="fill:white;fill-rule:nonzero;"/>
            <path id="path962" d="M297.856,346.092L269.048,366.531L269.048,458.234L324.763,458.234L324.763,363.639L297.856,346.092Z" style="fill:white;fill-rule:nonzero;"/>
            <path id="rect1028" d="M259.286,373.457L203.571,412.984L203.571,458.234L259.286,458.234L259.286,373.457Z" style="fill:white;fill-rule:nonzero;"/>
            <path id="path1042" d="M489.648,222.106C472.476,222.216 428.987,234.774 427.102,241.746C426.228,244.977 432.493,253.75 440.908,263.1L346.727,334.858L297.639,302.842L205.445,368.252C202.938,369.988 201.438,372.85 201.438,375.899C201.438,381.002 205.637,385.2 210.739,385.2C212.704,385.2 214.62,384.578 216.209,383.422L298.08,325.334L347.561,357.608L454.047,276.473C464.116,285.882 473.954,293.228 477.43,292.305C485.704,290.108 502.09,229.507 496.051,223.44C495.107,222.492 492.829,222.085 489.648,222.106Z" style="fill:white;fill-rule:nonzero;"/>
        </g>
    </g>
</svg>
